<?xml version="1.0" encoding="utf-8"?>
<svg xmlns="http://www.w3.org/2000/svg" xmlns:xlink="http://www.w3.org/1999/xlink" width="300" height="120" viewBox="0 0 1200 480">
<defs>
  <clipPath id="clip320">
    <rect x="0" y="0" width="1200" height="480"/>
  </clipPath>
</defs>
<path clip-path="url(#clip320)" d="
M0 480 L1200 480 L1200 0 L0 0  Z
  " fill="#ffffff" fill-rule="evenodd" fill-opacity="1"/>
<defs>
  <clipPath id="clip321">
    <rect x="240" y="0" width="841" height="480"/>
  </clipPath>
</defs>
<path clip-path="url(#clip320)" d="
M181.936 391.472 L1152.76 391.472 L1152.76 47.2441 L181.936 47.2441  Z
  " fill="#ffffff" fill-rule="evenodd" fill-opacity="1"/>
<defs>
  <clipPath id="clip322">
    <rect x="181" y="47" width="972" height="345"/>
  </clipPath>
</defs>
<polyline clip-path="url(#clip322)" style="stroke:#000000; stroke-linecap:butt; stroke-linejoin:round; stroke-width:2; stroke-opacity:0.1; fill:none" points="
  311.175,391.472 311.175,47.2441 
  "/>
<polyline clip-path="url(#clip322)" style="stroke:#000000; stroke-linecap:butt; stroke-linejoin:round; stroke-width:2; stroke-opacity:0.1; fill:none" points="
  514.701,391.472 514.701,47.2441 
  "/>
<polyline clip-path="url(#clip322)" style="stroke:#000000; stroke-linecap:butt; stroke-linejoin:round; stroke-width:2; stroke-opacity:0.1; fill:none" points="
  718.227,391.472 718.227,47.2441 
  "/>
<polyline clip-path="url(#clip322)" style="stroke:#000000; stroke-linecap:butt; stroke-linejoin:round; stroke-width:2; stroke-opacity:0.1; fill:none" points="
  921.754,391.472 921.754,47.2441 
  "/>
<polyline clip-path="url(#clip322)" style="stroke:#000000; stroke-linecap:butt; stroke-linejoin:round; stroke-width:2; stroke-opacity:0.1; fill:none" points="
  1125.28,391.472 1125.28,47.2441 
  "/>
<polyline clip-path="url(#clip320)" style="stroke:#000000; stroke-linecap:butt; stroke-linejoin:round; stroke-width:4; stroke-opacity:1; fill:none" points="
  181.936,391.472 1152.76,391.472 
  "/>
<polyline clip-path="url(#clip320)" style="stroke:#000000; stroke-linecap:butt; stroke-linejoin:round; stroke-width:4; stroke-opacity:1; fill:none" points="
  311.175,391.472 311.175,372.574 
  "/>
<polyline clip-path="url(#clip320)" style="stroke:#000000; stroke-linecap:butt; stroke-linejoin:round; stroke-width:4; stroke-opacity:1; fill:none" points="
  514.701,391.472 514.701,372.574 
  "/>
<polyline clip-path="url(#clip320)" style="stroke:#000000; stroke-linecap:butt; stroke-linejoin:round; stroke-width:4; stroke-opacity:1; fill:none" points="
  718.227,391.472 718.227,372.574 
  "/>
<polyline clip-path="url(#clip320)" style="stroke:#000000; stroke-linecap:butt; stroke-linejoin:round; stroke-width:4; stroke-opacity:1; fill:none" points="
  921.754,391.472 921.754,372.574 
  "/>
<polyline clip-path="url(#clip320)" style="stroke:#000000; stroke-linecap:butt; stroke-linejoin:round; stroke-width:4; stroke-opacity:1; fill:none" points="
  1125.28,391.472 1125.28,372.574 
  "/>
<path clip-path="url(#clip320)" d="M305.828 440.337 L322.147 440.337 L322.147 444.272 L300.203 444.272 L300.203 440.337 Q302.865 437.582 307.448 432.952 Q312.055 428.3 313.235 426.957 Q315.481 424.434 316.36 422.698 Q317.263 420.939 317.263 419.249 Q317.263 416.494 315.319 414.758 Q313.397 413.022 310.296 413.022 Q308.096 413.022 305.643 413.786 Q303.212 414.55 300.434 416.101 L300.434 411.379 Q303.259 410.244 305.712 409.666 Q308.166 409.087 310.203 409.087 Q315.573 409.087 318.768 411.772 Q321.962 414.457 321.962 418.948 Q321.962 421.078 321.152 422.999 Q320.365 424.897 318.258 427.49 Q317.68 428.161 314.578 431.378 Q311.476 434.573 305.828 440.337 Z" fill="#000000" fill-rule="evenodd" fill-opacity="1" /><path clip-path="url(#clip320)" d="M517.711 413.786 L505.905 432.235 L517.711 432.235 L517.711 413.786 M516.484 409.712 L522.363 409.712 L522.363 432.235 L527.294 432.235 L527.294 436.124 L522.363 436.124 L522.363 444.272 L517.711 444.272 L517.711 436.124 L502.109 436.124 L502.109 431.61 L516.484 409.712 Z" fill="#000000" fill-rule="evenodd" fill-opacity="1" /><path clip-path="url(#clip320)" d="M718.633 425.128 Q715.484 425.128 713.633 427.281 Q711.804 429.434 711.804 433.184 Q711.804 436.911 713.633 439.087 Q715.484 441.239 718.633 441.239 Q721.781 441.239 723.609 439.087 Q725.461 436.911 725.461 433.184 Q725.461 429.434 723.609 427.281 Q721.781 425.128 718.633 425.128 M727.915 410.476 L727.915 414.735 Q726.156 413.902 724.35 413.462 Q722.568 413.022 720.809 413.022 Q716.179 413.022 713.725 416.147 Q711.295 419.272 710.947 425.591 Q712.313 423.578 714.373 422.513 Q716.434 421.425 718.91 421.425 Q724.119 421.425 727.128 424.596 Q730.16 427.744 730.16 433.184 Q730.16 438.508 727.012 441.726 Q723.864 444.943 718.633 444.943 Q712.637 444.943 709.466 440.36 Q706.295 435.753 706.295 427.027 Q706.295 418.832 710.184 413.971 Q714.072 409.087 720.623 409.087 Q722.383 409.087 724.165 409.434 Q725.971 409.781 727.915 410.476 Z" fill="#000000" fill-rule="evenodd" fill-opacity="1" /><path clip-path="url(#clip320)" d="M921.754 427.86 Q918.42 427.86 916.499 429.642 Q914.601 431.425 914.601 434.55 Q914.601 437.675 916.499 439.457 Q918.42 441.239 921.754 441.239 Q925.087 441.239 927.008 439.457 Q928.93 437.652 928.93 434.55 Q928.93 431.425 927.008 429.642 Q925.11 427.86 921.754 427.86 M917.078 425.869 Q914.069 425.128 912.379 423.068 Q910.712 421.008 910.712 418.045 Q910.712 413.902 913.652 411.494 Q916.615 409.087 921.754 409.087 Q926.916 409.087 929.855 411.494 Q932.795 413.902 932.795 418.045 Q932.795 421.008 931.105 423.068 Q929.439 425.128 926.453 425.869 Q929.832 426.656 931.707 428.948 Q933.605 431.24 933.605 434.55 Q933.605 439.573 930.527 442.258 Q927.471 444.943 921.754 444.943 Q916.036 444.943 912.957 442.258 Q909.902 439.573 909.902 434.55 Q909.902 431.24 911.8 428.948 Q913.698 426.656 917.078 425.869 M915.365 418.485 Q915.365 421.17 917.031 422.675 Q918.721 424.179 921.754 424.179 Q924.763 424.179 926.453 422.675 Q928.166 421.17 928.166 418.485 Q928.166 415.8 926.453 414.295 Q924.763 412.791 921.754 412.791 Q918.721 412.791 917.031 414.295 Q915.365 415.8 915.365 418.485 Z" fill="#000000" fill-rule="evenodd" fill-opacity="1" /><path clip-path="url(#clip320)" d="M1099.97 440.337 L1107.61 440.337 L1107.61 413.971 L1099.3 415.638 L1099.3 411.379 L1107.56 409.712 L1112.24 409.712 L1112.24 440.337 L1119.87 440.337 L1119.87 444.272 L1099.97 444.272 L1099.97 440.337 Z" fill="#000000" fill-rule="evenodd" fill-opacity="1" /><path clip-path="url(#clip320)" d="M1139.32 412.791 Q1135.71 412.791 1133.88 416.355 Q1132.07 419.897 1132.07 427.027 Q1132.07 434.133 1133.88 437.698 Q1135.71 441.239 1139.32 441.239 Q1142.95 441.239 1144.76 437.698 Q1146.59 434.133 1146.59 427.027 Q1146.59 419.897 1144.76 416.355 Q1142.95 412.791 1139.32 412.791 M1139.32 409.087 Q1145.13 409.087 1148.18 413.693 Q1151.26 418.277 1151.26 427.027 Q1151.26 435.753 1148.18 440.36 Q1145.13 444.943 1139.32 444.943 Q1133.51 444.943 1130.43 440.36 Q1127.37 435.753 1127.37 427.027 Q1127.37 418.277 1130.43 413.693 Q1133.51 409.087 1139.32 409.087 Z" fill="#000000" fill-rule="evenodd" fill-opacity="1" /><polyline clip-path="url(#clip322)" style="stroke:#000000; stroke-linecap:butt; stroke-linejoin:round; stroke-width:2; stroke-opacity:0.1; fill:none" points="
  181.936,360.918 1152.76,360.918 
  "/>
<polyline clip-path="url(#clip322)" style="stroke:#000000; stroke-linecap:butt; stroke-linejoin:round; stroke-width:2; stroke-opacity:0.1; fill:none" points="
  181.936,313.08 1152.76,313.08 
  "/>
<polyline clip-path="url(#clip322)" style="stroke:#000000; stroke-linecap:butt; stroke-linejoin:round; stroke-width:2; stroke-opacity:0.1; fill:none" points="
  181.936,265.243 1152.76,265.243 
  "/>
<polyline clip-path="url(#clip322)" style="stroke:#000000; stroke-linecap:butt; stroke-linejoin:round; stroke-width:2; stroke-opacity:0.1; fill:none" points="
  181.936,217.406 1152.76,217.406 
  "/>
<polyline clip-path="url(#clip322)" style="stroke:#000000; stroke-linecap:butt; stroke-linejoin:round; stroke-width:2; stroke-opacity:0.1; fill:none" points="
  181.936,169.568 1152.76,169.568 
  "/>
<polyline clip-path="url(#clip322)" style="stroke:#000000; stroke-linecap:butt; stroke-linejoin:round; stroke-width:2; stroke-opacity:0.1; fill:none" points="
  181.936,121.731 1152.76,121.731 
  "/>
<polyline clip-path="url(#clip322)" style="stroke:#000000; stroke-linecap:butt; stroke-linejoin:round; stroke-width:2; stroke-opacity:0.1; fill:none" points="
  181.936,73.8935 1152.76,73.8935 
  "/>
<polyline clip-path="url(#clip320)" style="stroke:#000000; stroke-linecap:butt; stroke-linejoin:round; stroke-width:4; stroke-opacity:1; fill:none" points="
  181.936,391.472 181.936,47.2441 
  "/>
<polyline clip-path="url(#clip320)" style="stroke:#000000; stroke-linecap:butt; stroke-linejoin:round; stroke-width:4; stroke-opacity:1; fill:none" points="
  181.936,360.918 200.834,360.918 
  "/>
<polyline clip-path="url(#clip320)" style="stroke:#000000; stroke-linecap:butt; stroke-linejoin:round; stroke-width:4; stroke-opacity:1; fill:none" points="
  181.936,313.08 200.834,313.08 
  "/>
<polyline clip-path="url(#clip320)" style="stroke:#000000; stroke-linecap:butt; stroke-linejoin:round; stroke-width:4; stroke-opacity:1; fill:none" points="
  181.936,265.243 200.834,265.243 
  "/>
<polyline clip-path="url(#clip320)" style="stroke:#000000; stroke-linecap:butt; stroke-linejoin:round; stroke-width:4; stroke-opacity:1; fill:none" points="
  181.936,217.406 200.834,217.406 
  "/>
<polyline clip-path="url(#clip320)" style="stroke:#000000; stroke-linecap:butt; stroke-linejoin:round; stroke-width:4; stroke-opacity:1; fill:none" points="
  181.936,169.568 200.834,169.568 
  "/>
<polyline clip-path="url(#clip320)" style="stroke:#000000; stroke-linecap:butt; stroke-linejoin:round; stroke-width:4; stroke-opacity:1; fill:none" points="
  181.936,121.731 200.834,121.731 
  "/>
<polyline clip-path="url(#clip320)" style="stroke:#000000; stroke-linecap:butt; stroke-linejoin:round; stroke-width:4; stroke-opacity:1; fill:none" points="
  181.936,73.8935 200.834,73.8935 
  "/>
<path clip-path="url(#clip320)" d="M57.9875 361.369 L87.6633 361.369 L87.6633 365.304 L57.9875 365.304 L57.9875 361.369 Z" fill="#000000" fill-rule="evenodd" fill-opacity="1" /><path clip-path="url(#clip320)" d="M98.566 374.263 L106.205 374.263 L106.205 347.897 L97.8947 349.564 L97.8947 345.304 L106.159 343.638 L110.834 343.638 L110.834 374.263 L118.473 374.263 L118.473 378.198 L98.566 378.198 L98.566 374.263 Z" fill="#000000" fill-rule="evenodd" fill-opacity="1" /><path clip-path="url(#clip320)" d="M127.918 372.318 L132.802 372.318 L132.802 378.198 L127.918 378.198 L127.918 372.318 Z" fill="#000000" fill-rule="evenodd" fill-opacity="1" /><path clip-path="url(#clip320)" d="M143.033 343.638 L161.39 343.638 L161.39 347.573 L147.316 347.573 L147.316 356.045 Q148.334 355.698 149.353 355.536 Q150.371 355.351 151.39 355.351 Q157.177 355.351 160.556 358.522 Q163.936 361.693 163.936 367.11 Q163.936 372.688 160.464 375.79 Q156.992 378.869 150.672 378.869 Q148.496 378.869 146.228 378.499 Q143.982 378.128 141.575 377.388 L141.575 372.688 Q143.658 373.823 145.881 374.378 Q148.103 374.934 150.58 374.934 Q154.584 374.934 156.922 372.827 Q159.26 370.721 159.26 367.11 Q159.26 363.499 156.922 361.392 Q154.584 359.286 150.58 359.286 Q148.705 359.286 146.83 359.702 Q144.978 360.119 143.033 360.999 L143.033 343.638 Z" fill="#000000" fill-rule="evenodd" fill-opacity="1" /><path clip-path="url(#clip320)" d="M56.9921 313.532 L86.6679 313.532 L86.6679 317.467 L56.9921 317.467 L56.9921 313.532 Z" fill="#000000" fill-rule="evenodd" fill-opacity="1" /><path clip-path="url(#clip320)" d="M97.5706 326.425 L105.209 326.425 L105.209 300.06 L96.8993 301.726 L96.8993 297.467 L105.163 295.8 L109.839 295.8 L109.839 326.425 L117.478 326.425 L117.478 330.36 L97.5706 330.36 L97.5706 326.425 Z" fill="#000000" fill-rule="evenodd" fill-opacity="1" /><path clip-path="url(#clip320)" d="M126.922 324.481 L131.807 324.481 L131.807 330.36 L126.922 330.36 L126.922 324.481 Z" fill="#000000" fill-rule="evenodd" fill-opacity="1" /><path clip-path="url(#clip320)" d="M151.992 298.879 Q148.381 298.879 146.552 302.444 Q144.746 305.985 144.746 313.115 Q144.746 320.222 146.552 323.786 Q148.381 327.328 151.992 327.328 Q155.626 327.328 157.431 323.786 Q159.26 320.222 159.26 313.115 Q159.26 305.985 157.431 302.444 Q155.626 298.879 151.992 298.879 M151.992 295.175 Q157.802 295.175 160.857 299.782 Q163.936 304.365 163.936 313.115 Q163.936 321.842 160.857 326.448 Q157.802 331.032 151.992 331.032 Q146.181 331.032 143.103 326.448 Q140.047 321.842 140.047 313.115 Q140.047 304.365 143.103 299.782 Q146.181 295.175 151.992 295.175 Z" fill="#000000" fill-rule="evenodd" fill-opacity="1" /><path clip-path="url(#clip320)" d="M57.9875 265.694 L87.6633 265.694 L87.6633 269.63 L57.9875 269.63 L57.9875 265.694 Z" fill="#000000" fill-rule="evenodd" fill-opacity="1" /><path clip-path="url(#clip320)" d="M107.756 251.042 Q104.145 251.042 102.316 254.606 Q100.51 258.148 100.51 265.278 Q100.51 272.384 102.316 275.949 Q104.145 279.491 107.756 279.491 Q111.39 279.491 113.196 275.949 Q115.024 272.384 115.024 265.278 Q115.024 258.148 113.196 254.606 Q111.39 251.042 107.756 251.042 M107.756 247.338 Q113.566 247.338 116.621 251.944 Q119.7 256.528 119.7 265.278 Q119.7 274.005 116.621 278.611 Q113.566 283.194 107.756 283.194 Q101.946 283.194 98.8669 278.611 Q95.8114 274.005 95.8114 265.278 Q95.8114 256.528 98.8669 251.944 Q101.946 247.338 107.756 247.338 Z" fill="#000000" fill-rule="evenodd" fill-opacity="1" /><path clip-path="url(#clip320)" d="M127.918 276.643 L132.802 276.643 L132.802 282.523 L127.918 282.523 L127.918 276.643 Z" fill="#000000" fill-rule="evenodd" fill-opacity="1" /><path clip-path="url(#clip320)" d="M143.033 247.963 L161.39 247.963 L161.39 251.898 L147.316 251.898 L147.316 260.37 Q148.334 260.023 149.353 259.861 Q150.371 259.676 151.39 259.676 Q157.177 259.676 160.556 262.847 Q163.936 266.018 163.936 271.435 Q163.936 277.014 160.464 280.116 Q156.992 283.194 150.672 283.194 Q148.496 283.194 146.228 282.824 Q143.982 282.454 141.575 281.713 L141.575 277.014 Q143.658 278.148 145.881 278.704 Q148.103 279.259 150.58 279.259 Q154.584 279.259 156.922 277.153 Q159.26 275.046 159.26 271.435 Q159.26 267.824 156.922 265.718 Q154.584 263.611 150.58 263.611 Q148.705 263.611 146.83 264.028 Q144.978 264.444 143.033 265.324 L143.033 247.963 Z" fill="#000000" fill-rule="evenodd" fill-opacity="1" /><path clip-path="url(#clip320)" d="M106.76 203.204 Q103.149 203.204 101.321 206.769 Q99.515 210.311 99.515 217.44 Q99.515 224.547 101.321 228.112 Q103.149 231.653 106.76 231.653 Q110.395 231.653 112.2 228.112 Q114.029 224.547 114.029 217.44 Q114.029 210.311 112.2 206.769 Q110.395 203.204 106.76 203.204 M106.76 199.501 Q112.571 199.501 115.626 204.107 Q118.705 208.69 118.705 217.44 Q118.705 226.167 115.626 230.774 Q112.571 235.357 106.76 235.357 Q100.95 235.357 97.8715 230.774 Q94.816 226.167 94.816 217.44 Q94.816 208.69 97.8715 204.107 Q100.95 199.501 106.76 199.501 Z" fill="#000000" fill-rule="evenodd" fill-opacity="1" /><path clip-path="url(#clip320)" d="M126.922 228.806 L131.807 228.806 L131.807 234.686 L126.922 234.686 L126.922 228.806 Z" fill="#000000" fill-rule="evenodd" fill-opacity="1" /><path clip-path="url(#clip320)" d="M151.992 203.204 Q148.381 203.204 146.552 206.769 Q144.746 210.311 144.746 217.44 Q144.746 224.547 146.552 228.112 Q148.381 231.653 151.992 231.653 Q155.626 231.653 157.431 228.112 Q159.26 224.547 159.26 217.44 Q159.26 210.311 157.431 206.769 Q155.626 203.204 151.992 203.204 M151.992 199.501 Q157.802 199.501 160.857 204.107 Q163.936 208.69 163.936 217.44 Q163.936 226.167 160.857 230.774 Q157.802 235.357 151.992 235.357 Q146.181 235.357 143.103 230.774 Q140.047 226.167 140.047 217.44 Q140.047 208.69 143.103 204.107 Q146.181 199.501 151.992 199.501 Z" fill="#000000" fill-rule="evenodd" fill-opacity="1" /><path clip-path="url(#clip320)" d="M107.756 155.367 Q104.145 155.367 102.316 158.932 Q100.51 162.473 100.51 169.603 Q100.51 176.709 102.316 180.274 Q104.145 183.816 107.756 183.816 Q111.39 183.816 113.196 180.274 Q115.024 176.709 115.024 169.603 Q115.024 162.473 113.196 158.932 Q111.39 155.367 107.756 155.367 M107.756 151.663 Q113.566 151.663 116.621 156.27 Q119.7 160.853 119.7 169.603 Q119.7 178.33 116.621 182.936 Q113.566 187.52 107.756 187.52 Q101.946 187.52 98.8669 182.936 Q95.8114 178.33 95.8114 169.603 Q95.8114 160.853 98.8669 156.27 Q101.946 151.663 107.756 151.663 Z" fill="#000000" fill-rule="evenodd" fill-opacity="1" /><path clip-path="url(#clip320)" d="M127.918 180.969 L132.802 180.969 L132.802 186.848 L127.918 186.848 L127.918 180.969 Z" fill="#000000" fill-rule="evenodd" fill-opacity="1" /><path clip-path="url(#clip320)" d="M143.033 152.288 L161.39 152.288 L161.39 156.223 L147.316 156.223 L147.316 164.696 Q148.334 164.348 149.353 164.186 Q150.371 164.001 151.39 164.001 Q157.177 164.001 160.556 167.172 Q163.936 170.344 163.936 175.76 Q163.936 181.339 160.464 184.441 Q156.992 187.52 150.672 187.52 Q148.496 187.52 146.228 187.149 Q143.982 186.779 141.575 186.038 L141.575 181.339 Q143.658 182.473 145.881 183.029 Q148.103 183.584 150.58 183.584 Q154.584 183.584 156.922 181.478 Q159.26 179.371 159.26 175.76 Q159.26 172.149 156.922 170.043 Q154.584 167.936 150.58 167.936 Q148.705 167.936 146.83 168.353 Q144.978 168.77 143.033 169.649 L143.033 152.288 Z" fill="#000000" fill-rule="evenodd" fill-opacity="1" /><path clip-path="url(#clip320)" d="M97.5706 135.076 L105.209 135.076 L105.209 108.71 L96.8993 110.377 L96.8993 106.118 L105.163 104.451 L109.839 104.451 L109.839 135.076 L117.478 135.076 L117.478 139.011 L97.5706 139.011 L97.5706 135.076 Z" fill="#000000" fill-rule="evenodd" fill-opacity="1" /><path clip-path="url(#clip320)" d="M126.922 133.131 L131.807 133.131 L131.807 139.011 L126.922 139.011 L126.922 133.131 Z" fill="#000000" fill-rule="evenodd" fill-opacity="1" /><path clip-path="url(#clip320)" d="M151.992 107.53 Q148.381 107.53 146.552 111.094 Q144.746 114.636 144.746 121.766 Q144.746 128.872 146.552 132.437 Q148.381 135.979 151.992 135.979 Q155.626 135.979 157.431 132.437 Q159.26 128.872 159.26 121.766 Q159.26 114.636 157.431 111.094 Q155.626 107.53 151.992 107.53 M151.992 103.826 Q157.802 103.826 160.857 108.432 Q163.936 113.016 163.936 121.766 Q163.936 130.492 160.857 135.099 Q157.802 139.682 151.992 139.682 Q146.181 139.682 143.103 135.099 Q140.047 130.492 140.047 121.766 Q140.047 113.016 143.103 108.432 Q146.181 103.826 151.992 103.826 Z" fill="#000000" fill-rule="evenodd" fill-opacity="1" /><path clip-path="url(#clip320)" d="M98.566 87.2384 L106.205 87.2384 L106.205 60.8728 L97.8947 62.5394 L97.8947 58.2802 L106.159 56.6135 L110.834 56.6135 L110.834 87.2384 L118.473 87.2384 L118.473 91.1735 L98.566 91.1735 L98.566 87.2384 Z" fill="#000000" fill-rule="evenodd" fill-opacity="1" /><path clip-path="url(#clip320)" d="M127.918 85.2939 L132.802 85.2939 L132.802 91.1735 L127.918 91.1735 L127.918 85.2939 Z" fill="#000000" fill-rule="evenodd" fill-opacity="1" /><path clip-path="url(#clip320)" d="M143.033 56.6135 L161.39 56.6135 L161.39 60.5487 L147.316 60.5487 L147.316 69.0209 Q148.334 68.6737 149.353 68.5116 Q150.371 68.3264 151.39 68.3264 Q157.177 68.3264 160.556 71.4977 Q163.936 74.669 163.936 80.0856 Q163.936 85.6643 160.464 88.7661 Q156.992 91.8448 150.672 91.8448 Q148.496 91.8448 146.228 91.4745 Q143.982 91.1041 141.575 90.3634 L141.575 85.6643 Q143.658 86.7986 145.881 87.3541 Q148.103 87.9097 150.58 87.9097 Q154.584 87.9097 156.922 85.8032 Q159.26 83.6967 159.26 80.0856 Q159.26 76.4745 156.922 74.3681 Q154.584 72.2616 150.58 72.2616 Q148.705 72.2616 146.83 72.6783 Q144.978 73.0949 143.033 73.9746 L143.033 56.6135 Z" fill="#000000" fill-rule="evenodd" fill-opacity="1" /><polyline clip-path="url(#clip322)" style="stroke:#009af9; stroke-linecap:butt; stroke-linejoin:round; stroke-width:4; stroke-opacity:1; fill:none" points="
  209.412,246.935 311.175,56.9864 412.938,250.619 514.701,139.08 616.464,381.73 718.227,240.266 819.991,150.248 921.754,233.301 1023.52,260.4 1125.28,188.447 
  
  "/>
</svg>
