<?xml version="1.0" encoding="utf-8" standalone="no"?>
<!DOCTYPE svg PUBLIC "-//W3C//DTD SVG 1.1//EN"
  "http://www.w3.org/Graphics/SVG/1.1/DTD/svg11.dtd">
<svg xmlns:xlink="http://www.w3.org/1999/xlink" width="266.997284pt" height="172.182627pt" viewBox="0 0 266.997284 172.182627" xmlns="http://www.w3.org/2000/svg" version="1.1">
 <metadata>
  <rdf:RDF xmlns:dc="http://purl.org/dc/elements/1.1/" xmlns:cc="http://creativecommons.org/ns#" xmlns:rdf="http://www.w3.org/1999/02/22-rdf-syntax-ns#">
   <cc:Work>
    <dc:type rdf:resource="http://purl.org/dc/dcmitype/StillImage"/>
    <dc:date>2023-08-22T14:55:50.521879</dc:date>
    <dc:format>image/svg+xml</dc:format>
    <dc:creator>
     <cc:Agent>
      <dc:title>Matplotlib v3.7.1, https://matplotlib.org/</dc:title>
     </cc:Agent>
    </dc:creator>
   </cc:Work>
  </rdf:RDF>
 </metadata>
 <defs>
  <style type="text/css">*{stroke-linejoin: round; stroke-linecap: butt}</style>
 </defs>
 <g id="figure_1">
  <g id="patch_1">
   <path d="M 0 172.182627 
L 266.997284 172.182627 
L 266.997284 0 
L 0 0 
z
" style="fill: #ffffff"/>
  </g>
  <g id="axes_1">
   <g id="patch_2">
    <path d="M 33.947303 143.420749 
L 257.147303 143.420749 
L 257.147303 10.364749 
L 33.947303 10.364749 
z
" style="fill: #ffffff"/>
   </g>
   <g id="matplotlib.axis_1">
    <g id="xtick_1">
     <g id="line2d_1">
      <path d="M 33.947303 143.420749 
L 33.947303 10.364749 
" clip-path="url(#p8bb94c7b10)" style="fill: none; stroke: #e7e7e7; stroke-width: 0.5; stroke-linecap: round"/>
     </g>
     <g id="line2d_2">
      <defs>
       <path id="m2be608b7ed" d="M 0 0 
L 0 -3.5 
" style="stroke: #000000; stroke-width: 0.8"/>
      </defs>
      <g>
       <use xlink:href="#m2be608b7ed" x="33.947303" y="153.420749" style="stroke: #000000; stroke-width: 0.8"/>
      </g>
     </g>
     <g id="text_1">
      <!-- 0 -->
      <g transform="translate(31.297322 163.250248) scale(0.0833 -0.0833)">
       <defs>
        <path id="DejaVuSans-30" d="M 2034 4250 
Q 1547 4250 1301 3770 
Q 1056 3291 1056 2328 
Q 1056 1369 1301 889 
Q 1547 409 2034 409 
Q 2525 409 2770 889 
Q 3016 1369 3016 2328 
Q 3016 3291 2770 3770 
Q 2525 4250 2034 4250 
z
M 2034 4750 
Q 2819 4750 3233 4129 
Q 3647 3509 3647 2328 
Q 3647 1150 3233 529 
Q 2819 -91 2034 -91 
Q 1250 -91 836 529 
Q 422 1150 422 2328 
Q 422 3509 836 4129 
Q 1250 4750 2034 4750 
z
" transform="scale(0.015625)"/>
       </defs>
       <use xlink:href="#DejaVuSans-30"/>
      </g>
     </g>
    </g>
    <g id="xtick_2">
     <g id="line2d_3">
      <path d="M 89.747303 143.420749 
L 89.747303 10.364749 
" clip-path="url(#p8bb94c7b10)" style="fill: none; stroke: #e7e7e7; stroke-width: 0.5; stroke-linecap: round"/>
     </g>
     <g id="line2d_4">
      <g>
       <use xlink:href="#m2be608b7ed" x="89.747303" y="153.420749" style="stroke: #000000; stroke-width: 0.8"/>
      </g>
     </g>
     <g id="text_2">
      <!-- 0.5 -->
      <g transform="translate(83.123652 163.250248) scale(0.0833 -0.0833)">
       <defs>
        <path id="DejaVuSans-2e" d="M 684 794 
L 1344 794 
L 1344 0 
L 684 0 
L 684 794 
z
" transform="scale(0.015625)"/>
        <path id="DejaVuSans-35" d="M 691 4666 
L 3169 4666 
L 3169 4134 
L 1269 4134 
L 1269 2991 
Q 1406 3038 1543 3061 
Q 1681 3084 1819 3084 
Q 2600 3084 3056 2656 
Q 3513 2228 3513 1497 
Q 3513 744 3044 326 
Q 2575 -91 1722 -91 
Q 1428 -91 1123 -41 
Q 819 9 494 109 
L 494 744 
Q 775 591 1075 516 
Q 1375 441 1709 441 
Q 2250 441 2565 725 
Q 2881 1009 2881 1497 
Q 2881 1984 2565 2268 
Q 2250 2553 1709 2553 
Q 1456 2553 1204 2497 
Q 953 2441 691 2322 
L 691 4666 
z
" transform="scale(0.015625)"/>
       </defs>
       <use xlink:href="#DejaVuSans-30"/>
       <use xlink:href="#DejaVuSans-2e" x="63.623047"/>
       <use xlink:href="#DejaVuSans-35" x="95.410156"/>
      </g>
     </g>
    </g>
    <g id="xtick_3">
     <g id="line2d_5">
      <path d="M 145.547303 143.420749 
L 145.547303 10.364749 
" clip-path="url(#p8bb94c7b10)" style="fill: none; stroke: #e7e7e7; stroke-width: 0.5; stroke-linecap: round"/>
     </g>
     <g id="line2d_6">
      <g>
       <use xlink:href="#m2be608b7ed" x="145.547303" y="153.420749" style="stroke: #000000; stroke-width: 0.8"/>
      </g>
     </g>
     <g id="text_3">
      <!-- 1 -->
      <g transform="translate(142.897322 163.250248) scale(0.0833 -0.0833)">
       <defs>
        <path id="DejaVuSans-31" d="M 794 531 
L 1825 531 
L 1825 4091 
L 703 3866 
L 703 4441 
L 1819 4666 
L 2450 4666 
L 2450 531 
L 3481 531 
L 3481 0 
L 794 0 
L 794 531 
z
" transform="scale(0.015625)"/>
       </defs>
       <use xlink:href="#DejaVuSans-31"/>
      </g>
     </g>
    </g>
    <g id="xtick_4">
     <g id="line2d_7">
      <path d="M 201.347303 143.420749 
L 201.347303 10.364749 
" clip-path="url(#p8bb94c7b10)" style="fill: none; stroke: #e7e7e7; stroke-width: 0.5; stroke-linecap: round"/>
     </g>
     <g id="line2d_8">
      <g>
       <use xlink:href="#m2be608b7ed" x="201.347303" y="153.420749" style="stroke: #000000; stroke-width: 0.8"/>
      </g>
     </g>
     <g id="text_4">
      <!-- 1.5 -->
      <g transform="translate(194.723652 163.250248) scale(0.0833 -0.0833)">
       <use xlink:href="#DejaVuSans-31"/>
       <use xlink:href="#DejaVuSans-2e" x="63.623047"/>
       <use xlink:href="#DejaVuSans-35" x="95.410156"/>
      </g>
     </g>
    </g>
    <g id="xtick_5">
     <g id="line2d_9">
      <path d="M 257.147303 143.420749 
L 257.147303 10.364749 
" clip-path="url(#p8bb94c7b10)" style="fill: none; stroke: #e7e7e7; stroke-width: 0.5; stroke-linecap: round"/>
     </g>
     <g id="line2d_10">
      <g>
       <use xlink:href="#m2be608b7ed" x="257.147303" y="153.420749" style="stroke: #000000; stroke-width: 0.8"/>
      </g>
     </g>
     <g id="text_5">
      <!-- 2 -->
      <g transform="translate(254.497322 163.250248) scale(0.0833 -0.0833)">
       <defs>
        <path id="DejaVuSans-32" d="M 1228 531 
L 3431 531 
L 3431 0 
L 469 0 
L 469 531 
Q 828 903 1448 1529 
Q 2069 2156 2228 2338 
Q 2531 2678 2651 2914 
Q 2772 3150 2772 3378 
Q 2772 3750 2511 3984 
Q 2250 4219 1831 4219 
Q 1534 4219 1204 4116 
Q 875 4013 500 3803 
L 500 4441 
Q 881 4594 1212 4672 
Q 1544 4750 1819 4750 
Q 2544 4750 2975 4387 
Q 3406 4025 3406 3419 
Q 3406 3131 3298 2873 
Q 3191 2616 2906 2266 
Q 2828 2175 2409 1742 
Q 1991 1309 1228 531 
z
" transform="scale(0.015625)"/>
       </defs>
       <use xlink:href="#DejaVuSans-32"/>
      </g>
     </g>
    </g>
    <g id="xtick_6">
     <g id="line2d_11">
      <path d="M 45.107303 143.420749 
L 45.107303 10.364749 
" clip-path="url(#p8bb94c7b10)" style="fill: none; stroke: #f4f4f4; stroke-width: 0.44; stroke-linecap: round"/>
     </g>
     <g id="line2d_12">
      <defs>
       <path id="m584b0502e8" d="M 0 0 
L 0 -2 
" style="stroke: #000000; stroke-width: 0.6"/>
      </defs>
      <g>
       <use xlink:href="#m584b0502e8" x="45.107303" y="153.420749" style="stroke: #000000; stroke-width: 0.6"/>
      </g>
     </g>
    </g>
    <g id="xtick_7">
     <g id="line2d_13">
      <path d="M 56.267303 143.420749 
L 56.267303 10.364749 
" clip-path="url(#p8bb94c7b10)" style="fill: none; stroke: #f4f4f4; stroke-width: 0.44; stroke-linecap: round"/>
     </g>
     <g id="line2d_14">
      <g>
       <use xlink:href="#m584b0502e8" x="56.267303" y="153.420749" style="stroke: #000000; stroke-width: 0.6"/>
      </g>
     </g>
    </g>
    <g id="xtick_8">
     <g id="line2d_15">
      <path d="M 67.427303 143.420749 
L 67.427303 10.364749 
" clip-path="url(#p8bb94c7b10)" style="fill: none; stroke: #f4f4f4; stroke-width: 0.44; stroke-linecap: round"/>
     </g>
     <g id="line2d_16">
      <g>
       <use xlink:href="#m584b0502e8" x="67.427303" y="153.420749" style="stroke: #000000; stroke-width: 0.6"/>
      </g>
     </g>
    </g>
    <g id="xtick_9">
     <g id="line2d_17">
      <path d="M 78.587303 143.420749 
L 78.587303 10.364749 
" clip-path="url(#p8bb94c7b10)" style="fill: none; stroke: #f4f4f4; stroke-width: 0.44; stroke-linecap: round"/>
     </g>
     <g id="line2d_18">
      <g>
       <use xlink:href="#m584b0502e8" x="78.587303" y="153.420749" style="stroke: #000000; stroke-width: 0.6"/>
      </g>
     </g>
    </g>
    <g id="xtick_10">
     <g id="line2d_19">
      <path d="M 100.907303 143.420749 
L 100.907303 10.364749 
" clip-path="url(#p8bb94c7b10)" style="fill: none; stroke: #f4f4f4; stroke-width: 0.44; stroke-linecap: round"/>
     </g>
     <g id="line2d_20">
      <g>
       <use xlink:href="#m584b0502e8" x="100.907303" y="153.420749" style="stroke: #000000; stroke-width: 0.6"/>
      </g>
     </g>
    </g>
    <g id="xtick_11">
     <g id="line2d_21">
      <path d="M 112.067303 143.420749 
L 112.067303 10.364749 
" clip-path="url(#p8bb94c7b10)" style="fill: none; stroke: #f4f4f4; stroke-width: 0.44; stroke-linecap: round"/>
     </g>
     <g id="line2d_22">
      <g>
       <use xlink:href="#m584b0502e8" x="112.067303" y="153.420749" style="stroke: #000000; stroke-width: 0.6"/>
      </g>
     </g>
    </g>
    <g id="xtick_12">
     <g id="line2d_23">
      <path d="M 123.227303 143.420749 
L 123.227303 10.364749 
" clip-path="url(#p8bb94c7b10)" style="fill: none; stroke: #f4f4f4; stroke-width: 0.44; stroke-linecap: round"/>
     </g>
     <g id="line2d_24">
      <g>
       <use xlink:href="#m584b0502e8" x="123.227303" y="153.420749" style="stroke: #000000; stroke-width: 0.6"/>
      </g>
     </g>
    </g>
    <g id="xtick_13">
     <g id="line2d_25">
      <path d="M 134.387303 143.420749 
L 134.387303 10.364749 
" clip-path="url(#p8bb94c7b10)" style="fill: none; stroke: #f4f4f4; stroke-width: 0.44; stroke-linecap: round"/>
     </g>
     <g id="line2d_26">
      <g>
       <use xlink:href="#m584b0502e8" x="134.387303" y="153.420749" style="stroke: #000000; stroke-width: 0.6"/>
      </g>
     </g>
    </g>
    <g id="xtick_14">
     <g id="line2d_27">
      <path d="M 156.707303 143.420749 
L 156.707303 10.364749 
" clip-path="url(#p8bb94c7b10)" style="fill: none; stroke: #f4f4f4; stroke-width: 0.44; stroke-linecap: round"/>
     </g>
     <g id="line2d_28">
      <g>
       <use xlink:href="#m584b0502e8" x="156.707303" y="153.420749" style="stroke: #000000; stroke-width: 0.6"/>
      </g>
     </g>
    </g>
    <g id="xtick_15">
     <g id="line2d_29">
      <path d="M 167.867303 143.420749 
L 167.867303 10.364749 
" clip-path="url(#p8bb94c7b10)" style="fill: none; stroke: #f4f4f4; stroke-width: 0.44; stroke-linecap: round"/>
     </g>
     <g id="line2d_30">
      <g>
       <use xlink:href="#m584b0502e8" x="167.867303" y="153.420749" style="stroke: #000000; stroke-width: 0.6"/>
      </g>
     </g>
    </g>
    <g id="xtick_16">
     <g id="line2d_31">
      <path d="M 179.027303 143.420749 
L 179.027303 10.364749 
" clip-path="url(#p8bb94c7b10)" style="fill: none; stroke: #f4f4f4; stroke-width: 0.44; stroke-linecap: round"/>
     </g>
     <g id="line2d_32">
      <g>
       <use xlink:href="#m584b0502e8" x="179.027303" y="153.420749" style="stroke: #000000; stroke-width: 0.6"/>
      </g>
     </g>
    </g>
    <g id="xtick_17">
     <g id="line2d_33">
      <path d="M 190.187303 143.420749 
L 190.187303 10.364749 
" clip-path="url(#p8bb94c7b10)" style="fill: none; stroke: #f4f4f4; stroke-width: 0.44; stroke-linecap: round"/>
     </g>
     <g id="line2d_34">
      <g>
       <use xlink:href="#m584b0502e8" x="190.187303" y="153.420749" style="stroke: #000000; stroke-width: 0.6"/>
      </g>
     </g>
    </g>
    <g id="xtick_18">
     <g id="line2d_35">
      <path d="M 212.507303 143.420749 
L 212.507303 10.364749 
" clip-path="url(#p8bb94c7b10)" style="fill: none; stroke: #f4f4f4; stroke-width: 0.44; stroke-linecap: round"/>
     </g>
     <g id="line2d_36">
      <g>
       <use xlink:href="#m584b0502e8" x="212.507303" y="153.420749" style="stroke: #000000; stroke-width: 0.6"/>
      </g>
     </g>
    </g>
    <g id="xtick_19">
     <g id="line2d_37">
      <path d="M 223.667303 143.420749 
L 223.667303 10.364749 
" clip-path="url(#p8bb94c7b10)" style="fill: none; stroke: #f4f4f4; stroke-width: 0.44; stroke-linecap: round"/>
     </g>
     <g id="line2d_38">
      <g>
       <use xlink:href="#m584b0502e8" x="223.667303" y="153.420749" style="stroke: #000000; stroke-width: 0.6"/>
      </g>
     </g>
    </g>
    <g id="xtick_20">
     <g id="line2d_39">
      <path d="M 234.827303 143.420749 
L 234.827303 10.364749 
" clip-path="url(#p8bb94c7b10)" style="fill: none; stroke: #f4f4f4; stroke-width: 0.44; stroke-linecap: round"/>
     </g>
     <g id="line2d_40">
      <g>
       <use xlink:href="#m584b0502e8" x="234.827303" y="153.420749" style="stroke: #000000; stroke-width: 0.6"/>
      </g>
     </g>
    </g>
    <g id="xtick_21">
     <g id="line2d_41">
      <path d="M 245.987303 143.420749 
L 245.987303 10.364749 
" clip-path="url(#p8bb94c7b10)" style="fill: none; stroke: #f4f4f4; stroke-width: 0.44; stroke-linecap: round"/>
     </g>
     <g id="line2d_42">
      <g>
       <use xlink:href="#m584b0502e8" x="245.987303" y="153.420749" style="stroke: #000000; stroke-width: 0.6"/>
      </g>
     </g>
    </g>
   </g>
   <g id="matplotlib.axis_2">
    <g id="ytick_1">
     <g id="line2d_43">
      <path d="M 33.947303 143.420749 
L 257.147303 143.420749 
" clip-path="url(#p8bb94c7b10)" style="fill: none; stroke: #e7e7e7; stroke-width: 0.5; stroke-linecap: round"/>
     </g>
     <g id="line2d_44">
      <defs>
       <path id="m7e939f6946" d="M 0 0 
L 3.5 0 
" style="stroke: #000000; stroke-width: 0.8"/>
      </defs>
      <g>
       <use xlink:href="#m7e939f6946" x="23.947303" y="143.420749" style="stroke: #000000; stroke-width: 0.8"/>
      </g>
     </g>
     <g id="text_6">
      <!-- 1 -->
      <g transform="translate(15.147341 146.585498) scale(0.0833 -0.0833)">
       <use xlink:href="#DejaVuSans-31"/>
      </g>
     </g>
    </g>
    <g id="ytick_2">
     <g id="line2d_45">
      <path d="M 33.947303 116.809549 
L 257.147303 116.809549 
" clip-path="url(#p8bb94c7b10)" style="fill: none; stroke: #e7e7e7; stroke-width: 0.5; stroke-linecap: round"/>
     </g>
     <g id="line2d_46">
      <g>
       <use xlink:href="#m7e939f6946" x="23.947303" y="116.809549" style="stroke: #000000; stroke-width: 0.8"/>
      </g>
     </g>
     <g id="text_7">
      <!-- 1.2 -->
      <g transform="translate(7.2 119.974298) scale(0.0833 -0.0833)">
       <use xlink:href="#DejaVuSans-31"/>
       <use xlink:href="#DejaVuSans-2e" x="63.623047"/>
       <use xlink:href="#DejaVuSans-32" x="95.410156"/>
      </g>
     </g>
    </g>
    <g id="ytick_3">
     <g id="line2d_47">
      <path d="M 33.947303 90.198349 
L 257.147303 90.198349 
" clip-path="url(#p8bb94c7b10)" style="fill: none; stroke: #e7e7e7; stroke-width: 0.5; stroke-linecap: round"/>
     </g>
     <g id="line2d_48">
      <g>
       <use xlink:href="#m7e939f6946" x="23.947303" y="90.198349" style="stroke: #000000; stroke-width: 0.8"/>
      </g>
     </g>
     <g id="text_8">
      <!-- 1.4 -->
      <g transform="translate(7.2 93.363098) scale(0.0833 -0.0833)">
       <defs>
        <path id="DejaVuSans-34" d="M 2419 4116 
L 825 1625 
L 2419 1625 
L 2419 4116 
z
M 2253 4666 
L 3047 4666 
L 3047 1625 
L 3713 1625 
L 3713 1100 
L 3047 1100 
L 3047 0 
L 2419 0 
L 2419 1100 
L 313 1100 
L 313 1709 
L 2253 4666 
z
" transform="scale(0.015625)"/>
       </defs>
       <use xlink:href="#DejaVuSans-31"/>
       <use xlink:href="#DejaVuSans-2e" x="63.623047"/>
       <use xlink:href="#DejaVuSans-34" x="95.410156"/>
      </g>
     </g>
    </g>
    <g id="ytick_4">
     <g id="line2d_49">
      <path d="M 33.947303 63.587149 
L 257.147303 63.587149 
" clip-path="url(#p8bb94c7b10)" style="fill: none; stroke: #e7e7e7; stroke-width: 0.5; stroke-linecap: round"/>
     </g>
     <g id="line2d_50">
      <g>
       <use xlink:href="#m7e939f6946" x="23.947303" y="63.587149" style="stroke: #000000; stroke-width: 0.8"/>
      </g>
     </g>
     <g id="text_9">
      <!-- 1.6 -->
      <g transform="translate(7.2 66.751898) scale(0.0833 -0.0833)">
       <defs>
        <path id="DejaVuSans-36" d="M 2113 2584 
Q 1688 2584 1439 2293 
Q 1191 2003 1191 1497 
Q 1191 994 1439 701 
Q 1688 409 2113 409 
Q 2538 409 2786 701 
Q 3034 994 3034 1497 
Q 3034 2003 2786 2293 
Q 2538 2584 2113 2584 
z
M 3366 4563 
L 3366 3988 
Q 3128 4100 2886 4159 
Q 2644 4219 2406 4219 
Q 1781 4219 1451 3797 
Q 1122 3375 1075 2522 
Q 1259 2794 1537 2939 
Q 1816 3084 2150 3084 
Q 2853 3084 3261 2657 
Q 3669 2231 3669 1497 
Q 3669 778 3244 343 
Q 2819 -91 2113 -91 
Q 1303 -91 875 529 
Q 447 1150 447 2328 
Q 447 3434 972 4092 
Q 1497 4750 2381 4750 
Q 2619 4750 2861 4703 
Q 3103 4656 3366 4563 
z
" transform="scale(0.015625)"/>
       </defs>
       <use xlink:href="#DejaVuSans-31"/>
       <use xlink:href="#DejaVuSans-2e" x="63.623047"/>
       <use xlink:href="#DejaVuSans-36" x="95.410156"/>
      </g>
     </g>
    </g>
    <g id="ytick_5">
     <g id="line2d_51">
      <path d="M 33.947303 36.975949 
L 257.147303 36.975949 
" clip-path="url(#p8bb94c7b10)" style="fill: none; stroke: #e7e7e7; stroke-width: 0.5; stroke-linecap: round"/>
     </g>
     <g id="line2d_52">
      <g>
       <use xlink:href="#m7e939f6946" x="23.947303" y="36.975949" style="stroke: #000000; stroke-width: 0.8"/>
      </g>
     </g>
     <g id="text_10">
      <!-- 1.8 -->
      <g transform="translate(7.2 40.140698) scale(0.0833 -0.0833)">
       <defs>
        <path id="DejaVuSans-38" d="M 2034 2216 
Q 1584 2216 1326 1975 
Q 1069 1734 1069 1313 
Q 1069 891 1326 650 
Q 1584 409 2034 409 
Q 2484 409 2743 651 
Q 3003 894 3003 1313 
Q 3003 1734 2745 1975 
Q 2488 2216 2034 2216 
z
M 1403 2484 
Q 997 2584 770 2862 
Q 544 3141 544 3541 
Q 544 4100 942 4425 
Q 1341 4750 2034 4750 
Q 2731 4750 3128 4425 
Q 3525 4100 3525 3541 
Q 3525 3141 3298 2862 
Q 3072 2584 2669 2484 
Q 3125 2378 3379 2068 
Q 3634 1759 3634 1313 
Q 3634 634 3220 271 
Q 2806 -91 2034 -91 
Q 1263 -91 848 271 
Q 434 634 434 1313 
Q 434 1759 690 2068 
Q 947 2378 1403 2484 
z
M 1172 3481 
Q 1172 3119 1398 2916 
Q 1625 2713 2034 2713 
Q 2441 2713 2670 2916 
Q 2900 3119 2900 3481 
Q 2900 3844 2670 4047 
Q 2441 4250 2034 4250 
Q 1625 4250 1398 4047 
Q 1172 3844 1172 3481 
z
" transform="scale(0.015625)"/>
       </defs>
       <use xlink:href="#DejaVuSans-31"/>
       <use xlink:href="#DejaVuSans-2e" x="63.623047"/>
       <use xlink:href="#DejaVuSans-38" x="95.410156"/>
      </g>
     </g>
    </g>
    <g id="ytick_6">
     <g id="line2d_53">
      <path d="M 33.947303 10.364749 
L 257.147303 10.364749 
" clip-path="url(#p8bb94c7b10)" style="fill: none; stroke: #e7e7e7; stroke-width: 0.5; stroke-linecap: round"/>
     </g>
     <g id="line2d_54">
      <g>
       <use xlink:href="#m7e939f6946" x="23.947303" y="10.364749" style="stroke: #000000; stroke-width: 0.8"/>
      </g>
     </g>
     <g id="text_11">
      <!-- 2 -->
      <g transform="translate(15.147341 13.529498) scale(0.0833 -0.0833)">
       <use xlink:href="#DejaVuSans-32"/>
      </g>
     </g>
    </g>
    <g id="ytick_7">
     <g id="line2d_55">
      <path d="M 33.947303 136.767949 
L 257.147303 136.767949 
" clip-path="url(#p8bb94c7b10)" style="fill: none; stroke: #f4f4f4; stroke-width: 0.44; stroke-linecap: round"/>
     </g>
     <g id="line2d_56">
      <defs>
       <path id="m3f4ed993f9" d="M 0 0 
L 2 0 
" style="stroke: #000000; stroke-width: 0.6"/>
      </defs>
      <g>
       <use xlink:href="#m3f4ed993f9" x="23.947303" y="136.767949" style="stroke: #000000; stroke-width: 0.6"/>
      </g>
     </g>
    </g>
    <g id="ytick_8">
     <g id="line2d_57">
      <path d="M 33.947303 130.115149 
L 257.147303 130.115149 
" clip-path="url(#p8bb94c7b10)" style="fill: none; stroke: #f4f4f4; stroke-width: 0.44; stroke-linecap: round"/>
     </g>
     <g id="line2d_58">
      <g>
       <use xlink:href="#m3f4ed993f9" x="23.947303" y="130.115149" style="stroke: #000000; stroke-width: 0.6"/>
      </g>
     </g>
    </g>
    <g id="ytick_9">
     <g id="line2d_59">
      <path d="M 33.947303 123.462349 
L 257.147303 123.462349 
" clip-path="url(#p8bb94c7b10)" style="fill: none; stroke: #f4f4f4; stroke-width: 0.44; stroke-linecap: round"/>
     </g>
     <g id="line2d_60">
      <g>
       <use xlink:href="#m3f4ed993f9" x="23.947303" y="123.462349" style="stroke: #000000; stroke-width: 0.6"/>
      </g>
     </g>
    </g>
    <g id="ytick_10">
     <g id="line2d_61">
      <path d="M 33.947303 110.156749 
L 257.147303 110.156749 
" clip-path="url(#p8bb94c7b10)" style="fill: none; stroke: #f4f4f4; stroke-width: 0.44; stroke-linecap: round"/>
     </g>
     <g id="line2d_62">
      <g>
       <use xlink:href="#m3f4ed993f9" x="23.947303" y="110.156749" style="stroke: #000000; stroke-width: 0.6"/>
      </g>
     </g>
    </g>
    <g id="ytick_11">
     <g id="line2d_63">
      <path d="M 33.947303 103.503949 
L 257.147303 103.503949 
" clip-path="url(#p8bb94c7b10)" style="fill: none; stroke: #f4f4f4; stroke-width: 0.44; stroke-linecap: round"/>
     </g>
     <g id="line2d_64">
      <g>
       <use xlink:href="#m3f4ed993f9" x="23.947303" y="103.503949" style="stroke: #000000; stroke-width: 0.6"/>
      </g>
     </g>
    </g>
    <g id="ytick_12">
     <g id="line2d_65">
      <path d="M 33.947303 96.851149 
L 257.147303 96.851149 
" clip-path="url(#p8bb94c7b10)" style="fill: none; stroke: #f4f4f4; stroke-width: 0.44; stroke-linecap: round"/>
     </g>
     <g id="line2d_66">
      <g>
       <use xlink:href="#m3f4ed993f9" x="23.947303" y="96.851149" style="stroke: #000000; stroke-width: 0.6"/>
      </g>
     </g>
    </g>
    <g id="ytick_13">
     <g id="line2d_67">
      <path d="M 33.947303 83.545549 
L 257.147303 83.545549 
" clip-path="url(#p8bb94c7b10)" style="fill: none; stroke: #f4f4f4; stroke-width: 0.44; stroke-linecap: round"/>
     </g>
     <g id="line2d_68">
      <g>
       <use xlink:href="#m3f4ed993f9" x="23.947303" y="83.545549" style="stroke: #000000; stroke-width: 0.6"/>
      </g>
     </g>
    </g>
    <g id="ytick_14">
     <g id="line2d_69">
      <path d="M 33.947303 76.892749 
L 257.147303 76.892749 
" clip-path="url(#p8bb94c7b10)" style="fill: none; stroke: #f4f4f4; stroke-width: 0.44; stroke-linecap: round"/>
     </g>
     <g id="line2d_70">
      <g>
       <use xlink:href="#m3f4ed993f9" x="23.947303" y="76.892749" style="stroke: #000000; stroke-width: 0.6"/>
      </g>
     </g>
    </g>
    <g id="ytick_15">
     <g id="line2d_71">
      <path d="M 33.947303 70.239949 
L 257.147303 70.239949 
" clip-path="url(#p8bb94c7b10)" style="fill: none; stroke: #f4f4f4; stroke-width: 0.44; stroke-linecap: round"/>
     </g>
     <g id="line2d_72">
      <g>
       <use xlink:href="#m3f4ed993f9" x="23.947303" y="70.239949" style="stroke: #000000; stroke-width: 0.6"/>
      </g>
     </g>
    </g>
    <g id="ytick_16">
     <g id="line2d_73">
      <path d="M 33.947303 56.934349 
L 257.147303 56.934349 
" clip-path="url(#p8bb94c7b10)" style="fill: none; stroke: #f4f4f4; stroke-width: 0.44; stroke-linecap: round"/>
     </g>
     <g id="line2d_74">
      <g>
       <use xlink:href="#m3f4ed993f9" x="23.947303" y="56.934349" style="stroke: #000000; stroke-width: 0.6"/>
      </g>
     </g>
    </g>
    <g id="ytick_17">
     <g id="line2d_75">
      <path d="M 33.947303 50.281549 
L 257.147303 50.281549 
" clip-path="url(#p8bb94c7b10)" style="fill: none; stroke: #f4f4f4; stroke-width: 0.44; stroke-linecap: round"/>
     </g>
     <g id="line2d_76">
      <g>
       <use xlink:href="#m3f4ed993f9" x="23.947303" y="50.281549" style="stroke: #000000; stroke-width: 0.6"/>
      </g>
     </g>
    </g>
    <g id="ytick_18">
     <g id="line2d_77">
      <path d="M 33.947303 43.628749 
L 257.147303 43.628749 
" clip-path="url(#p8bb94c7b10)" style="fill: none; stroke: #f4f4f4; stroke-width: 0.44; stroke-linecap: round"/>
     </g>
     <g id="line2d_78">
      <g>
       <use xlink:href="#m3f4ed993f9" x="23.947303" y="43.628749" style="stroke: #000000; stroke-width: 0.6"/>
      </g>
     </g>
    </g>
    <g id="ytick_19">
     <g id="line2d_79">
      <path d="M 33.947303 30.323149 
L 257.147303 30.323149 
" clip-path="url(#p8bb94c7b10)" style="fill: none; stroke: #f4f4f4; stroke-width: 0.44; stroke-linecap: round"/>
     </g>
     <g id="line2d_80">
      <g>
       <use xlink:href="#m3f4ed993f9" x="23.947303" y="30.323149" style="stroke: #000000; stroke-width: 0.6"/>
      </g>
     </g>
    </g>
    <g id="ytick_20">
     <g id="line2d_81">
      <path d="M 33.947303 23.670349 
L 257.147303 23.670349 
" clip-path="url(#p8bb94c7b10)" style="fill: none; stroke: #f4f4f4; stroke-width: 0.44; stroke-linecap: round"/>
     </g>
     <g id="line2d_82">
      <g>
       <use xlink:href="#m3f4ed993f9" x="23.947303" y="23.670349" style="stroke: #000000; stroke-width: 0.6"/>
      </g>
     </g>
    </g>
    <g id="ytick_21">
     <g id="line2d_83">
      <path d="M 33.947303 17.017549 
L 257.147303 17.017549 
" clip-path="url(#p8bb94c7b10)" style="fill: none; stroke: #f4f4f4; stroke-width: 0.44; stroke-linecap: round"/>
     </g>
     <g id="line2d_84">
      <g>
       <use xlink:href="#m3f4ed993f9" x="23.947303" y="17.017549" style="stroke: #000000; stroke-width: 0.6"/>
      </g>
     </g>
    </g>
   </g>
   <g id="line2d_85">
    <path d="M 33.947303 143.420749 
L 145.547303 10.364749 
L 257.147303 143.420749 
" style="fill: none; stroke: #1f77b4; stroke-width: 1.5; stroke-linecap: round"/>
   </g>
   <g id="patch_3">
    <path d="M 23.947303 143.420749 
L 23.947303 10.364749 
" style="fill: none; stroke: #000000; stroke-width: 0.8; stroke-linejoin: miter; stroke-linecap: square"/>
   </g>
   <g id="patch_4">
    <path d="M 33.947303 153.420749 
L 257.147303 153.420749 
" style="fill: none; stroke: #000000; stroke-width: 0.8; stroke-linejoin: miter; stroke-linecap: square"/>
   </g>
  </g>
 </g>
 <defs>
  <clipPath id="p8bb94c7b10">
   <rect x="33.947303" y="10.364749" width="223.2" height="133.056"/>
  </clipPath>
 </defs>
</svg>
