<?xml version="1.0" encoding="utf-8" standalone="no"?>
<!DOCTYPE svg PUBLIC "-//W3C//DTD SVG 1.1//EN"
  "http://www.w3.org/Graphics/SVG/1.1/DTD/svg11.dtd">
<!-- Created with matplotlib (https://matplotlib.org/) -->
<svg height="234.586466pt" version="1.1" viewBox="0 0 375.93985 234.586466" width="375.93985pt" xmlns="http://www.w3.org/2000/svg" xmlns:xlink="http://www.w3.org/1999/xlink">
 <metadata>
  <rdf:RDF xmlns:cc="http://creativecommons.org/ns#" xmlns:dc="http://purl.org/dc/elements/1.1/" xmlns:rdf="http://www.w3.org/1999/02/22-rdf-syntax-ns#">
   <cc:Work>
    <dc:type rdf:resource="http://purl.org/dc/dcmitype/StillImage"/>
    <dc:date>2021-05-26T11:39:27.887899</dc:date>
    <dc:format>image/svg+xml</dc:format>
    <dc:creator>
     <cc:Agent>
      <dc:title>Matplotlib v3.3.4, https://matplotlib.org/</dc:title>
     </cc:Agent>
    </dc:creator>
   </cc:Work>
  </rdf:RDF>
 </metadata>
 <defs>
  <style type="text/css">*{stroke-linecap:butt;stroke-linejoin:round;}</style>
 </defs>
 <g id="figure_1">
  <g id="patch_1">
   <path d="M 0 234.586466 
L 375.93985 234.586466 
L 375.93985 0 
L 0 0 
z
" style="fill:#ffffff;"/>
  </g>
  <g id="axes_1">
   <g id="patch_2">
    <path d="M 46.992481 205.263158 
L 338.345865 205.263158 
L 338.345865 28.150376 
L 46.992481 28.150376 
z
" style="fill:#ffffff;"/>
   </g>
   <g id="matplotlib.axis_1">
    <g id="xtick_1">
     <g id="line2d_1">
      <path clip-path="url(#p368085f772)" d="M 60.235817 205.263158 
L 60.235817 28.150376 
" style="fill:none;stroke:#d9d9d9;stroke-linecap:square;stroke-width:0.8;"/>
     </g>
     <g id="text_1">
      <!-- 0.00 -->
      <g style="fill:#666666;" transform="translate(50.962184 215.592656)scale(0.0833 -0.0833)">
       <defs>
        <path d="M 31.78125 66.40625 
Q 24.171875 66.40625 20.328125 58.90625 
Q 16.5 51.421875 16.5 36.375 
Q 16.5 21.390625 20.328125 13.890625 
Q 24.171875 6.390625 31.78125 6.390625 
Q 39.453125 6.390625 43.28125 13.890625 
Q 47.125 21.390625 47.125 36.375 
Q 47.125 51.421875 43.28125 58.90625 
Q 39.453125 66.40625 31.78125 66.40625 
z
M 31.78125 74.21875 
Q 44.046875 74.21875 50.515625 64.515625 
Q 56.984375 54.828125 56.984375 36.375 
Q 56.984375 17.96875 50.515625 8.265625 
Q 44.046875 -1.421875 31.78125 -1.421875 
Q 19.53125 -1.421875 13.0625 8.265625 
Q 6.59375 17.96875 6.59375 36.375 
Q 6.59375 54.828125 13.0625 64.515625 
Q 19.53125 74.21875 31.78125 74.21875 
z
" id="DejaVuSans-48"/>
        <path d="M 10.6875 12.40625 
L 21 12.40625 
L 21 0 
L 10.6875 0 
z
" id="DejaVuSans-46"/>
       </defs>
       <use xlink:href="#DejaVuSans-48"/>
       <use x="63.623047" xlink:href="#DejaVuSans-46"/>
       <use x="95.410156" xlink:href="#DejaVuSans-48"/>
       <use x="159.033203" xlink:href="#DejaVuSans-48"/>
      </g>
     </g>
    </g>
    <g id="xtick_2">
     <g id="line2d_2">
      <path clip-path="url(#p368085f772)" d="M 104.394989 205.263158 
L 104.394989 28.150376 
" style="fill:none;stroke:#d9d9d9;stroke-linecap:square;stroke-width:0.8;"/>
     </g>
     <g id="text_2">
      <!-- 0.05 -->
      <g style="fill:#666666;" transform="translate(95.121356 215.592656)scale(0.0833 -0.0833)">
       <defs>
        <path d="M 10.796875 72.90625 
L 49.515625 72.90625 
L 49.515625 64.59375 
L 19.828125 64.59375 
L 19.828125 46.734375 
Q 21.96875 47.46875 24.109375 47.828125 
Q 26.265625 48.1875 28.421875 48.1875 
Q 40.625 48.1875 47.75 41.5 
Q 54.890625 34.8125 54.890625 23.390625 
Q 54.890625 11.625 47.5625 5.09375 
Q 40.234375 -1.421875 26.90625 -1.421875 
Q 22.3125 -1.421875 17.546875 -0.640625 
Q 12.796875 0.140625 7.71875 1.703125 
L 7.71875 11.625 
Q 12.109375 9.234375 16.796875 8.0625 
Q 21.484375 6.890625 26.703125 6.890625 
Q 35.15625 6.890625 40.078125 11.328125 
Q 45.015625 15.765625 45.015625 23.390625 
Q 45.015625 31 40.078125 35.4375 
Q 35.15625 39.890625 26.703125 39.890625 
Q 22.75 39.890625 18.8125 39.015625 
Q 14.890625 38.140625 10.796875 36.28125 
z
" id="DejaVuSans-53"/>
       </defs>
       <use xlink:href="#DejaVuSans-48"/>
       <use x="63.623047" xlink:href="#DejaVuSans-46"/>
       <use x="95.410156" xlink:href="#DejaVuSans-48"/>
       <use x="159.033203" xlink:href="#DejaVuSans-53"/>
      </g>
     </g>
    </g>
    <g id="xtick_3">
     <g id="line2d_3">
      <path clip-path="url(#p368085f772)" d="M 148.55416 205.263158 
L 148.55416 28.150376 
" style="fill:none;stroke:#d9d9d9;stroke-linecap:square;stroke-width:0.8;"/>
     </g>
     <g id="text_3">
      <!-- 0.10 -->
      <g style="fill:#666666;" transform="translate(139.280528 215.592656)scale(0.0833 -0.0833)">
       <defs>
        <path d="M 12.40625 8.296875 
L 28.515625 8.296875 
L 28.515625 63.921875 
L 10.984375 60.40625 
L 10.984375 69.390625 
L 28.421875 72.90625 
L 38.28125 72.90625 
L 38.28125 8.296875 
L 54.390625 8.296875 
L 54.390625 0 
L 12.40625 0 
z
" id="DejaVuSans-49"/>
       </defs>
       <use xlink:href="#DejaVuSans-48"/>
       <use x="63.623047" xlink:href="#DejaVuSans-46"/>
       <use x="95.410156" xlink:href="#DejaVuSans-49"/>
       <use x="159.033203" xlink:href="#DejaVuSans-48"/>
      </g>
     </g>
    </g>
    <g id="xtick_4">
     <g id="line2d_4">
      <path clip-path="url(#p368085f772)" d="M 192.713332 205.263158 
L 192.713332 28.150376 
" style="fill:none;stroke:#d9d9d9;stroke-linecap:square;stroke-width:0.8;"/>
     </g>
     <g id="text_4">
      <!-- 0.15 -->
      <g style="fill:#666666;" transform="translate(183.439699 215.592656)scale(0.0833 -0.0833)">
       <use xlink:href="#DejaVuSans-48"/>
       <use x="63.623047" xlink:href="#DejaVuSans-46"/>
       <use x="95.410156" xlink:href="#DejaVuSans-49"/>
       <use x="159.033203" xlink:href="#DejaVuSans-53"/>
      </g>
     </g>
    </g>
    <g id="xtick_5">
     <g id="line2d_5">
      <path clip-path="url(#p368085f772)" d="M 236.872504 205.263158 
L 236.872504 28.150376 
" style="fill:none;stroke:#d9d9d9;stroke-linecap:square;stroke-width:0.8;"/>
     </g>
     <g id="text_5">
      <!-- 0.20 -->
      <g style="fill:#666666;" transform="translate(227.598871 215.592656)scale(0.0833 -0.0833)">
       <defs>
        <path d="M 19.1875 8.296875 
L 53.609375 8.296875 
L 53.609375 0 
L 7.328125 0 
L 7.328125 8.296875 
Q 12.9375 14.109375 22.625 23.890625 
Q 32.328125 33.6875 34.8125 36.53125 
Q 39.546875 41.84375 41.421875 45.53125 
Q 43.3125 49.21875 43.3125 52.78125 
Q 43.3125 58.59375 39.234375 62.25 
Q 35.15625 65.921875 28.609375 65.921875 
Q 23.96875 65.921875 18.8125 64.3125 
Q 13.671875 62.703125 7.8125 59.421875 
L 7.8125 69.390625 
Q 13.765625 71.78125 18.9375 73 
Q 24.125 74.21875 28.421875 74.21875 
Q 39.75 74.21875 46.484375 68.546875 
Q 53.21875 62.890625 53.21875 53.421875 
Q 53.21875 48.921875 51.53125 44.890625 
Q 49.859375 40.875 45.40625 35.40625 
Q 44.1875 33.984375 37.640625 27.21875 
Q 31.109375 20.453125 19.1875 8.296875 
z
" id="DejaVuSans-50"/>
       </defs>
       <use xlink:href="#DejaVuSans-48"/>
       <use x="63.623047" xlink:href="#DejaVuSans-46"/>
       <use x="95.410156" xlink:href="#DejaVuSans-50"/>
       <use x="159.033203" xlink:href="#DejaVuSans-48"/>
      </g>
     </g>
    </g>
    <g id="xtick_6">
     <g id="line2d_6">
      <path clip-path="url(#p368085f772)" d="M 281.031676 205.263158 
L 281.031676 28.150376 
" style="fill:none;stroke:#d9d9d9;stroke-linecap:square;stroke-width:0.8;"/>
     </g>
     <g id="text_6">
      <!-- 0.25 -->
      <g style="fill:#666666;" transform="translate(271.758043 215.592656)scale(0.0833 -0.0833)">
       <use xlink:href="#DejaVuSans-48"/>
       <use x="63.623047" xlink:href="#DejaVuSans-46"/>
       <use x="95.410156" xlink:href="#DejaVuSans-50"/>
       <use x="159.033203" xlink:href="#DejaVuSans-53"/>
      </g>
     </g>
    </g>
    <g id="xtick_7">
     <g id="line2d_7">
      <path clip-path="url(#p368085f772)" d="M 325.190847 205.263158 
L 325.190847 28.150376 
" style="fill:none;stroke:#d9d9d9;stroke-linecap:square;stroke-width:0.8;"/>
     </g>
     <g id="text_7">
      <!-- 0.30 -->
      <g style="fill:#666666;" transform="translate(315.917215 215.592656)scale(0.0833 -0.0833)">
       <defs>
        <path d="M 40.578125 39.3125 
Q 47.65625 37.796875 51.625 33 
Q 55.609375 28.21875 55.609375 21.1875 
Q 55.609375 10.40625 48.1875 4.484375 
Q 40.765625 -1.421875 27.09375 -1.421875 
Q 22.515625 -1.421875 17.65625 -0.515625 
Q 12.796875 0.390625 7.625 2.203125 
L 7.625 11.71875 
Q 11.71875 9.328125 16.59375 8.109375 
Q 21.484375 6.890625 26.8125 6.890625 
Q 36.078125 6.890625 40.9375 10.546875 
Q 45.796875 14.203125 45.796875 21.1875 
Q 45.796875 27.640625 41.28125 31.265625 
Q 36.765625 34.90625 28.71875 34.90625 
L 20.21875 34.90625 
L 20.21875 43.015625 
L 29.109375 43.015625 
Q 36.375 43.015625 40.234375 45.921875 
Q 44.09375 48.828125 44.09375 54.296875 
Q 44.09375 59.90625 40.109375 62.90625 
Q 36.140625 65.921875 28.71875 65.921875 
Q 24.65625 65.921875 20.015625 65.03125 
Q 15.375 64.15625 9.8125 62.3125 
L 9.8125 71.09375 
Q 15.4375 72.65625 20.34375 73.4375 
Q 25.25 74.21875 29.59375 74.21875 
Q 40.828125 74.21875 47.359375 69.109375 
Q 53.90625 64.015625 53.90625 55.328125 
Q 53.90625 49.265625 50.4375 45.09375 
Q 46.96875 40.921875 40.578125 39.3125 
z
" id="DejaVuSans-51"/>
       </defs>
       <use xlink:href="#DejaVuSans-48"/>
       <use x="63.623047" xlink:href="#DejaVuSans-46"/>
       <use x="95.410156" xlink:href="#DejaVuSans-51"/>
       <use x="159.033203" xlink:href="#DejaVuSans-48"/>
      </g>
     </g>
    </g>
   </g>
   <g id="matplotlib.axis_2">
    <g id="ytick_1">
     <g id="line2d_8">
      <path clip-path="url(#p368085f772)" d="M 46.992481 192.958776 
L 338.345865 192.958776 
" style="fill:none;stroke:#d9d9d9;stroke-linecap:square;stroke-width:0.8;"/>
     </g>
     <g id="text_8">
      <!-- −0.03 -->
      <g style="fill:#666666;" transform="translate(17.464936 196.123525)scale(0.0833 -0.0833)">
       <defs>
        <path d="M 10.59375 35.5 
L 73.1875 35.5 
L 73.1875 27.203125 
L 10.59375 27.203125 
z
" id="DejaVuSans-8722"/>
       </defs>
       <use xlink:href="#DejaVuSans-8722"/>
       <use x="83.789062" xlink:href="#DejaVuSans-48"/>
       <use x="147.412109" xlink:href="#DejaVuSans-46"/>
       <use x="179.199219" xlink:href="#DejaVuSans-48"/>
       <use x="242.822266" xlink:href="#DejaVuSans-51"/>
      </g>
     </g>
    </g>
    <g id="ytick_2">
     <g id="line2d_9">
      <path clip-path="url(#p368085f772)" d="M 46.992481 168.368913 
L 338.345865 168.368913 
" style="fill:none;stroke:#d9d9d9;stroke-linecap:square;stroke-width:0.8;"/>
     </g>
     <g id="text_9">
      <!-- −0.02 -->
      <g style="fill:#666666;" transform="translate(17.464936 171.533662)scale(0.0833 -0.0833)">
       <use xlink:href="#DejaVuSans-8722"/>
       <use x="83.789062" xlink:href="#DejaVuSans-48"/>
       <use x="147.412109" xlink:href="#DejaVuSans-46"/>
       <use x="179.199219" xlink:href="#DejaVuSans-48"/>
       <use x="242.822266" xlink:href="#DejaVuSans-50"/>
      </g>
     </g>
    </g>
    <g id="ytick_3">
     <g id="line2d_10">
      <path clip-path="url(#p368085f772)" d="M 46.992481 143.779049 
L 338.345865 143.779049 
" style="fill:none;stroke:#d9d9d9;stroke-linecap:square;stroke-width:0.8;"/>
     </g>
     <g id="text_10">
      <!-- −0.01 -->
      <g style="fill:#666666;" transform="translate(17.464936 146.943799)scale(0.0833 -0.0833)">
       <use xlink:href="#DejaVuSans-8722"/>
       <use x="83.789062" xlink:href="#DejaVuSans-48"/>
       <use x="147.412109" xlink:href="#DejaVuSans-46"/>
       <use x="179.199219" xlink:href="#DejaVuSans-48"/>
       <use x="242.822266" xlink:href="#DejaVuSans-49"/>
      </g>
     </g>
    </g>
    <g id="ytick_4">
     <g id="line2d_11">
      <path clip-path="url(#p368085f772)" d="M 46.992481 119.189186 
L 338.345865 119.189186 
" style="fill:none;stroke:#d9d9d9;stroke-linecap:square;stroke-width:0.8;"/>
     </g>
     <g id="text_11">
      <!-- 0.00 -->
      <g style="fill:#666666;" transform="translate(24.445216 122.353935)scale(0.0833 -0.0833)">
       <use xlink:href="#DejaVuSans-48"/>
       <use x="63.623047" xlink:href="#DejaVuSans-46"/>
       <use x="95.410156" xlink:href="#DejaVuSans-48"/>
       <use x="159.033203" xlink:href="#DejaVuSans-48"/>
      </g>
     </g>
    </g>
    <g id="ytick_5">
     <g id="line2d_12">
      <path clip-path="url(#p368085f772)" d="M 46.992481 94.599323 
L 338.345865 94.599323 
" style="fill:none;stroke:#d9d9d9;stroke-linecap:square;stroke-width:0.8;"/>
     </g>
     <g id="text_12">
      <!-- 0.01 -->
      <g style="fill:#666666;" transform="translate(24.445216 97.764072)scale(0.0833 -0.0833)">
       <use xlink:href="#DejaVuSans-48"/>
       <use x="63.623047" xlink:href="#DejaVuSans-46"/>
       <use x="95.410156" xlink:href="#DejaVuSans-48"/>
       <use x="159.033203" xlink:href="#DejaVuSans-49"/>
      </g>
     </g>
    </g>
    <g id="ytick_6">
     <g id="line2d_13">
      <path clip-path="url(#p368085f772)" d="M 46.992481 70.00946 
L 338.345865 70.00946 
" style="fill:none;stroke:#d9d9d9;stroke-linecap:square;stroke-width:0.8;"/>
     </g>
     <g id="text_13">
      <!-- 0.02 -->
      <g style="fill:#666666;" transform="translate(24.445216 73.174209)scale(0.0833 -0.0833)">
       <use xlink:href="#DejaVuSans-48"/>
       <use x="63.623047" xlink:href="#DejaVuSans-46"/>
       <use x="95.410156" xlink:href="#DejaVuSans-48"/>
       <use x="159.033203" xlink:href="#DejaVuSans-50"/>
      </g>
     </g>
    </g>
    <g id="ytick_7">
     <g id="line2d_14">
      <path clip-path="url(#p368085f772)" d="M 46.992481 45.419597 
L 338.345865 45.419597 
" style="fill:none;stroke:#d9d9d9;stroke-linecap:square;stroke-width:0.8;"/>
     </g>
     <g id="text_14">
      <!-- 0.03 -->
      <g style="fill:#666666;" transform="translate(24.445216 48.584346)scale(0.0833 -0.0833)">
       <use xlink:href="#DejaVuSans-48"/>
       <use x="63.623047" xlink:href="#DejaVuSans-46"/>
       <use x="95.410156" xlink:href="#DejaVuSans-48"/>
       <use x="159.033203" xlink:href="#DejaVuSans-51"/>
      </g>
     </g>
    </g>
   </g>
   <g id="line2d_15">
    <path clip-path="url(#p368085f772)" d="M 60.235817 140.529327 
L 60.324135 128.232163 
L 60.412454 135.085719 
L 60.500772 86.736882 
L 60.58909 107.749653 
L 60.677409 74.455485 
L 60.854045 142.258457 
L 60.942364 115.211083 
L 61.030682 130.311442 
L 61.207319 112.738545 
L 61.295637 140.65415 
L 61.383955 96.373911 
L 61.472274 105.244408 
L 61.560592 92.433694 
L 61.64891 125.76394 
L 61.825547 111.164163 
L 61.913865 137.602332 
L 62.002184 126.735077 
L 62.090502 127.184439 
L 62.17882 138.508427 
L 62.267139 128.882123 
L 62.620412 162.822803 
L 62.70873 108.206406 
L 62.797049 136.536601 
L 62.885367 134.732995 
L 62.973685 149.233929 
L 63.150322 113.942454 
L 63.23864 157.806842 
L 63.326959 109.558366 
L 63.415277 118.616857 
L 63.503596 106.346857 
L 63.591914 135.64585 
L 63.680232 77.909298 
L 63.856869 160.870057 
L 64.033506 70.46194 
L 64.121824 151.510955 
L 64.210142 143.092796 
L 64.298461 86.872994 
L 64.475097 152.759326 
L 64.563416 88.840684 
L 64.651734 144.068287 
L 64.828371 95.06074 
L 64.916689 129.963021 
L 65.005007 124.397077 
L 65.093326 150.089624 
L 65.269962 80.48088 
L 65.358281 90.066654 
L 65.446599 87.939226 
L 65.534917 76.177431 
L 65.711554 135.283065 
L 65.799872 129.241238 
L 65.888191 131.444568 
L 66.064827 154.537866 
L 66.153146 102.899608 
L 66.241464 180.062864 
L 66.418101 107.267341 
L 66.594738 139.398996 
L 66.683056 93.655969 
L 66.771374 136.713481 
L 66.859693 101.02215 
L 66.948011 134.995027 
L 67.124648 82.123246 
L 67.212966 130.09187 
L 67.301284 105.442482 
L 67.389603 146.772656 
L 67.742876 91.244308 
L 67.831194 106.199675 
L 67.919513 87.233102 
L 68.096149 141.578103 
L 68.272786 102.383218 
L 68.449423 155.602225 
L 68.626059 102.135745 
L 68.714378 96.318389 
L 68.891014 144.456973 
L 68.979333 142.956538 
L 69.067651 144.406377 
L 69.15597 129.104408 
L 69.244288 141.990164 
L 69.420925 120.515273 
L 69.509243 130.831846 
L 69.597561 98.048945 
L 69.68588 107.78497 
L 69.774198 169.762789 
L 70.039153 118.090719 
L 70.21579 155.457508 
L 70.304108 114.072034 
L 70.392426 148.344399 
L 70.569063 113.627567 
L 70.657381 108.799191 
L 70.834018 172.667296 
L 71.010655 75.553548 
L 71.187291 152.177644 
L 71.27561 91.33789 
L 71.363928 112.438835 
L 71.717201 92.574208 
L 71.80552 165.217373 
L 71.893838 66.734827 
L 71.982157 85.852686 
L 72.070475 100.386966 
L 72.158793 154.761101 
L 72.33543 102.60416 
L 72.423748 94.232223 
L 72.600385 109.966614 
L 72.777022 90.764171 
L 72.953658 141.871047 
L 73.041977 123.462343 
L 73.130295 127.446796 
L 73.218613 58.373691 
L 73.39525 162.810525 
L 73.660205 130.652375 
L 73.748523 121.750061 
L 73.836842 148.506378 
L 73.92516 90.315452 
L 74.013478 106.188615 
L 74.101797 99.158911 
L 74.190115 139.841407 
L 74.278433 106.391944 
L 74.366752 131.668717 
L 74.45507 115.126214 
L 74.543388 120.401943 
L 74.631707 145.862339 
L 74.720025 120.339489 
L 74.808343 123.715563 
L 74.98498 102.48069 
L 75.161617 155.412718 
L 75.338254 107.565387 
L 75.426572 151.461864 
L 75.51489 106.244861 
L 75.603209 107.532661 
L 75.691527 104.791906 
L 75.868164 130.236106 
L 75.956482 128.47393 
L 76.0448 124.034477 
L 76.133119 140.677075 
L 76.398074 96.210903 
L 76.486392 146.168098 
L 76.663029 112.770573 
L 76.839665 76.434822 
L 77.10462 141.751428 
L 77.192939 119.326982 
L 77.281257 172.049179 
L 77.369575 97.61968 
L 77.546212 135.673322 
L 77.811167 63.327946 
L 77.899486 133.315085 
L 78.076122 79.822579 
L 78.164441 130.137105 
L 78.252759 123.611539 
L 78.429396 93.978229 
L 78.517714 127.608331 
L 78.606032 93.587953 
L 78.694351 133.565808 
L 78.782669 123.298725 
L 78.870987 102.672345 
L 78.959306 163.300312 
L 79.400897 87.078391 
L 79.577534 100.291076 
L 79.754171 134.568548 
L 79.842489 79.178622 
L 80.019126 126.255072 
L 80.195762 92.68259 
L 80.284081 131.443717 
L 80.372399 128.642948 
L 80.460717 146.693504 
L 80.549036 83.501759 
L 80.725673 148.584286 
L 80.813991 158.451623 
L 80.902309 113.136667 
L 80.990628 180.412067 
L 81.255583 102.793181 
L 81.343901 184.424533 
L 81.520538 107.402835 
L 81.608856 130.491765 
L 81.697174 118.419018 
L 81.785493 178.808801 
L 81.962129 95.132845 
L 82.138766 141.603079 
L 82.227084 94.398387 
L 82.315403 114.700633 
L 82.403721 163.494155 
L 82.668676 104.075714 
L 82.756994 92.878175 
L 82.845313 93.796268 
L 83.021949 133.368658 
L 83.110268 121.109353 
L 83.198586 52.060332 
L 83.375223 125.561919 
L 83.463541 94.719791 
L 83.55186 159.684632 
L 83.728496 107.305138 
L 83.816815 136.00584 
L 84.170088 97.324162 
L 84.258406 193.059799 
L 84.523361 86.720031 
L 84.61168 85.849858 
L 84.699998 139.504927 
L 84.788316 94.978144 
L 84.876635 160.70483 
L 85.229908 67.704445 
L 85.318226 146.941368 
L 85.406545 126.791282 
L 85.494863 120.854045 
L 85.583181 134.954219 
L 85.6715 80.114332 
L 85.936455 150.391464 
L 86.113091 120.990229 
L 86.20141 94.154945 
L 86.289728 101.722472 
L 86.378046 84.937436 
L 86.643002 172.005519 
L 86.73132 121.299131 
L 86.819638 130.432904 
L 86.907957 122.893929 
L 86.996275 127.746692 
L 87.084593 167.271493 
L 87.172912 155.767496 
L 87.349548 100.170456 
L 87.437867 165.858846 
L 87.526185 117.685097 
L 87.614503 133.11287 
L 87.879458 106.388847 
L 88.056095 194.867741 
L 88.32105 71.686258 
L 88.409368 72.499986 
L 88.674323 131.84741 
L 88.762642 151.3446 
L 88.939278 81.194457 
L 89.027597 139.595861 
L 89.115915 139.433847 
L 89.204233 96.987821 
L 89.292552 125.71119 
L 89.38087 114.949571 
L 89.469189 150.58364 
L 89.557507 149.824089 
L 89.645825 160.178516 
L 89.734144 144.41466 
L 89.822462 90.884353 
L 89.91078 100.071035 
L 89.999099 76.219176 
L 90.087417 154.262853 
L 90.175735 121.1285 
L 90.264054 155.835651 
L 90.352372 92.572579 
L 90.529009 158.699009 
L 90.617327 128.011488 
L 90.705645 153.523622 
L 90.882282 125.963919 
L 90.9706 103.505648 
L 91.058919 107.323024 
L 91.235555 141.067681 
L 91.323874 116.029851 
L 91.412192 134.370624 
L 91.50051 97.50956 
L 91.588829 138.103684 
L 91.765465 84.132818 
L 91.942102 120.860954 
L 92.03042 135.186338 
L 92.118739 112.016874 
L 92.295376 137.53963 
L 92.383694 123.255489 
L 92.472012 139.718065 
L 92.648649 116.321174 
L 92.736967 138.605604 
L 92.825286 103.458542 
L 92.913604 112.818328 
L 93.001922 158.880461 
L 93.090241 85.462671 
L 93.443514 154.26877 
L 93.620151 66.855033 
L 93.796787 123.032577 
L 93.885106 143.864821 
L 93.973424 106.715694 
L 94.061742 117.460511 
L 94.238379 97.150297 
L 94.326697 156.249705 
L 94.415016 103.848334 
L 94.503334 125.224761 
L 94.591652 124.579746 
L 94.679971 101.836104 
L 94.768289 190.615838 
L 95.033244 85.273332 
L 95.209881 124.497625 
L 95.474836 86.266041 
L 95.651473 130.592603 
L 95.828109 110.63527 
L 95.916428 109.700757 
L 96.004746 153.853959 
L 96.181383 97.383376 
L 96.358019 169.81539 
L 96.534656 109.759151 
L 96.622974 149.527477 
L 96.799611 116.571086 
L 96.887929 118.035411 
L 97.064566 109.137279 
L 97.152884 141.836343 
L 97.241203 106.277081 
L 97.329521 141.816022 
L 97.417839 102.739056 
L 97.506158 129.556373 
L 97.594476 117.888318 
L 97.771113 150.505819 
L 97.94775 130.468877 
L 98.036068 72.938867 
L 98.212705 157.912996 
L 98.301023 123.268143 
L 98.389341 128.744961 
L 98.654296 95.233979 
L 98.830933 146.489555 
L 98.919251 95.683451 
L 99.00757 133.112771 
L 99.184206 65.184284 
L 99.272525 105.165915 
L 99.360843 96.594031 
L 99.449161 120.898032 
L 99.53748 87.354456 
L 99.625798 152.512063 
L 99.802435 96.803309 
L 99.890753 144.6412 
L 99.979071 108.921041 
L 100.06739 143.814266 
L 100.155708 115.926538 
L 100.244026 149.354923 
L 100.420663 99.703952 
L 100.508981 98.035983 
L 100.5973 123.127049 
L 100.685618 100.555005 
L 100.773936 130.667299 
L 100.862255 81.638925 
L 101.038892 125.101298 
L 101.12721 57.148728 
L 101.215528 130.257436 
L 101.303847 85.885155 
L 101.392165 125.673598 
L 101.568802 95.369485 
L 101.833757 117.671463 
L 101.922075 85.263618 
L 102.010393 122.201513 
L 102.098712 113.837739 
L 102.18703 108.103201 
L 102.363667 143.887746 
L 102.540303 88.757558 
L 102.71694 138.233466 
L 102.805258 100.771934 
L 102.981895 147.083087 
L 103.070213 118.810064 
L 103.158532 146.586881 
L 103.24685 82.285839 
L 103.335168 97.375609 
L 103.423487 137.947345 
L 103.511805 67.228676 
L 103.600123 122.722632 
L 103.688442 93.582783 
L 103.77676 123.198563 
L 103.865079 108.113135 
L 103.953397 132.499355 
L 104.130034 60.669867 
L 104.30667 143.207444 
L 104.394989 139.983617 
L 104.659944 83.600356 
L 104.748262 88.567645 
L 104.83658 152.610071 
L 104.924899 140.964862 
L 105.013217 86.677711 
L 105.189854 140.04286 
L 105.278172 139.966196 
L 105.36649 142.918292 
L 105.454809 127.352464 
L 105.543127 147.317013 
L 105.631445 112.442317 
L 105.984719 158.389068 
L 106.249674 95.821606 
L 106.337992 137.980068 
L 106.602947 97.434302 
L 106.691266 134.915077 
L 106.779584 114.873233 
L 106.956221 126.117754 
L 107.044539 116.671845 
L 107.132857 140.347845 
L 107.221176 140.08495 
L 107.486131 108.467738 
L 107.574449 123.740463 
L 107.662767 98.938536 
L 107.751086 147.53976 
L 107.839404 137.36944 
L 107.927722 146.680094 
L 108.104359 117.235206 
L 108.280996 120.954754 
L 108.369314 139.997627 
L 108.457632 122.010735 
L 108.545951 149.671407 
L 108.634269 60.817455 
L 108.722587 131.437361 
L 108.810906 123.727134 
L 108.899224 112.635199 
L 108.987542 123.851931 
L 109.075861 120.183783 
L 109.164179 135.465997 
L 109.252497 95.845564 
L 109.340816 142.242477 
L 109.517453 91.11398 
L 109.694089 161.270066 
L 109.782408 92.529147 
L 109.870726 124.276125 
L 109.959044 112.608902 
L 110.135681 150.716151 
L 110.223999 154.286037 
L 110.400636 84.243964 
L 110.577273 145.920555 
L 110.665591 139.816883 
L 110.753909 125.200179 
L 110.842228 82.078759 
L 110.930546 87.412468 
L 111.018864 138.261616 
L 111.107183 90.002868 
L 111.195501 144.259673 
L 111.548774 83.043792 
L 111.725411 137.659526 
L 111.813729 108.407606 
L 111.902048 138.948523 
L 111.990366 129.324261 
L 112.167003 101.831979 
L 112.431958 132.393978 
L 112.608595 107.522356 
L 112.696913 159.200277 
L 112.785231 67.98772 
L 112.961868 120.04937 
L 113.050186 116.772331 
L 113.138505 119.754666 
L 113.315141 78.801887 
L 113.40346 123.255536 
L 113.491778 85.284237 
L 113.668415 136.280976 
L 113.756733 104.488439 
L 113.845051 141.214788 
L 113.93337 137.970777 
L 114.021688 95.585171 
L 114.198325 130.550894 
L 114.286643 130.271558 
L 114.374961 96.387842 
L 114.46328 132.211477 
L 114.728235 99.498238 
L 114.816553 143.093412 
L 114.904871 73.532264 
L 114.99319 115.575391 
L 115.081508 110.756886 
L 115.169826 116.454411 
L 115.258145 96.586127 
L 115.434782 136.02137 
L 115.5231 134.996864 
L 115.788055 76.914095 
L 115.876373 124.52119 
L 115.964692 110.206907 
L 116.141328 138.839336 
L 116.229647 87.307475 
L 116.317965 88.558024 
L 116.494602 142.140912 
L 116.58292 111.81095 
L 116.671238 132.834357 
L 116.759557 124.439183 
L 116.847875 73.198763 
L 116.936193 125.441068 
L 117.11283 73.654676 
L 117.201148 124.231191 
L 117.289467 119.951077 
L 117.377785 84.278896 
L 117.466103 144.569703 
L 117.64274 91.143733 
L 117.731058 161.643908 
L 117.819377 107.01233 
L 117.907695 115.165463 
L 117.996013 113.109509 
L 118.084332 121.61531 
L 118.17265 149.391957 
L 118.260969 142.486068 
L 118.349287 112.748473 
L 118.437605 132.317608 
L 118.525924 127.880504 
L 118.614242 118.064738 
L 118.70256 130.954602 
L 118.790879 127.454086 
L 118.879197 136.179657 
L 119.055834 102.652974 
L 119.320789 159.80227 
L 119.409107 111.279676 
L 119.497425 123.348251 
L 119.585744 91.54086 
L 119.674062 158.675086 
L 119.76238 145.26354 
L 119.850699 98.789048 
L 119.939017 158.803566 
L 120.115654 115.233734 
L 120.203972 144.012212 
L 120.29229 101.210424 
L 120.380609 109.424808 
L 120.468927 77.047086 
L 120.645564 134.875784 
L 120.733882 107.123464 
L 120.8222 119.113412 
L 120.910519 36.200957 
L 121.087156 128.144821 
L 121.175474 93.801981 
L 121.263792 107.806765 
L 121.352111 152.57305 
L 121.440429 105.927143 
L 121.528747 150.307682 
L 121.617066 76.382221 
L 121.705384 125.377518 
L 121.793702 111.895851 
L 121.882021 121.545761 
L 121.970339 83.831302 
L 122.146976 148.218177 
L 122.235294 147.210063 
L 122.323612 118.75221 
L 122.411931 141.858645 
L 122.500249 108.722845 
L 122.588567 113.831865 
L 122.676886 98.973031 
L 122.941841 139.486129 
L 123.030159 89.05903 
L 123.206796 126.169455 
L 123.295114 94.812394 
L 123.560069 164.471603 
L 123.648387 63.997217 
L 123.825024 135.039438 
L 123.913342 124.750433 
L 124.001661 133.412274 
L 124.266616 89.174301 
L 124.354934 138.657896 
L 124.443253 99.092963 
L 124.531571 104.604586 
L 124.619889 136.47503 
L 124.708208 91.595854 
L 124.884844 152.326692 
L 124.973163 131.58938 
L 125.061481 145.45572 
L 125.238118 109.771591 
L 125.326436 141.059468 
L 125.414754 125.750883 
L 125.503073 134.800731 
L 125.591391 115.875124 
L 125.679709 163.656893 
L 125.768028 152.134771 
L 125.856346 80.596713 
L 125.944664 124.967817 
L 126.032983 114.422868 
L 126.121301 135.053726 
L 126.209619 99.845702 
L 126.297938 164.471593 
L 126.386256 129.580069 
L 126.474574 149.742436 
L 126.562893 86.285816 
L 126.651211 144.903711 
L 126.739529 92.935366 
L 126.827848 137.84799 
L 127.004485 99.362461 
L 127.092803 101.588519 
L 127.26944 158.447102 
L 127.534395 90.860622 
L 127.622713 101.058972 
L 127.711031 134.440753 
L 127.79935 82.083798 
L 127.975986 156.509379 
L 128.064305 95.060102 
L 128.152623 157.209691 
L 128.32926 101.802512 
L 128.417578 73.78337 
L 128.505896 132.446173 
L 128.594215 119.093416 
L 128.682533 125.311344 
L 128.85917 98.676462 
L 128.947488 162.266245 
L 129.035806 142.376905 
L 129.124125 86.751862 
L 129.300761 175.799394 
L 129.38908 143.056738 
L 129.477398 146.793996 
L 129.742353 99.845702 
L 130.007308 151.978435 
L 130.095627 98.35428 
L 130.183945 165.962324 
L 130.4489 96.843705 
L 130.625537 123.275565 
L 130.802173 102.879871 
L 130.97881 132.485127 
L 131.243765 91.593835 
L 131.420402 145.886535 
L 131.50872 91.703731 
L 131.685357 126.482929 
L 131.773675 92.975081 
L 131.861993 139.899197 
L 131.950312 132.312969 
L 132.126948 101.233428 
L 132.215267 111.031543 
L 132.303585 139.101776 
L 132.391903 111.336774 
L 132.480222 132.392541 
L 132.56854 128.53108 
L 132.745177 105.977413 
L 133.010132 164.269267 
L 133.09845 106.331637 
L 133.186769 106.958982 
L 133.275087 162.044945 
L 133.451724 111.216433 
L 133.540042 118.471411 
L 133.62836 138.997996 
L 133.716679 103.945503 
L 133.804997 153.262298 
L 133.893315 141.580755 
L 134.069952 107.958707 
L 134.15827 136.31843 
L 134.334907 93.146505 
L 134.423225 149.498184 
L 134.511544 93.931156 
L 134.599862 121.306352 
L 134.68818 105.712364 
L 134.776499 132.167336 
L 134.953135 83.704236 
L 135.041454 133.942884 
L 135.129772 110.097358 
L 135.21809 151.066488 
L 135.306409 148.740782 
L 135.394727 122.936765 
L 135.483045 128.810624 
L 135.571364 138.472741 
L 135.659682 169.132327 
L 135.836319 102.583921 
L 136.012956 153.828728 
L 136.101274 118.332419 
L 136.189592 136.195279 
L 136.277911 112.060978 
L 136.366229 140.686449 
L 136.454547 122.868664 
L 136.542866 152.903471 
L 136.719502 54.152542 
L 136.807821 140.695144 
L 136.896139 129.275228 
L 136.984457 155.073085 
L 137.072776 128.367396 
L 137.161094 159.07642 
L 137.337731 96.626206 
L 137.426049 113.504186 
L 137.514367 82.864012 
L 137.691004 116.066359 
L 137.779322 114.94903 
L 137.867641 98.158503 
L 137.955959 123.386773 
L 138.044277 82.163118 
L 138.220914 130.429774 
L 138.309232 119.283848 
L 138.397551 73.332087 
L 138.485869 135.346292 
L 138.574188 106.647817 
L 138.662506 137.864162 
L 138.750824 112.959532 
L 138.839143 156.293688 
L 138.927461 128.943694 
L 139.015779 165.138005 
L 139.280734 101.551982 
L 139.369053 108.554775 
L 139.457371 134.091551 
L 139.634008 85.41255 
L 139.722326 73.488418 
L 139.810644 76.330011 
L 140.075599 134.150327 
L 140.252236 119.037989 
L 140.428873 156.691277 
L 140.517191 93.150152 
L 140.605509 128.396107 
L 140.693828 99.377612 
L 140.870464 136.063464 
L 140.958783 101.454558 
L 141.047101 127.50301 
L 141.135419 119.278308 
L 141.312056 150.597436 
L 141.400375 103.330807 
L 141.488693 109.762391 
L 141.577011 95.88093 
L 141.66533 120.421119 
L 141.753648 94.258127 
L 141.841966 109.470808 
L 141.930285 88.813162 
L 142.018603 107.6612 
L 142.106921 101.328619 
L 142.283558 143.680841 
L 142.371876 118.497801 
L 142.460195 126.487394 
L 142.548513 154.145447 
L 142.72515 97.698234 
L 142.813468 138.126544 
L 142.990105 97.123665 
L 143.078423 125.863529 
L 143.166741 94.958226 
L 143.343378 128.562522 
L 143.431696 133.057621 
L 143.520015 110.947968 
L 143.696651 128.556474 
L 143.78497 95.918612 
L 143.873288 120.726697 
L 143.961606 177.325628 
L 144.049925 114.643953 
L 144.138243 129.213809 
L 144.226562 107.950545 
L 144.403198 165.226262 
L 144.491517 60.763076 
L 144.579835 85.0681 
L 144.668153 144.23468 
L 144.756472 94.529707 
L 144.84479 164.122332 
L 145.021427 107.576016 
L 145.109745 105.682752 
L 145.198063 127.510622 
L 145.286382 84.700137 
L 145.3747 154.383879 
L 145.551337 99.680045 
L 145.639655 95.253369 
L 145.727973 158.454163 
L 145.816292 126.289572 
L 145.90461 133.649801 
L 145.992928 139.547026 
L 146.081247 127.098872 
L 146.169565 98.21127 
L 146.257883 132.574504 
L 146.346202 125.123792 
L 146.43452 134.70779 
L 146.522838 134.491813 
L 146.611157 121.298977 
L 146.699475 143.146658 
L 146.787793 125.695772 
L 146.96443 140.869699 
L 147.052749 117.406498 
L 147.141067 166.117533 
L 147.229385 134.716812 
L 147.317704 140.273253 
L 147.406022 125.829411 
L 147.49434 137.807891 
L 147.670977 88.717697 
L 147.759295 167.141081 
L 147.847614 96.862619 
L 148.02425 122.245772 
L 148.112569 86.244995 
L 148.289205 132.647859 
L 148.465842 104.82585 
L 148.55416 126.504184 
L 148.642479 90.907557 
L 148.730797 110.788515 
L 148.819115 89.303585 
L 148.995752 150.428914 
L 149.08407 77.165371 
L 149.172389 155.393736 
L 149.260707 145.396363 
L 149.349025 125.981455 
L 149.437344 134.457928 
L 149.525662 113.592772 
L 149.61398 152.505123 
L 149.790617 54.955181 
L 149.878935 125.260321 
L 149.967254 82.727265 
L 150.055572 97.017226 
L 150.143891 84.783444 
L 150.320527 115.837874 
L 150.408846 105.008252 
L 150.497164 106.271931 
L 150.585482 125.920193 
L 150.673801 111.958095 
L 150.762119 135.596548 
L 151.027074 86.955994 
L 151.115392 103.783651 
L 151.292029 99.087033 
L 151.556984 139.932525 
L 151.645302 85.151668 
L 151.733621 98.305802 
L 151.821939 134.573856 
L 151.910257 117.759364 
L 151.998576 133.021737 
L 152.086894 81.55903 
L 152.175212 176.429594 
L 152.263531 168.861993 
L 152.440167 83.06035 
L 152.528486 140.087756 
L 152.616804 138.54462 
L 152.705122 126.668867 
L 152.793441 85.898645 
L 152.881759 126.637268 
L 152.970078 121.816101 
L 153.058396 58.89295 
L 153.146714 145.115707 
L 153.235033 118.698188 
L 153.323351 123.62549 
L 153.411669 103.371057 
L 153.588306 141.448257 
L 153.764943 80.914834 
L 153.853261 86.925636 
L 153.941579 118.043471 
L 154.029898 104.548736 
L 154.118216 151.206789 
L 154.206534 141.713894 
L 154.383171 121.866448 
L 154.471489 127.332609 
L 154.559808 73.353522 
L 154.648126 116.294574 
L 154.736444 99.068594 
L 154.824763 138.743032 
L 154.913081 135.875885 
L 155.001399 117.319029 
L 155.089718 140.84646 
L 155.178036 107.715108 
L 155.266354 115.569769 
L 155.442991 57.242437 
L 155.531309 85.890378 
L 155.619628 163.724996 
L 155.796265 120.645618 
L 155.972901 148.817442 
L 156.06122 131.856483 
L 156.149538 142.536252 
L 156.237856 72.097118 
L 156.326175 137.312332 
L 156.502811 95.52546 
L 156.59113 125.734408 
L 156.679448 109.314085 
L 156.856085 119.565343 
L 156.944403 94.649827 
L 157.032721 168.085642 
L 157.209358 137.328302 
L 157.297676 77.697363 
L 157.385995 100.733461 
L 157.474313 160.713718 
L 157.65095 100.882725 
L 157.739268 136.741429 
L 157.827586 85.808187 
L 157.915905 116.807034 
L 158.092541 87.536669 
L 158.269178 151.171079 
L 158.357496 76.304116 
L 158.534133 124.533065 
L 158.71077 99.467127 
L 158.799088 139.657046 
L 158.887407 71.51468 
L 158.975725 119.636855 
L 159.064043 88.159632 
L 159.24068 146.328942 
L 159.328998 118.468741 
L 159.417317 142.525238 
L 159.505635 140.141049 
L 159.593953 144.428554 
L 159.682272 136.648535 
L 159.77059 90.906013 
L 159.858908 99.281132 
L 159.947227 145.684635 
L 160.035545 111.041529 
L 160.123863 112.102652 
L 160.3005 90.751421 
L 160.477137 141.060987 
L 160.653773 94.970838 
L 160.742092 140.227497 
L 160.83041 134.702655 
L 160.918728 93.08803 
L 161.007047 102.705087 
L 161.095365 141.553395 
L 161.183683 95.797908 
L 161.272002 138.686106 
L 161.36032 73.649064 
L 161.536957 118.480464 
L 161.625275 137.747428 
L 161.713594 86.966469 
L 161.89023 141.238455 
L 161.978549 118.511788 
L 162.066867 125.111013 
L 162.243504 98.014269 
L 162.331822 139.827174 
L 162.42014 132.785461 
L 162.596777 115.464942 
L 162.685095 76.572829 
L 162.773414 138.578615 
L 162.861732 137.056142 
L 162.95005 144.475649 
L 163.038369 66.495833 
L 163.126687 116.188149 
L 163.215005 85.09488 
L 163.303324 95.209675 
L 163.391642 133.890694 
L 163.47996 127.56869 
L 163.568279 157.956161 
L 163.656597 107.471661 
L 163.833234 146.200323 
L 164.00987 74.432023 
L 164.186507 162.424206 
L 164.274825 158.030976 
L 164.363144 141.447451 
L 164.451462 150.163275 
L 164.539781 113.788159 
L 164.716417 167.514609 
L 164.804736 106.106037 
L 164.893054 141.986828 
L 164.981372 134.151934 
L 165.069691 98.429903 
L 165.246327 147.197693 
L 165.422964 112.06999 
L 165.511282 114.210995 
L 165.599601 123.027244 
L 165.776237 99.738752 
L 165.864556 109.134687 
L 165.952874 99.241618 
L 166.041192 111.435444 
L 166.217829 92.543803 
L 166.306147 129.554547 
L 166.394466 114.129825 
L 166.482784 118.213037 
L 166.659421 160.263888 
L 166.747739 101.048688 
L 166.836057 160.308498 
L 167.012694 89.172421 
L 167.189331 151.716036 
L 167.365968 162.226052 
L 167.454286 119.321395 
L 167.542604 143.662067 
L 167.719241 97.141688 
L 167.807559 142.746715 
L 167.895878 129.450999 
L 167.984196 87.743528 
L 168.072514 108.256872 
L 168.160833 179.3591 
L 168.425788 69.348762 
L 168.602424 137.178069 
L 168.690743 116.454324 
L 168.779061 101.390962 
L 169.044016 158.749303 
L 169.132334 115.793965 
L 169.220653 146.228135 
L 169.308971 103.706306 
L 169.397289 121.924029 
L 169.485608 107.00415 
L 169.573926 123.812774 
L 169.662244 119.943318 
L 169.750563 87.655478 
L 170.015518 137.521852 
L 170.103836 137.485792 
L 170.192155 117.90652 
L 170.280473 124.069891 
L 170.368791 91.411036 
L 170.45711 138.218999 
L 170.545428 104.718098 
L 170.633746 108.942209 
L 170.722065 91.864807 
L 170.810383 129.239074 
L 170.898701 87.884345 
L 171.075338 162.564413 
L 171.163656 129.356912 
L 171.251975 159.76631 
L 171.428611 38.77479 
L 171.51693 119.980403 
L 171.605248 117.140226 
L 171.693566 106.790951 
L 171.781885 137.199765 
L 171.870203 122.646953 
L 171.958521 133.121392 
L 172.04684 127.456184 
L 172.400113 144.903177 
L 172.488431 113.678168 
L 172.665068 137.409977 
L 172.841705 107.040342 
L 172.930023 101.68632 
L 173.10666 152.277921 
L 173.459933 82.391647 
L 173.548252 155.214603 
L 173.63657 68.48002 
L 173.813207 155.152663 
L 173.989843 122.810231 
L 174.078162 150.564799 
L 174.16648 95.105747 
L 174.254798 138.886579 
L 174.343117 105.004449 
L 174.431435 130.135178 
L 174.519753 104.195489 
L 174.608072 113.363675 
L 174.69639 94.573294 
L 174.784708 145.758176 
L 175.049663 113.319461 
L 175.137982 120.680847 
L 175.2263 96.2425 
L 175.402937 109.059566 
L 175.491255 103.613445 
L 175.667892 141.138216 
L 175.75621 102.912774 
L 175.844528 143.841049 
L 175.932847 135.451531 
L 176.021165 133.293918 
L 176.109484 134.355227 
L 176.197802 98.008615 
L 176.28612 113.393338 
L 176.374439 177.158615 
L 176.551075 99.364236 
L 176.727712 164.137133 
L 176.81603 126.109462 
L 176.904349 130.653115 
L 177.080985 79.593428 
L 177.257622 167.626229 
L 177.34594 113.1556 
L 177.434259 146.582664 
L 177.699214 96.120212 
L 177.787532 160.669641 
L 177.87585 40.001906 
L 177.964169 134.195036 
L 178.052487 123.541661 
L 178.140805 63.957129 
L 178.229124 150.811263 
L 178.317442 74.746193 
L 178.40576 93.418767 
L 178.582397 150.657573 
L 178.759034 111.650582 
L 178.847352 116.852558 
L 178.935671 89.510703 
L 179.023989 120.013951 
L 179.112307 111.623454 
L 179.200626 113.748736 
L 179.288944 155.964125 
L 179.377262 105.175989 
L 179.465581 130.599721 
L 179.553899 83.630293 
L 179.642217 133.65211 
L 179.730536 99.439714 
L 179.818854 100.985098 
L 179.907172 82.303016 
L 180.083809 133.037125 
L 180.172127 94.59073 
L 180.260446 104.780733 
L 180.348764 163.130446 
L 180.525401 107.064794 
L 180.702037 151.987912 
L 180.790356 84.309873 
L 180.878674 117.764749 
L 180.966992 113.23231 
L 181.055311 89.20798 
L 181.143629 122.550794 
L 181.231947 84.113144 
L 181.408584 133.253682 
L 181.496902 100.833365 
L 181.585221 104.533038 
L 181.673539 109.165247 
L 181.761858 133.351755 
L 181.850176 122.267649 
L 181.938494 167.962661 
L 182.026813 125.056978 
L 182.115131 140.32409 
L 182.203449 93.764034 
L 182.291768 106.615977 
L 182.380086 148.416798 
L 182.468404 106.537411 
L 182.645041 151.267768 
L 182.821678 104.539134 
L 182.909996 103.100107 
L 183.086633 131.898644 
L 183.263269 104.016049 
L 183.351588 96.72162 
L 183.528224 149.811379 
L 183.616543 157.147247 
L 183.793179 100.247678 
L 183.881498 97.480654 
L 183.969816 86.333555 
L 184.058134 119.376208 
L 184.146453 117.421866 
L 184.234771 142.656262 
L 184.323089 126.840995 
L 184.411408 85.451613 
L 184.499726 148.069181 
L 184.588044 43.240917 
L 184.764681 165.830709 
L 184.853 78.572741 
L 185.029636 148.285722 
L 185.38291 107.518797 
L 185.471228 154.903245 
L 185.559546 108.12191 
L 185.647865 139.350176 
L 185.736183 132.875572 
L 185.824501 137.308987 
L 186.001138 111.255355 
L 186.089456 135.999428 
L 186.266093 93.918298 
L 186.354411 94.655571 
L 186.44273 124.712223 
L 186.531048 117.507754 
L 186.619366 89.543908 
L 186.707685 89.860214 
L 186.796003 142.100937 
L 187.060958 114.71568 
L 187.149276 121.907268 
L 187.237595 98.456121 
L 187.325913 143.510163 
L 187.414231 133.94941 
L 187.50255 144.644282 
L 187.590868 107.707206 
L 187.679187 126.816871 
L 187.767505 87.684348 
L 188.03246 157.094043 
L 188.120778 131.057788 
L 188.209097 146.321701 
L 188.297415 131.538197 
L 188.385733 56.298947 
L 188.474052 126.376426 
L 188.650688 100.153912 
L 188.827325 164.182452 
L 189.003962 73.997508 
L 189.180598 120.406917 
L 189.268917 146.542918 
L 189.357235 111.912907 
L 189.533872 150.072891 
L 189.62219 120.173173 
L 189.710508 140.687417 
L 189.887145 66.772965 
L 190.063782 119.736682 
L 190.1521 119.919072 
L 190.240418 115.978442 
L 190.328737 106.577404 
L 190.417055 121.039783 
L 190.505374 155.644939 
L 190.593692 115.280248 
L 190.68201 152.259169 
L 190.770329 116.248886 
L 190.858647 153.115111 
L 191.300239 85.163637 
L 191.388557 87.29241 
L 191.476875 156.365325 
L 191.565194 143.549741 
L 191.653512 103.394114 
L 191.74183 125.998237 
L 191.918467 103.867755 
L 192.006785 132.378298 
L 192.095104 85.808669 
L 192.183422 94.450407 
L 192.27174 94.671873 
L 192.448377 142.615652 
L 192.625014 100.045174 
L 192.713332 100.715846 
L 192.80165 161.141288 
L 192.978287 107.374364 
L 193.066605 117.034587 
L 193.154924 114.905775 
L 193.243242 106.558127 
L 193.331561 133.626572 
L 193.419879 99.133085 
L 193.508197 141.848874 
L 193.596516 89.943044 
L 193.684834 128.168817 
L 193.773152 102.178666 
L 193.861471 146.079196 
L 194.038107 104.294934 
L 194.126426 125.603809 
L 194.214744 117.352226 
L 194.303062 93.999148 
L 194.391381 121.250499 
L 194.479699 99.242971 
L 194.744654 155.068302 
L 194.832972 103.116105 
L 195.009609 140.570884 
L 195.097927 118.049282 
L 195.186246 125.288352 
L 195.274564 110.08772 
L 195.362882 141.452148 
L 195.539519 100.516911 
L 195.627837 119.18378 
L 195.716156 79.356892 
L 195.981111 177.653192 
L 196.069429 118.970353 
L 196.157748 148.875154 
L 196.246066 76.437434 
L 196.422703 154.58409 
L 196.511021 102.742267 
L 196.599339 114.129355 
L 196.775976 150.911183 
L 196.952613 98.200012 
L 197.040931 111.060427 
L 197.129249 128.208238 
L 197.217568 120.148247 
L 197.305886 159.326785 
L 197.394204 106.158302 
L 197.482523 146.913349 
L 197.570841 80.190258 
L 197.659159 149.746143 
L 197.747478 109.233246 
L 197.835796 114.576038 
L 197.924114 80.478528 
L 198.012433 83.548143 
L 198.100751 154.535002 
L 198.189069 133.753502 
L 198.365706 153.993095 
L 198.454024 142.878386 
L 198.542343 145.901933 
L 198.630661 85.271213 
L 198.895616 148.378893 
L 199.072253 55.488373 
L 199.160571 140.692906 
L 199.513845 52.037747 
L 199.602163 148.884752 
L 199.690481 137.433688 
L 199.7788 109.570814 
L 199.955436 145.821004 
L 200.043755 91.042118 
L 200.132073 108.407859 
L 200.220391 89.757034 
L 200.397028 135.439634 
L 200.485346 111.529206 
L 200.573665 131.012649 
L 200.661983 104.409755 
L 200.750301 162.432378 
L 200.926938 122.426391 
L 201.015256 118.210047 
L 201.103575 118.484046 
L 201.280211 154.874093 
L 201.36853 137.88317 
L 201.456848 157.300375 
L 201.545166 90.705922 
L 201.633485 101.748555 
L 201.810121 129.107004 
L 201.89844 111.474827 
L 201.986758 130.483493 
L 202.075077 92.890213 
L 202.163395 151.350424 
L 202.251713 140.943684 
L 202.340032 110.847492 
L 202.42835 124.829487 
L 202.516668 119.393731 
L 202.693305 139.889313 
L 202.781623 43.652276 
L 202.95826 112.032531 
L 203.046578 141.821748 
L 203.134897 124.349881 
L 203.223215 135.881496 
L 203.399852 122.27475 
L 203.48817 102.313293 
L 203.664807 149.11451 
L 203.841443 94.982786 
L 203.929762 107.448406 
L 204.01808 71.998591 
L 204.106398 113.640193 
L 204.194717 83.37989 
L 204.371353 144.671781 
L 204.459672 120.402757 
L 204.54799 155.267704 
L 204.724627 120.115549 
L 204.812945 118.748216 
L 204.901264 93.942511 
L 204.989582 99.910412 
L 205.0779 140.989584 
L 205.166219 136.320619 
L 205.342855 82.401659 
L 205.431174 133.622704 
L 205.519492 133.319346 
L 205.60781 116.736734 
L 205.696129 160.100772 
L 205.784447 117.477867 
L 205.872765 138.970223 
L 206.049402 125.803001 
L 206.13772 119.363566 
L 206.314357 87.020048 
L 206.402675 113.123806 
L 206.490994 91.154466 
L 206.66763 141.56459 
L 206.844267 119.296312 
L 206.932585 149.617993 
L 207.020904 102.989347 
L 207.285859 159.221005 
L 207.374177 142.768346 
L 207.462495 149.749721 
L 207.639132 80.165632 
L 207.727451 116.301283 
L 207.815769 104.331452 
L 207.992406 175.802533 
L 208.080724 95.390463 
L 208.169042 108.079151 
L 208.433997 139.965452 
L 208.522316 141.648186 
L 208.610634 115.622688 
L 208.698952 138.157585 
L 208.787271 132.941211 
L 208.875589 117.926871 
L 208.963907 150.272234 
L 209.052226 125.403015 
L 209.140544 136.336407 
L 209.228862 131.190368 
L 209.405499 96.138667 
L 209.493817 100.279753 
L 209.582136 97.963189 
L 209.758772 136.427734 
L 209.847091 112.761345 
L 209.935409 113.527782 
L 210.023727 95.426761 
L 210.112046 106.914126 
L 210.200364 90.860667 
L 210.377001 116.137111 
L 210.465319 99.856652 
L 210.641956 125.466717 
L 210.730274 60.545335 
L 210.818593 130.289765 
L 210.906911 84.231042 
L 210.995229 129.662713 
L 211.083548 113.931853 
L 211.171866 125.789307 
L 211.260184 121.728102 
L 211.348503 67.566436 
L 211.436821 129.577843 
L 211.525139 105.856191 
L 211.613458 113.290398 
L 211.701776 88.352824 
L 211.878413 151.172487 
L 212.055049 131.884437 
L 212.143368 93.554781 
L 212.231686 143.648356 
L 212.408323 58.891141 
L 212.496641 156.635941 
L 212.584959 83.430649 
L 212.761596 159.502852 
L 212.938233 124.52803 
L 213.026551 129.177452 
L 213.114869 87.685846 
L 213.203188 120.133256 
L 213.291506 113.820447 
L 213.379824 78.967628 
L 213.556461 163.327625 
L 213.64478 113.702442 
L 213.733098 119.544196 
L 213.821416 122.445796 
L 213.909735 112.205767 
L 214.086371 154.413522 
L 214.17469 124.920161 
L 214.263008 131.49217 
L 214.439645 74.993436 
L 214.616281 102.668333 
L 214.7046 95.677294 
L 214.792918 121.992661 
L 214.881236 101.451233 
L 214.969555 105.978858 
L 215.057873 125.980134 
L 215.146191 95.803993 
L 215.411146 187.154714 
L 215.587783 72.997122 
L 215.676101 136.571896 
L 215.76442 129.36941 
L 215.941056 137.900542 
L 216.029375 162.161686 
L 216.117693 100.474575 
L 216.206011 138.219668 
L 216.29433 111.331043 
L 216.382648 132.267363 
L 216.470967 115.486459 
L 216.559285 125.073334 
L 216.647603 197.212577 
L 216.735922 72.680531 
L 216.82424 104.132508 
L 217.000877 142.153596 
L 217.089195 108.19748 
L 217.177513 135.763817 
L 217.265832 105.627911 
L 217.35415 157.288467 
L 217.442468 110.676405 
L 217.530787 134.526835 
L 217.619105 114.447117 
L 217.707423 161.714787 
L 217.88406 106.978493 
L 217.972378 110.582935 
L 218.060697 134.999102 
L 218.149015 126.150688 
L 218.237333 105.989523 
L 218.325652 143.685732 
L 218.502288 99.246416 
L 218.590607 124.349205 
L 218.678925 106.364712 
L 218.855562 175.750129 
L 219.032198 118.838029 
L 219.120517 152.847717 
L 219.297154 82.127113 
L 219.385472 115.133685 
L 219.562109 92.156086 
L 219.650427 105.712956 
L 219.827064 150.002837 
L 219.915382 101.846552 
L 220.092019 135.594867 
L 220.180337 60.668016 
L 220.268655 134.231048 
L 220.356974 92.192087 
L 220.621929 142.270826 
L 220.710247 121.123075 
L 220.886884 155.13407 
L 221.06352 111.320174 
L 221.328475 142.799457 
L 221.416794 92.10908 
L 221.505112 105.728948 
L 221.59343 82.544135 
L 221.858385 105.60478 
L 221.946704 128.984889 
L 222.035022 109.466292 
L 222.211659 148.282671 
L 222.299977 105.358125 
L 222.476614 127.973338 
L 222.564932 87.906112 
L 222.653251 160.225694 
L 222.741569 71.84081 
L 223.006524 172.865698 
L 223.094842 99.074982 
L 223.183161 141.723436 
L 223.271479 98.782074 
L 223.359797 139.093964 
L 223.448116 129.413152 
L 223.624752 116.388862 
L 223.713071 135.744739 
L 223.801389 87.396507 
L 223.889707 139.758741 
L 223.978026 133.589735 
L 224.066344 66.363911 
L 224.331299 109.188491 
L 224.507936 81.873102 
L 224.684572 113.806806 
L 224.772891 79.363848 
L 224.949527 150.431527 
L 225.037846 99.215498 
L 225.126164 120.725043 
L 225.214483 86.757082 
L 225.391119 165.925389 
L 225.479438 96.048238 
L 225.567756 120.75121 
L 225.744393 91.803772 
L 225.921029 123.627197 
L 226.009348 132.768616 
L 226.097666 86.612242 
L 226.274303 150.395705 
L 226.539258 81.983705 
L 226.715894 149.258223 
L 226.804213 111.336854 
L 226.892531 133.556453 
L 226.980849 126.255576 
L 227.069168 143.097892 
L 227.157486 105.003712 
L 227.245804 132.012472 
L 227.334123 131.370147 
L 227.422441 114.051255 
L 227.510759 115.856377 
L 227.599078 120.851812 
L 227.687396 141.421813 
L 227.775714 140.48046 
L 227.864033 107.289342 
L 228.04067 156.73655 
L 228.128988 145.500687 
L 228.217306 86.7301 
L 228.305625 117.898967 
L 228.482261 92.385322 
L 228.57058 113.464272 
L 228.658898 92.483484 
L 228.747216 123.949005 
L 228.835535 115.882244 
L 228.923853 91.789833 
L 229.012171 128.695981 
L 229.10049 112.881063 
L 229.188808 137.645498 
L 229.365445 92.329835 
L 229.453763 95.263884 
L 229.542081 110.840912 
L 229.6304 106.376771 
L 229.718718 148.728806 
L 229.895355 136.252561 
L 229.983673 160.679066 
L 230.071991 103.355341 
L 230.16031 132.828302 
L 230.248628 121.783137 
L 230.336946 79.908389 
L 230.425265 140.875526 
L 230.601901 89.598885 
L 230.778538 128.436421 
L 230.866857 125.524369 
L 231.043493 91.725421 
L 231.131812 148.592701 
L 231.308448 73.035385 
L 231.485085 160.643407 
L 231.573403 126.802066 
L 231.661722 121.798567 
L 231.75004 181.315697 
L 231.838358 113.390965 
L 231.926677 115.785958 
L 232.014995 122.348515 
L 232.103313 179.539517 
L 232.191632 82.044018 
L 232.27995 117.091148 
L 232.368268 108.235425 
L 232.456587 116.873103 
L 232.544905 106.616862 
L 232.633223 144.618508 
L 232.80986 75.342855 
L 233.074815 133.31733 
L 233.163133 116.934124 
L 233.251452 136.955491 
L 233.33977 129.695767 
L 233.428088 74.895196 
L 233.693044 131.283075 
L 233.86968 111.387022 
L 233.957999 136.101263 
L 234.046317 128.116146 
L 234.222954 149.89519 
L 234.311272 92.083677 
L 234.39959 131.970366 
L 234.487909 88.517193 
L 234.576227 98.298567 
L 234.664545 131.365174 
L 234.841182 118.889962 
L 234.9295 150.120717 
L 235.017819 80.142596 
L 235.194455 163.30222 
L 235.282774 126.66847 
L 235.371092 160.688152 
L 235.45941 76.550876 
L 235.547729 78.645471 
L 235.812684 161.306272 
L 235.901002 113.618348 
L 236.077639 167.062112 
L 236.165957 87.996054 
L 236.342594 158.111046 
L 236.430912 110.092274 
L 236.51923 120.890239 
L 236.607549 112.440379 
L 236.784186 129.037851 
L 236.872504 72.785111 
L 237.225777 143.608763 
L 237.314096 132.396169 
L 237.490732 91.640433 
L 237.755687 123.321725 
L 237.844006 106.4567 
L 237.932324 124.881841 
L 238.020642 119.437333 
L 238.108961 129.10209 
L 238.285597 70.220331 
L 238.373916 132.07049 
L 238.462234 94.864351 
L 238.550552 100.337645 
L 238.638871 111.711905 
L 238.727189 141.995008 
L 238.815507 140.600607 
L 238.903826 118.017326 
L 238.992144 123.109632 
L 239.080462 165.888417 
L 239.257099 57.838377 
L 239.345417 118.466667 
L 239.433736 76.637217 
L 239.522054 169.065957 
L 239.787009 85.739859 
L 239.963646 137.028052 
L 240.051964 104.186987 
L 240.140283 121.224595 
L 240.228601 101.815755 
L 240.316919 104.761608 
L 240.405238 140.939054 
L 240.493556 94.156376 
L 240.670193 127.742218 
L 240.758511 88.389538 
L 240.846829 104.555492 
L 240.935148 144.268117 
L 241.111784 74.283151 
L 241.200103 132.289626 
L 241.376739 86.053102 
L 241.465058 98.175556 
L 241.553376 151.605656 
L 241.730013 85.533884 
L 241.818331 109.422583 
L 241.906649 117.676349 
L 241.994968 186.366633 
L 242.083286 81.725813 
L 242.171604 92.087906 
L 242.259923 144.903377 
L 242.348241 87.105217 
L 242.524878 144.089098 
L 242.613196 134.973176 
L 242.701515 98.894416 
L 242.878151 152.634994 
L 242.96647 106.437118 
L 243.054788 173.781416 
L 243.319743 85.618775 
L 243.408061 141.012927 
L 243.49638 121.218952 
L 243.584698 131.143716 
L 243.673016 97.958428 
L 243.849653 122.935358 
L 243.937971 101.030188 
L 244.02629 132.15228 
L 244.202926 110.238558 
L 244.291245 116.69411 
L 244.379563 103.692752 
L 244.5562 138.225701 
L 244.644518 128.723777 
L 244.732836 98.677807 
L 244.821155 136.652265 
L 244.997791 93.610123 
L 245.174428 115.133492 
L 245.262747 108.404675 
L 245.351065 125.773966 
L 245.439383 96.142052 
L 245.527702 144.75336 
L 245.704338 95.941028 
L 245.792657 98.205742 
L 245.880975 118.184716 
L 245.969293 98.068534 
L 246.057612 148.741786 
L 246.234248 99.898029 
L 246.322567 99.188458 
L 246.410885 146.365032 
L 246.499203 81.935441 
L 246.67584 145.524758 
L 246.764158 153.50219 
L 246.940795 107.694244 
L 247.029113 145.983558 
L 247.20575 96.4543 
L 247.294068 157.970658 
L 247.470705 103.010026 
L 247.559023 120.281765 
L 247.647342 110.078965 
L 247.73566 154.939614 
L 247.823978 115.553612 
L 248.000615 134.634295 
L 248.088933 98.423209 
L 248.177252 141.353567 
L 248.26557 139.013957 
L 248.353889 89.689691 
L 248.618844 132.042423 
L 248.707162 102.180872 
L 248.883799 129.637229 
L 248.972117 104.136382 
L 249.060435 121.6232 
L 249.148754 95.587452 
L 249.237072 99.281509 
L 249.32539 132.757082 
L 249.413709 126.442124 
L 249.502027 101.788038 
L 249.590345 115.651884 
L 249.678664 96.86526 
L 249.766982 148.673133 
L 249.8553 87.82664 
L 249.943619 133.112929 
L 250.031937 72.438182 
L 250.208574 125.621713 
L 250.296892 123.763015 
L 250.38521 104.403402 
L 250.561847 124.664116 
L 250.650165 103.23825 
L 250.738484 112.688474 
L 250.826802 92.733918 
L 250.91512 110.110763 
L 251.003439 165.678349 
L 251.268394 63.883656 
L 251.356712 159.530719 
L 251.445031 107.329198 
L 251.533349 118.09491 
L 251.621667 103.394905 
L 251.798304 131.722505 
L 251.886622 123.805467 
L 252.063259 142.169447 
L 252.151577 111.635599 
L 252.328214 136.797968 
L 252.416532 113.300546 
L 252.593169 142.415016 
L 252.681487 94.544628 
L 252.769806 158.147618 
L 253.034761 100.349311 
L 253.123079 126.863393 
L 253.211397 99.638656 
L 253.476352 131.083151 
L 253.564671 124.230217 
L 253.652989 127.527086 
L 253.741307 100.729269 
L 253.829626 160.433287 
L 254.006263 108.842821 
L 254.094581 140.344986 
L 254.182899 92.26651 
L 254.271218 98.089387 
L 254.447854 135.822602 
L 254.536173 131.646913 
L 254.624491 93.016135 
L 254.712809 170.009191 
L 254.801128 89.074763 
L 254.889446 161.122617 
L 254.977764 98.644036 
L 255.154401 127.942415 
L 255.331038 106.161584 
L 255.419356 137.270052 
L 255.507674 88.4502 
L 255.595993 154.714147 
L 255.772629 78.362464 
L 255.860948 147.620709 
L 255.949266 130.195408 
L 256.037584 105.515714 
L 256.125903 115.902401 
L 256.302539 97.405868 
L 256.479176 169.666032 
L 256.655813 92.751439 
L 256.744131 95.560737 
L 256.920768 179.606858 
L 257.097405 93.860226 
L 257.274041 121.518688 
L 257.36236 127.79458 
L 257.450678 147.711499 
L 257.538996 88.473332 
L 257.627315 159.034089 
L 257.715633 120.430134 
L 257.89227 156.247293 
L 258.068906 84.266248 
L 258.157225 91.5507 
L 258.245543 80.720507 
L 258.333861 137.801205 
L 258.42218 68.940298 
L 258.598816 123.095486 
L 258.687135 125.840321 
L 258.775453 124.573219 
L 259.128726 92.348488 
L 259.217045 123.884495 
L 259.305363 114.027595 
L 259.393681 158.349476 
L 259.570318 85.24847 
L 259.658636 134.128435 
L 259.835273 94.118353 
L 259.923592 103.055674 
L 260.100228 182.184514 
L 260.188547 105.762234 
L 260.276865 108.982546 
L 260.365183 153.98126 
L 260.453502 115.412765 
L 260.54182 123.840136 
L 260.630138 160.721712 
L 260.718457 114.450301 
L 260.806775 120.92345 
L 260.983412 102.190499 
L 261.07173 103.801386 
L 261.248367 144.409034 
L 261.336685 102.144853 
L 261.425003 143.221093 
L 261.513322 103.70891 
L 261.60164 111.652274 
L 261.689958 141.181742 
L 261.778277 134.851098 
L 261.866595 74.481626 
L 262.043232 139.165238 
L 262.13155 120.284367 
L 262.308187 168.836417 
L 262.396505 113.041614 
L 262.484823 148.304715 
L 262.66146 116.792098 
L 262.749779 123.031484 
L 262.838097 142.380387 
L 263.014734 81.502991 
L 263.103052 88.304744 
L 263.19137 54.969239 
L 263.279689 149.209335 
L 263.456325 93.753076 
L 263.544644 174.307292 
L 263.72128 114.267306 
L 263.897917 91.235333 
L 263.986235 93.830793 
L 264.074554 121.175896 
L 264.162872 183.852633 
L 264.339509 108.20621 
L 264.427827 140.747787 
L 264.516145 126.047648 
L 264.604464 76.542689 
L 264.692782 126.170515 
L 264.7811 85.562884 
L 264.869419 103.443462 
L 264.957737 75.673639 
L 265.046055 156.488666 
L 265.134374 113.615774 
L 265.31101 138.295514 
L 265.399329 97.378343 
L 265.575966 132.381722 
L 265.664284 110.091527 
L 265.752602 149.524655 
L 265.929239 104.74229 
L 266.017557 105.409712 
L 266.194194 135.340909 
L 266.282512 107.064345 
L 266.547467 142.303836 
L 266.635786 99.270347 
L 266.724104 140.406647 
L 266.812422 137.592282 
L 266.900741 101.034209 
L 267.077377 145.176481 
L 267.254014 84.174262 
L 267.342332 135.758727 
L 267.607287 69.972015 
L 267.695606 110.284247 
L 267.783924 79.042615 
L 267.872242 130.503221 
L 267.960561 91.880088 
L 268.137197 150.310203 
L 268.225516 84.662605 
L 268.402153 137.578334 
L 268.490471 107.240504 
L 268.667108 156.939391 
L 268.755426 144.77841 
L 268.843744 110.08551 
L 268.932063 123.438725 
L 269.020381 81.43804 
L 269.197018 127.559021 
L 269.285336 116.757731 
L 269.461973 83.34452 
L 269.638609 124.984756 
L 269.726928 119.223804 
L 269.903564 140.949668 
L 270.168519 106.03459 
L 270.256838 98.135406 
L 270.521793 186.210713 
L 270.698429 84.688646 
L 270.786748 91.632639 
L 270.875066 148.005788 
L 270.963384 97.185144 
L 271.051703 117.169157 
L 271.140021 95.301451 
L 271.228339 96.797009 
L 271.404976 81.806004 
L 271.581613 114.25277 
L 271.75825 109.517 
L 271.846568 118.744006 
L 271.934886 116.87294 
L 272.111523 128.50924 
L 272.28816 131.562404 
L 272.376478 109.173408 
L 272.553115 143.511155 
L 272.641433 110.061577 
L 272.906388 185.871756 
L 273.083025 126.269301 
L 273.171343 94.663381 
L 273.259661 141.305813 
L 273.34798 91.953846 
L 273.436298 112.130023 
L 273.524616 109.585245 
L 273.612935 72.561951 
L 273.87789 128.32021 
L 273.966208 112.126934 
L 274.054526 171.408278 
L 274.231163 128.733228 
L 274.319482 111.638025 
L 274.4078 134.526033 
L 274.496118 133.936821 
L 274.584437 145.459336 
L 274.761073 73.814953 
L 274.849392 103.18991 
L 274.93771 97.127686 
L 275.026028 105.953252 
L 275.114347 129.086766 
L 275.202665 122.942789 
L 275.290983 128.436064 
L 275.46762 99.131361 
L 275.555938 121.02749 
L 275.644257 76.943122 
L 275.909212 158.672554 
L 275.99753 100.88544 
L 276.085848 108.519165 
L 276.174167 105.412392 
L 276.350803 129.43745 
L 276.439122 114.099128 
L 276.52744 132.432757 
L 276.615758 58.408118 
L 276.792395 118.923526 
L 276.969032 91.466201 
L 277.145669 146.072757 
L 277.233987 124.711919 
L 277.322305 121.719401 
L 277.410624 112.789476 
L 277.498942 124.849792 
L 277.58726 123.434625 
L 277.675579 98.977128 
L 277.852215 186.600194 
L 277.940534 86.782296 
L 278.028852 136.829857 
L 278.11717 125.66735 
L 278.293807 147.813534 
L 278.382125 106.917694 
L 278.470444 121.55712 
L 278.558762 38.212082 
L 278.64708 141.819744 
L 278.735399 100.103022 
L 279.000354 134.846343 
L 279.088672 132.661475 
L 279.265309 111.879536 
L 279.353627 109.952112 
L 279.441945 77.502819 
L 279.618582 125.25259 
L 279.7069 157.086739 
L 279.795219 146.109711 
L 279.883537 121.086042 
L 279.971856 131.601591 
L 280.148492 80.65153 
L 280.325129 163.559747 
L 280.413447 114.156766 
L 280.501766 135.49237 
L 280.678402 122.111781 
L 280.766721 75.60645 
L 280.855039 87.433147 
L 280.943357 115.805502 
L 281.031676 108.952674 
L 281.208312 89.287441 
L 281.296631 158.229658 
L 281.473267 125.135941 
L 281.561586 131.915191 
L 281.649904 117.972281 
L 281.738222 152.90437 
L 281.826541 97.22233 
L 281.914859 107.983044 
L 282.091496 148.657644 
L 282.179814 145.227242 
L 282.356451 97.91205 
L 282.444769 111.528534 
L 282.533087 126.876736 
L 282.709724 106.364575 
L 282.798043 115.467789 
L 283.062998 93.212465 
L 283.151316 167.408809 
L 283.239634 100.657426 
L 283.327953 110.508123 
L 283.416271 151.419098 
L 283.592908 111.680553 
L 283.769544 140.396204 
L 283.857863 94.911146 
L 283.946181 103.768041 
L 284.034499 106.748345 
L 284.122818 92.802597 
L 284.211136 131.629334 
L 284.476091 82.008247 
L 284.652728 174.114671 
L 284.829364 110.262647 
L 285.006001 154.453932 
L 285.094319 103.383205 
L 285.182638 157.239949 
L 285.270956 94.742393 
L 285.359274 137.150771 
L 285.447593 97.053533 
L 285.535911 103.995986 
L 285.624229 146.739208 
L 285.889185 112.368491 
L 285.977503 121.407242 
L 286.065821 106.084263 
L 286.242458 132.889551 
L 286.330776 117.118055 
L 286.595731 170.801609 
L 286.68405 107.382215 
L 286.772368 114.639719 
L 286.860686 116.067575 
L 286.949005 158.417233 
L 287.037323 109.379073 
L 287.125641 155.327103 
L 287.390596 96.121272 
L 287.567233 117.664444 
L 287.655551 155.240189 
L 287.832188 117.458335 
L 287.920506 157.89251 
L 288.008825 56.611072 
L 288.097143 139.200959 
L 288.185461 108.575255 
L 288.27378 135.000917 
L 288.362098 131.240005 
L 288.538735 92.13075 
L 288.627053 138.864369 
L 288.715372 80.288955 
L 288.80369 125.220789 
L 288.892008 102.079676 
L 288.980327 113.161909 
L 289.068645 76.073507 
L 289.3336 125.619853 
L 289.510237 102.061124 
L 289.686873 118.713374 
L 289.775192 89.777537 
L 289.86351 97.650835 
L 290.040147 141.19607 
L 290.128465 106.016821 
L 290.305102 141.026221 
L 290.39342 123.17825 
L 290.481738 159.76013 
L 290.570057 57.939317 
L 290.658375 120.68349 
L 290.746693 85.377053 
L 290.835012 95.13564 
L 290.92333 136.510987 
L 291.011648 107.599286 
L 291.099967 151.93462 
L 291.276603 108.750947 
L 291.364922 128.932818 
L 291.45324 92.483275 
L 291.541559 144.544216 
L 291.718195 120.566137 
L 291.806514 112.289419 
L 291.894832 68.276382 
L 291.98315 115.517588 
L 292.071469 104.291837 
L 292.159787 136.4399 
L 292.248105 113.94585 
L 292.424742 131.419223 
L 292.51306 103.32002 
L 292.601379 135.855456 
L 292.689697 103.762959 
L 292.866334 150.445096 
L 292.954652 145.429615 
L 293.04297 136.939082 
L 293.131289 92.657112 
L 293.219607 94.197885 
L 293.307925 144.664194 
L 293.396244 87.076949 
L 293.484562 93.153988 
L 293.57288 138.270322 
L 293.661199 119.145251 
L 293.749517 130.275188 
L 293.837835 55.289848 
L 294.014472 102.14957 
L 294.10279 118.421253 
L 294.191109 117.251268 
L 294.367746 108.619575 
L 294.456064 127.880503 
L 294.544382 120.554962 
L 294.632701 98.686208 
L 294.721019 116.08166 
L 294.809337 110.557273 
L 294.985974 80.642426 
L 295.074292 138.366839 
L 295.162611 115.546331 
L 295.250929 147.235955 
L 295.339247 144.818097 
L 295.427566 164.575249 
L 295.604202 114.717698 
L 295.692521 86.147928 
L 295.957476 152.967317 
L 296.045794 113.945956 
L 296.222431 135.171067 
L 296.310749 111.427396 
L 296.575704 131.05029 
L 296.664022 168.397236 
L 296.928977 98.755335 
L 297.017296 108.435019 
L 297.105614 169.057064 
L 297.193932 137.673646 
L 297.282251 60.465453 
L 297.458888 158.966766 
L 297.547206 152.116359 
L 297.635524 126.401666 
L 297.723843 131.048165 
L 297.812161 135.752738 
L 297.988798 98.377211 
L 298.077116 141.877251 
L 298.253753 102.065281 
L 298.342071 134.116944 
L 298.430389 91.856555 
L 298.695344 154.11037 
L 298.783663 135.950637 
L 299.048618 161.584934 
L 299.313573 89.384052 
L 299.401891 142.418722 
L 299.490209 125.718973 
L 299.578528 154.741648 
L 299.666846 115.302542 
L 299.755164 121.155029 
L 299.843483 112.18545 
L 299.931801 151.720294 
L 300.020119 106.865331 
L 300.196756 140.851152 
L 300.285075 135.376431 
L 300.55003 118.714753 
L 300.638348 150.289668 
L 300.726666 87.645583 
L 300.903303 157.419512 
L 300.991621 110.833898 
L 301.07994 132.773446 
L 301.256576 71.557888 
L 301.433213 140.220894 
L 301.521531 100.429662 
L 301.60985 146.454964 
L 301.698168 96.295902 
L 301.786486 153.84354 
L 301.874805 77.722648 
L 301.963123 171.774165 
L 302.051441 147.872074 
L 302.13976 83.913229 
L 302.316396 153.653865 
L 302.493033 97.2842 
L 302.66967 146.001618 
L 302.757988 85.255239 
L 302.846306 168.187907 
L 302.934625 93.831621 
L 303.111262 166.352419 
L 303.376217 114.322282 
L 303.552853 129.56715 
L 303.641172 129.248431 
L 303.906127 108.794394 
L 303.994445 169.61491 
L 304.171082 103.889138 
L 304.2594 137.991959 
L 304.347718 85.028084 
L 304.524355 156.933438 
L 304.700992 106.156848 
L 304.78931 133.731806 
L 304.877628 77.041274 
L 304.965947 124.564931 
L 305.054265 67.832458 
L 305.142583 123.132081 
L 305.230902 120.65968 
L 305.407538 82.111703 
L 305.495857 118.881291 
L 305.584175 116.39304 
L 305.672493 59.019105 
L 305.84913 125.76981 
L 305.937449 93.550833 
L 306.114085 157.180369 
L 306.290722 107.004434 
L 306.467359 144.702915 
L 306.555677 76.673877 
L 306.643995 148.246129 
L 306.732314 102.464866 
L 306.820632 133.866409 
L 306.997269 97.266128 
L 307.085587 163.811488 
L 307.262224 75.907635 
L 307.350542 172.910282 
L 307.43886 107.671248 
L 307.527179 137.92189 
L 307.615497 111.027411 
L 307.703815 113.858545 
L 307.792134 115.52336 
L 307.880452 121.547125 
L 307.96877 105.352875 
L 308.057089 106.594527 
L 308.145407 126.562638 
L 308.322044 105.522517 
L 308.410362 128.762683 
L 308.49868 64.886701 
L 308.763635 152.827627 
L 308.851954 105.459929 
L 308.940272 153.89138 
L 309.116909 124.555391 
L 309.205227 153.836986 
L 309.293546 99.722799 
L 309.381864 103.973375 
L 309.470182 81.97958 
L 309.735137 177.200048 
L 309.911774 91.022498 
L 310.000092 122.23216 
L 310.088411 115.549856 
L 310.176729 96.470029 
L 310.265047 145.516176 
L 310.441684 87.075973 
L 310.530002 120.83039 
L 310.618321 114.329167 
L 310.706639 129.235161 
L 310.794957 128.588569 
L 310.883276 129.646489 
L 310.971594 122.434184 
L 311.059912 132.366468 
L 311.148231 110.4514 
L 311.236549 111.708614 
L 311.501504 83.530677 
L 311.678141 151.592919 
L 311.766459 116.652714 
L 311.854778 144.534279 
L 311.943096 44.208469 
L 312.119733 134.097755 
L 312.208051 131.132337 
L 312.296369 133.902096 
L 312.384688 169.159461 
L 312.561324 111.321935 
L 312.649643 88.191893 
L 312.826279 143.341457 
L 312.914598 87.208589 
L 313.091234 139.698541 
L 313.267871 81.177112 
L 313.356189 156.034233 
L 313.444508 156.006036 
L 313.709463 104.693868 
L 313.797781 101.512952 
L 313.886099 83.88154 
L 314.062736 148.381498 
L 314.151054 136.317321 
L 314.239373 145.380135 
L 314.327691 139.726936 
L 314.416009 143.767842 
L 314.504328 74.588933 
L 314.680965 145.077732 
L 314.769283 93.207433 
L 314.94592 124.14907 
L 315.034238 187.03478 
L 315.210875 121.557462 
L 315.299193 156.133934 
L 315.387511 142.558721 
L 315.47583 184.338006 
L 315.564148 112.33102 
L 315.652466 124.253219 
L 315.740785 190.246448 
L 315.917421 133.417747 
L 316.00574 119.189994 
L 316.094058 132.523422 
L 316.182376 105.462255 
L 316.359013 127.181916 
L 316.447331 93.37525 
L 316.53565 104.744548 
L 316.623968 94.674266 
L 316.712286 127.708276 
L 316.800605 120.516719 
L 316.888923 144.037587 
L 316.977241 107.741046 
L 317.06556 113.260938 
L 317.153878 178.913033 
L 317.418833 76.807738 
L 317.59547 145.732471 
L 317.683788 106.416153 
L 317.772107 122.999286 
L 317.860425 112.347407 
L 317.948743 160.58358 
L 318.12538 96.732139 
L 318.302017 117.555267 
L 318.478653 98.549381 
L 318.566972 143.031167 
L 318.65529 105.060109 
L 318.743608 130.851233 
L 318.831927 124.646302 
L 319.008563 137.207854 
L 319.096882 98.515042 
L 319.1852 108.900543 
L 319.273518 98.536056 
L 319.450155 148.161225 
L 319.626792 105.021912 
L 319.803428 176.418513 
L 319.980065 99.589088 
L 320.333338 139.720446 
L 320.509975 102.027417 
L 320.686612 145.595819 
L 320.863249 107.228479 
L 320.951567 108.816382 
L 321.039885 123.831815 
L 321.216522 82.338702 
L 321.30484 83.310372 
L 321.569795 120.354107 
L 321.658114 112.799123 
L 321.746432 88.557087 
L 321.923069 131.407029 
L 322.011387 88.955498 
L 322.099705 152.961438 
L 322.188024 123.612478 
L 322.276342 151.004969 
L 322.452979 100.005966 
L 322.541297 123.455013 
L 322.629615 97.284582 
L 322.806252 137.602861 
L 322.89457 104.922159 
L 323.071207 130.923531 
L 323.159525 104.00141 
L 323.247844 112.801519 
L 323.424481 101.4865 
L 323.512799 99.451542 
L 323.601117 94.497201 
L 323.689436 129.081214 
L 323.866072 82.858752 
L 323.954391 145.032976 
L 324.042709 115.539702 
L 324.131027 148.451769 
L 324.307664 107.689108 
L 324.395982 155.403922 
L 324.484301 112.000806 
L 324.572619 115.573219 
L 324.660937 159.539358 
L 324.925892 91.572937 
L 325.102529 145.679976 
L 325.102529 145.679976 
" style="fill:none;stroke:#1f77b4;stroke-linecap:square;stroke-width:1.5;"/>
   </g>
   <g id="patch_3">
    <path d="M 46.992481 205.263158 
L 46.992481 28.150376 
" style="fill:none;stroke:#000000;stroke-linecap:square;stroke-linejoin:miter;stroke-width:0.8;"/>
   </g>
   <g id="patch_4">
    <path d="M 46.992481 205.263158 
L 338.345865 205.263158 
" style="fill:none;stroke:#000000;stroke-linecap:square;stroke-linejoin:miter;stroke-width:0.8;"/>
   </g>
  </g>
 </g>
 <defs>
  <clipPath id="p368085f772">
   <rect height="177.112782" width="291.353383" x="46.992481" y="28.150376"/>
  </clipPath>
 </defs>
</svg>
