<?xml version="1.0" encoding="utf-8" standalone="no"?>
<!DOCTYPE svg PUBLIC "-//W3C//DTD SVG 1.1//EN"
  "http://www.w3.org/Graphics/SVG/1.1/DTD/svg11.dtd">
<!-- Created with matplotlib (https://matplotlib.org/) -->
<svg height="234.586466pt" version="1.1" viewBox="0 0 375.93985 234.586466" width="375.93985pt" xmlns="http://www.w3.org/2000/svg" xmlns:xlink="http://www.w3.org/1999/xlink">
 <metadata>
  <rdf:RDF xmlns:cc="http://creativecommons.org/ns#" xmlns:dc="http://purl.org/dc/elements/1.1/" xmlns:rdf="http://www.w3.org/1999/02/22-rdf-syntax-ns#">
   <cc:Work>
    <dc:type rdf:resource="http://purl.org/dc/dcmitype/StillImage"/>
    <dc:date>2021-05-26T11:44:23.799396</dc:date>
    <dc:format>image/svg+xml</dc:format>
    <dc:creator>
     <cc:Agent>
      <dc:title>Matplotlib v3.3.4, https://matplotlib.org/</dc:title>
     </cc:Agent>
    </dc:creator>
   </cc:Work>
  </rdf:RDF>
 </metadata>
 <defs>
  <style type="text/css">*{stroke-linecap:butt;stroke-linejoin:round;}</style>
 </defs>
 <g id="figure_1">
  <g id="patch_1">
   <path d="M 0 234.586466 
L 375.93985 234.586466 
L 375.93985 0 
L 0 0 
z
" style="fill:#ffffff;"/>
  </g>
  <g id="axes_1">
   <g id="patch_2">
    <path d="M 46.992481 205.263158 
L 338.345865 205.263158 
L 338.345865 28.150376 
L 46.992481 28.150376 
z
" style="fill:#ffffff;"/>
   </g>
   <g id="matplotlib.axis_1">
    <g id="xtick_1">
     <g id="line2d_1">
      <path clip-path="url(#p864042f821)" d="M 60.235817 205.263158 
L 60.235817 28.150376 
" style="fill:none;stroke:#d9d9d9;stroke-linecap:square;stroke-width:0.8;"/>
     </g>
     <g id="text_1">
      <!-- 0.00 -->
      <g style="fill:#666666;" transform="translate(50.962184 215.592656)scale(0.0833 -0.0833)">
       <defs>
        <path d="M 31.78125 66.40625 
Q 24.171875 66.40625 20.328125 58.90625 
Q 16.5 51.421875 16.5 36.375 
Q 16.5 21.390625 20.328125 13.890625 
Q 24.171875 6.390625 31.78125 6.390625 
Q 39.453125 6.390625 43.28125 13.890625 
Q 47.125 21.390625 47.125 36.375 
Q 47.125 51.421875 43.28125 58.90625 
Q 39.453125 66.40625 31.78125 66.40625 
z
M 31.78125 74.21875 
Q 44.046875 74.21875 50.515625 64.515625 
Q 56.984375 54.828125 56.984375 36.375 
Q 56.984375 17.96875 50.515625 8.265625 
Q 44.046875 -1.421875 31.78125 -1.421875 
Q 19.53125 -1.421875 13.0625 8.265625 
Q 6.59375 17.96875 6.59375 36.375 
Q 6.59375 54.828125 13.0625 64.515625 
Q 19.53125 74.21875 31.78125 74.21875 
z
" id="DejaVuSans-48"/>
        <path d="M 10.6875 12.40625 
L 21 12.40625 
L 21 0 
L 10.6875 0 
z
" id="DejaVuSans-46"/>
       </defs>
       <use xlink:href="#DejaVuSans-48"/>
       <use x="63.623047" xlink:href="#DejaVuSans-46"/>
       <use x="95.410156" xlink:href="#DejaVuSans-48"/>
       <use x="159.033203" xlink:href="#DejaVuSans-48"/>
      </g>
     </g>
    </g>
    <g id="xtick_2">
     <g id="line2d_2">
      <path clip-path="url(#p864042f821)" d="M 104.394989 205.263158 
L 104.394989 28.150376 
" style="fill:none;stroke:#d9d9d9;stroke-linecap:square;stroke-width:0.8;"/>
     </g>
     <g id="text_2">
      <!-- 0.05 -->
      <g style="fill:#666666;" transform="translate(95.121356 215.592656)scale(0.0833 -0.0833)">
       <defs>
        <path d="M 10.796875 72.90625 
L 49.515625 72.90625 
L 49.515625 64.59375 
L 19.828125 64.59375 
L 19.828125 46.734375 
Q 21.96875 47.46875 24.109375 47.828125 
Q 26.265625 48.1875 28.421875 48.1875 
Q 40.625 48.1875 47.75 41.5 
Q 54.890625 34.8125 54.890625 23.390625 
Q 54.890625 11.625 47.5625 5.09375 
Q 40.234375 -1.421875 26.90625 -1.421875 
Q 22.3125 -1.421875 17.546875 -0.640625 
Q 12.796875 0.140625 7.71875 1.703125 
L 7.71875 11.625 
Q 12.109375 9.234375 16.796875 8.0625 
Q 21.484375 6.890625 26.703125 6.890625 
Q 35.15625 6.890625 40.078125 11.328125 
Q 45.015625 15.765625 45.015625 23.390625 
Q 45.015625 31 40.078125 35.4375 
Q 35.15625 39.890625 26.703125 39.890625 
Q 22.75 39.890625 18.8125 39.015625 
Q 14.890625 38.140625 10.796875 36.28125 
z
" id="DejaVuSans-53"/>
       </defs>
       <use xlink:href="#DejaVuSans-48"/>
       <use x="63.623047" xlink:href="#DejaVuSans-46"/>
       <use x="95.410156" xlink:href="#DejaVuSans-48"/>
       <use x="159.033203" xlink:href="#DejaVuSans-53"/>
      </g>
     </g>
    </g>
    <g id="xtick_3">
     <g id="line2d_3">
      <path clip-path="url(#p864042f821)" d="M 148.55416 205.263158 
L 148.55416 28.150376 
" style="fill:none;stroke:#d9d9d9;stroke-linecap:square;stroke-width:0.8;"/>
     </g>
     <g id="text_3">
      <!-- 0.10 -->
      <g style="fill:#666666;" transform="translate(139.280528 215.592656)scale(0.0833 -0.0833)">
       <defs>
        <path d="M 12.40625 8.296875 
L 28.515625 8.296875 
L 28.515625 63.921875 
L 10.984375 60.40625 
L 10.984375 69.390625 
L 28.421875 72.90625 
L 38.28125 72.90625 
L 38.28125 8.296875 
L 54.390625 8.296875 
L 54.390625 0 
L 12.40625 0 
z
" id="DejaVuSans-49"/>
       </defs>
       <use xlink:href="#DejaVuSans-48"/>
       <use x="63.623047" xlink:href="#DejaVuSans-46"/>
       <use x="95.410156" xlink:href="#DejaVuSans-49"/>
       <use x="159.033203" xlink:href="#DejaVuSans-48"/>
      </g>
     </g>
    </g>
    <g id="xtick_4">
     <g id="line2d_4">
      <path clip-path="url(#p864042f821)" d="M 192.713332 205.263158 
L 192.713332 28.150376 
" style="fill:none;stroke:#d9d9d9;stroke-linecap:square;stroke-width:0.8;"/>
     </g>
     <g id="text_4">
      <!-- 0.15 -->
      <g style="fill:#666666;" transform="translate(183.439699 215.592656)scale(0.0833 -0.0833)">
       <use xlink:href="#DejaVuSans-48"/>
       <use x="63.623047" xlink:href="#DejaVuSans-46"/>
       <use x="95.410156" xlink:href="#DejaVuSans-49"/>
       <use x="159.033203" xlink:href="#DejaVuSans-53"/>
      </g>
     </g>
    </g>
    <g id="xtick_5">
     <g id="line2d_5">
      <path clip-path="url(#p864042f821)" d="M 236.872504 205.263158 
L 236.872504 28.150376 
" style="fill:none;stroke:#d9d9d9;stroke-linecap:square;stroke-width:0.8;"/>
     </g>
     <g id="text_5">
      <!-- 0.20 -->
      <g style="fill:#666666;" transform="translate(227.598871 215.592656)scale(0.0833 -0.0833)">
       <defs>
        <path d="M 19.1875 8.296875 
L 53.609375 8.296875 
L 53.609375 0 
L 7.328125 0 
L 7.328125 8.296875 
Q 12.9375 14.109375 22.625 23.890625 
Q 32.328125 33.6875 34.8125 36.53125 
Q 39.546875 41.84375 41.421875 45.53125 
Q 43.3125 49.21875 43.3125 52.78125 
Q 43.3125 58.59375 39.234375 62.25 
Q 35.15625 65.921875 28.609375 65.921875 
Q 23.96875 65.921875 18.8125 64.3125 
Q 13.671875 62.703125 7.8125 59.421875 
L 7.8125 69.390625 
Q 13.765625 71.78125 18.9375 73 
Q 24.125 74.21875 28.421875 74.21875 
Q 39.75 74.21875 46.484375 68.546875 
Q 53.21875 62.890625 53.21875 53.421875 
Q 53.21875 48.921875 51.53125 44.890625 
Q 49.859375 40.875 45.40625 35.40625 
Q 44.1875 33.984375 37.640625 27.21875 
Q 31.109375 20.453125 19.1875 8.296875 
z
" id="DejaVuSans-50"/>
       </defs>
       <use xlink:href="#DejaVuSans-48"/>
       <use x="63.623047" xlink:href="#DejaVuSans-46"/>
       <use x="95.410156" xlink:href="#DejaVuSans-50"/>
       <use x="159.033203" xlink:href="#DejaVuSans-48"/>
      </g>
     </g>
    </g>
    <g id="xtick_6">
     <g id="line2d_6">
      <path clip-path="url(#p864042f821)" d="M 281.031676 205.263158 
L 281.031676 28.150376 
" style="fill:none;stroke:#d9d9d9;stroke-linecap:square;stroke-width:0.8;"/>
     </g>
     <g id="text_6">
      <!-- 0.25 -->
      <g style="fill:#666666;" transform="translate(271.758043 215.592656)scale(0.0833 -0.0833)">
       <use xlink:href="#DejaVuSans-48"/>
       <use x="63.623047" xlink:href="#DejaVuSans-46"/>
       <use x="95.410156" xlink:href="#DejaVuSans-50"/>
       <use x="159.033203" xlink:href="#DejaVuSans-53"/>
      </g>
     </g>
    </g>
    <g id="xtick_7">
     <g id="line2d_7">
      <path clip-path="url(#p864042f821)" d="M 325.190847 205.263158 
L 325.190847 28.150376 
" style="fill:none;stroke:#d9d9d9;stroke-linecap:square;stroke-width:0.8;"/>
     </g>
     <g id="text_7">
      <!-- 0.30 -->
      <g style="fill:#666666;" transform="translate(315.917215 215.592656)scale(0.0833 -0.0833)">
       <defs>
        <path d="M 40.578125 39.3125 
Q 47.65625 37.796875 51.625 33 
Q 55.609375 28.21875 55.609375 21.1875 
Q 55.609375 10.40625 48.1875 4.484375 
Q 40.765625 -1.421875 27.09375 -1.421875 
Q 22.515625 -1.421875 17.65625 -0.515625 
Q 12.796875 0.390625 7.625 2.203125 
L 7.625 11.71875 
Q 11.71875 9.328125 16.59375 8.109375 
Q 21.484375 6.890625 26.8125 6.890625 
Q 36.078125 6.890625 40.9375 10.546875 
Q 45.796875 14.203125 45.796875 21.1875 
Q 45.796875 27.640625 41.28125 31.265625 
Q 36.765625 34.90625 28.71875 34.90625 
L 20.21875 34.90625 
L 20.21875 43.015625 
L 29.109375 43.015625 
Q 36.375 43.015625 40.234375 45.921875 
Q 44.09375 48.828125 44.09375 54.296875 
Q 44.09375 59.90625 40.109375 62.90625 
Q 36.140625 65.921875 28.71875 65.921875 
Q 24.65625 65.921875 20.015625 65.03125 
Q 15.375 64.15625 9.8125 62.3125 
L 9.8125 71.09375 
Q 15.4375 72.65625 20.34375 73.4375 
Q 25.25 74.21875 29.59375 74.21875 
Q 40.828125 74.21875 47.359375 69.109375 
Q 53.90625 64.015625 53.90625 55.328125 
Q 53.90625 49.265625 50.4375 45.09375 
Q 46.96875 40.921875 40.578125 39.3125 
z
" id="DejaVuSans-51"/>
       </defs>
       <use xlink:href="#DejaVuSans-48"/>
       <use x="63.623047" xlink:href="#DejaVuSans-46"/>
       <use x="95.410156" xlink:href="#DejaVuSans-51"/>
       <use x="159.033203" xlink:href="#DejaVuSans-48"/>
      </g>
     </g>
    </g>
   </g>
   <g id="matplotlib.axis_2">
    <g id="ytick_1">
     <g id="line2d_8">
      <path clip-path="url(#p864042f821)" d="M 46.992481 190.510623 
L 338.345865 190.510623 
" style="fill:none;stroke:#d9d9d9;stroke-linecap:square;stroke-width:0.8;"/>
     </g>
     <g id="text_8">
      <!-- −0.08 -->
      <g style="fill:#666666;" transform="translate(17.464936 193.675372)scale(0.0833 -0.0833)">
       <defs>
        <path d="M 10.59375 35.5 
L 73.1875 35.5 
L 73.1875 27.203125 
L 10.59375 27.203125 
z
" id="DejaVuSans-8722"/>
        <path d="M 31.78125 34.625 
Q 24.75 34.625 20.71875 30.859375 
Q 16.703125 27.09375 16.703125 20.515625 
Q 16.703125 13.921875 20.71875 10.15625 
Q 24.75 6.390625 31.78125 6.390625 
Q 38.8125 6.390625 42.859375 10.171875 
Q 46.921875 13.96875 46.921875 20.515625 
Q 46.921875 27.09375 42.890625 30.859375 
Q 38.875 34.625 31.78125 34.625 
z
M 21.921875 38.8125 
Q 15.578125 40.375 12.03125 44.71875 
Q 8.5 49.078125 8.5 55.328125 
Q 8.5 64.0625 14.71875 69.140625 
Q 20.953125 74.21875 31.78125 74.21875 
Q 42.671875 74.21875 48.875 69.140625 
Q 55.078125 64.0625 55.078125 55.328125 
Q 55.078125 49.078125 51.53125 44.71875 
Q 48 40.375 41.703125 38.8125 
Q 48.828125 37.15625 52.796875 32.3125 
Q 56.78125 27.484375 56.78125 20.515625 
Q 56.78125 9.90625 50.3125 4.234375 
Q 43.84375 -1.421875 31.78125 -1.421875 
Q 19.734375 -1.421875 13.25 4.234375 
Q 6.78125 9.90625 6.78125 20.515625 
Q 6.78125 27.484375 10.78125 32.3125 
Q 14.796875 37.15625 21.921875 38.8125 
z
M 18.3125 54.390625 
Q 18.3125 48.734375 21.84375 45.5625 
Q 25.390625 42.390625 31.78125 42.390625 
Q 38.140625 42.390625 41.71875 45.5625 
Q 45.3125 48.734375 45.3125 54.390625 
Q 45.3125 60.0625 41.71875 63.234375 
Q 38.140625 66.40625 31.78125 66.40625 
Q 25.390625 66.40625 21.84375 63.234375 
Q 18.3125 60.0625 18.3125 54.390625 
z
" id="DejaVuSans-56"/>
       </defs>
       <use xlink:href="#DejaVuSans-8722"/>
       <use x="83.789062" xlink:href="#DejaVuSans-48"/>
       <use x="147.412109" xlink:href="#DejaVuSans-46"/>
       <use x="179.199219" xlink:href="#DejaVuSans-48"/>
       <use x="242.822266" xlink:href="#DejaVuSans-56"/>
      </g>
     </g>
    </g>
    <g id="ytick_2">
     <g id="line2d_9">
      <path clip-path="url(#p864042f821)" d="M 46.992481 167.144119 
L 338.345865 167.144119 
" style="fill:none;stroke:#d9d9d9;stroke-linecap:square;stroke-width:0.8;"/>
     </g>
     <g id="text_9">
      <!-- −0.06 -->
      <g style="fill:#666666;" transform="translate(17.464936 170.308868)scale(0.0833 -0.0833)">
       <defs>
        <path d="M 33.015625 40.375 
Q 26.375 40.375 22.484375 35.828125 
Q 18.609375 31.296875 18.609375 23.390625 
Q 18.609375 15.53125 22.484375 10.953125 
Q 26.375 6.390625 33.015625 6.390625 
Q 39.65625 6.390625 43.53125 10.953125 
Q 47.40625 15.53125 47.40625 23.390625 
Q 47.40625 31.296875 43.53125 35.828125 
Q 39.65625 40.375 33.015625 40.375 
z
M 52.59375 71.296875 
L 52.59375 62.3125 
Q 48.875 64.0625 45.09375 64.984375 
Q 41.3125 65.921875 37.59375 65.921875 
Q 27.828125 65.921875 22.671875 59.328125 
Q 17.53125 52.734375 16.796875 39.40625 
Q 19.671875 43.65625 24.015625 45.921875 
Q 28.375 48.1875 33.59375 48.1875 
Q 44.578125 48.1875 50.953125 41.515625 
Q 57.328125 34.859375 57.328125 23.390625 
Q 57.328125 12.15625 50.6875 5.359375 
Q 44.046875 -1.421875 33.015625 -1.421875 
Q 20.359375 -1.421875 13.671875 8.265625 
Q 6.984375 17.96875 6.984375 36.375 
Q 6.984375 53.65625 15.1875 63.9375 
Q 23.390625 74.21875 37.203125 74.21875 
Q 40.921875 74.21875 44.703125 73.484375 
Q 48.484375 72.75 52.59375 71.296875 
z
" id="DejaVuSans-54"/>
       </defs>
       <use xlink:href="#DejaVuSans-8722"/>
       <use x="83.789062" xlink:href="#DejaVuSans-48"/>
       <use x="147.412109" xlink:href="#DejaVuSans-46"/>
       <use x="179.199219" xlink:href="#DejaVuSans-48"/>
       <use x="242.822266" xlink:href="#DejaVuSans-54"/>
      </g>
     </g>
    </g>
    <g id="ytick_3">
     <g id="line2d_10">
      <path clip-path="url(#p864042f821)" d="M 46.992481 143.777615 
L 338.345865 143.777615 
" style="fill:none;stroke:#d9d9d9;stroke-linecap:square;stroke-width:0.8;"/>
     </g>
     <g id="text_10">
      <!-- −0.04 -->
      <g style="fill:#666666;" transform="translate(17.464936 146.942364)scale(0.0833 -0.0833)">
       <defs>
        <path d="M 37.796875 64.3125 
L 12.890625 25.390625 
L 37.796875 25.390625 
z
M 35.203125 72.90625 
L 47.609375 72.90625 
L 47.609375 25.390625 
L 58.015625 25.390625 
L 58.015625 17.1875 
L 47.609375 17.1875 
L 47.609375 0 
L 37.796875 0 
L 37.796875 17.1875 
L 4.890625 17.1875 
L 4.890625 26.703125 
z
" id="DejaVuSans-52"/>
       </defs>
       <use xlink:href="#DejaVuSans-8722"/>
       <use x="83.789062" xlink:href="#DejaVuSans-48"/>
       <use x="147.412109" xlink:href="#DejaVuSans-46"/>
       <use x="179.199219" xlink:href="#DejaVuSans-48"/>
       <use x="242.822266" xlink:href="#DejaVuSans-52"/>
      </g>
     </g>
    </g>
    <g id="ytick_4">
     <g id="line2d_11">
      <path clip-path="url(#p864042f821)" d="M 46.992481 120.411111 
L 338.345865 120.411111 
" style="fill:none;stroke:#d9d9d9;stroke-linecap:square;stroke-width:0.8;"/>
     </g>
     <g id="text_11">
      <!-- −0.02 -->
      <g style="fill:#666666;" transform="translate(17.464936 123.57586)scale(0.0833 -0.0833)">
       <use xlink:href="#DejaVuSans-8722"/>
       <use x="83.789062" xlink:href="#DejaVuSans-48"/>
       <use x="147.412109" xlink:href="#DejaVuSans-46"/>
       <use x="179.199219" xlink:href="#DejaVuSans-48"/>
       <use x="242.822266" xlink:href="#DejaVuSans-50"/>
      </g>
     </g>
    </g>
    <g id="ytick_5">
     <g id="line2d_12">
      <path clip-path="url(#p864042f821)" d="M 46.992481 97.044607 
L 338.345865 97.044607 
" style="fill:none;stroke:#d9d9d9;stroke-linecap:square;stroke-width:0.8;"/>
     </g>
     <g id="text_12">
      <!-- 0.00 -->
      <g style="fill:#666666;" transform="translate(24.445216 100.209356)scale(0.0833 -0.0833)">
       <use xlink:href="#DejaVuSans-48"/>
       <use x="63.623047" xlink:href="#DejaVuSans-46"/>
       <use x="95.410156" xlink:href="#DejaVuSans-48"/>
       <use x="159.033203" xlink:href="#DejaVuSans-48"/>
      </g>
     </g>
    </g>
    <g id="ytick_6">
     <g id="line2d_13">
      <path clip-path="url(#p864042f821)" d="M 46.992481 73.678103 
L 338.345865 73.678103 
" style="fill:none;stroke:#d9d9d9;stroke-linecap:square;stroke-width:0.8;"/>
     </g>
     <g id="text_13">
      <!-- 0.02 -->
      <g style="fill:#666666;" transform="translate(24.445216 76.842852)scale(0.0833 -0.0833)">
       <use xlink:href="#DejaVuSans-48"/>
       <use x="63.623047" xlink:href="#DejaVuSans-46"/>
       <use x="95.410156" xlink:href="#DejaVuSans-48"/>
       <use x="159.033203" xlink:href="#DejaVuSans-50"/>
      </g>
     </g>
    </g>
    <g id="ytick_7">
     <g id="line2d_14">
      <path clip-path="url(#p864042f821)" d="M 46.992481 50.311599 
L 338.345865 50.311599 
" style="fill:none;stroke:#d9d9d9;stroke-linecap:square;stroke-width:0.8;"/>
     </g>
     <g id="text_14">
      <!-- 0.04 -->
      <g style="fill:#666666;" transform="translate(24.445216 53.476348)scale(0.0833 -0.0833)">
       <use xlink:href="#DejaVuSans-48"/>
       <use x="63.623047" xlink:href="#DejaVuSans-46"/>
       <use x="95.410156" xlink:href="#DejaVuSans-48"/>
       <use x="159.033203" xlink:href="#DejaVuSans-52"/>
      </g>
     </g>
    </g>
   </g>
   <g id="line2d_15">
    <path clip-path="url(#p864042f821)" d="M 60.235817 176.328325 
L 60.324135 129.962712 
L 60.500772 182.66195 
L 60.765727 166.878857 
L 60.854045 172.90131 
L 60.942364 157.519443 
L 61.030682 178.363321 
L 61.119 143.542037 
L 61.295637 197.212577 
L 61.472274 177.4987 
L 61.560592 164.644938 
L 61.64891 178.881532 
L 61.825547 168.589455 
L 62.002184 181.024453 
L 62.17882 147.018172 
L 62.355457 185.914713 
L 62.443775 178.581335 
L 62.532094 158.374285 
L 62.620412 185.64838 
L 62.70873 168.817076 
L 62.797049 179.744318 
L 63.062004 143.757403 
L 63.150322 173.223567 
L 63.23864 171.976688 
L 63.326959 155.553388 
L 63.415277 179.596116 
L 63.591914 151.871394 
L 63.680232 153.553583 
L 63.768551 144.862298 
L 63.945187 180.286024 
L 64.033506 153.268055 
L 64.121824 175.232798 
L 64.210142 153.274038 
L 64.298461 162.565813 
L 64.386779 161.092771 
L 64.475097 150.900653 
L 64.828371 191.188975 
L 64.916689 186.512275 
L 65.093326 158.321453 
L 65.269962 164.115321 
L 65.358281 181.428116 
L 65.446599 152.282361 
L 65.534917 166.468731 
L 65.623236 140.019759 
L 65.711554 151.199149 
L 65.799872 139.642803 
L 65.888191 148.436226 
L 65.976509 170.172294 
L 66.064827 159.147004 
L 66.153146 163.382484 
L 66.241464 157.029033 
L 66.329783 170.995023 
L 66.506419 147.251904 
L 66.594738 183.746138 
L 66.683056 159.0038 
L 66.771374 168.375636 
L 66.859693 155.324877 
L 66.948011 169.022265 
L 67.036329 153.866512 
L 67.124648 169.745245 
L 67.212966 152.335025 
L 67.301284 175.85709 
L 67.389603 171.069417 
L 67.477921 181.432968 
L 67.566239 142.226224 
L 67.654558 148.11125 
L 67.742876 159.202877 
L 67.831194 154.543049 
L 67.919513 143.420184 
L 68.096149 157.102177 
L 68.184468 148.467821 
L 68.361104 171.651789 
L 68.449423 161.614289 
L 68.537741 163.2797 
L 68.714378 157.696776 
L 68.802696 145.213871 
L 68.979333 152.137188 
L 69.067651 182.393233 
L 69.244288 136.962298 
L 69.420925 152.783409 
L 69.597561 160.457795 
L 69.68588 151.169623 
L 69.774198 151.964884 
L 69.950835 170.147407 
L 70.039153 134.550622 
L 70.127471 163.163199 
L 70.21579 161.655812 
L 70.304108 144.393634 
L 70.392426 155.879739 
L 70.480745 152.679989 
L 70.569063 144.394514 
L 70.7457 155.005385 
L 70.834018 167.468315 
L 70.922336 141.76582 
L 71.010655 149.635364 
L 71.098973 132.022998 
L 71.452246 161.277576 
L 71.540565 143.623686 
L 71.717201 159.166467 
L 71.80552 137.184378 
L 71.893838 150.633716 
L 71.982157 125.820218 
L 72.158793 162.57739 
L 72.247112 138.249435 
L 72.33543 142.099742 
L 72.423748 142.359203 
L 72.512067 122.202861 
L 72.688703 132.48351 
L 72.777022 130.907654 
L 72.86534 121.211563 
L 72.953658 137.122349 
L 73.041977 116.956261 
L 73.306932 164.241003 
L 73.39525 113.724192 
L 73.483568 158.649022 
L 73.571887 157.747224 
L 73.660205 133.034843 
L 73.836842 163.122108 
L 74.101797 114.320073 
L 74.190115 144.362628 
L 74.278433 141.595198 
L 74.45507 129.553975 
L 74.543388 137.514375 
L 74.631707 127.45224 
L 74.720025 141.753313 
L 74.896662 127.853542 
L 74.98498 149.40187 
L 75.073299 122.40903 
L 75.161617 125.745433 
L 75.249935 145.774251 
L 75.338254 143.776465 
L 75.426572 124.169083 
L 75.51489 128.519767 
L 75.603209 123.109456 
L 75.691527 143.463708 
L 75.779845 124.679859 
L 75.868164 130.789889 
L 75.956482 112.683111 
L 76.0448 163.001187 
L 76.221437 126.845205 
L 76.309755 131.04658 
L 76.398074 125.999164 
L 76.57471 151.698914 
L 76.751347 123.007669 
L 76.839665 132.358965 
L 77.016302 109.646545 
L 77.192939 124.282889 
L 77.281257 122.157271 
L 77.369575 123.498089 
L 77.457894 132.053079 
L 77.63453 103.266192 
L 77.722849 135.745456 
L 77.811167 128.513911 
L 77.899486 115.268402 
L 77.987804 133.358164 
L 78.076122 132.152489 
L 78.164441 109.585423 
L 78.252759 119.908043 
L 78.341077 117.40193 
L 78.429396 117.345675 
L 78.606032 92.216784 
L 78.694351 101.362354 
L 78.782669 114.868041 
L 78.959306 89.483763 
L 79.135942 86.610573 
L 79.224261 97.733467 
L 79.400897 79.479935 
L 79.489216 88.027326 
L 79.577534 82.833473 
L 79.665852 89.051501 
L 79.754171 65.997467 
L 79.842489 88.254482 
L 80.019126 65.13104 
L 80.107444 66.341874 
L 80.195762 47.38257 
L 80.284081 155.929291 
L 80.372399 149.80894 
L 80.637354 169.571918 
L 80.725673 169.140671 
L 80.813991 179.152716 
L 80.990628 131.619304 
L 81.078946 139.729488 
L 81.255583 174.016548 
L 81.343901 137.397333 
L 81.432219 167.187584 
L 81.520538 142.817103 
L 81.608856 147.833812 
L 81.697174 154.376185 
L 81.785493 129.091827 
L 81.962129 148.990049 
L 82.050448 154.041782 
L 82.138766 129.390526 
L 82.315403 154.405347 
L 82.403721 127.077939 
L 82.580358 147.339981 
L 82.668676 158.91435 
L 82.933631 140.650658 
L 83.110268 183.465306 
L 83.198586 137.511515 
L 83.286904 147.549438 
L 83.375223 150.061108 
L 83.463541 147.635866 
L 83.55186 164.907093 
L 83.728496 139.706164 
L 83.816815 158.050484 
L 83.905133 142.014684 
L 83.993451 144.04956 
L 84.08177 148.307346 
L 84.170088 131.358484 
L 84.258406 132.271961 
L 84.346725 149.03768 
L 84.523361 124.689819 
L 84.61168 160.431043 
L 84.699998 149.932366 
L 84.788316 153.681684 
L 84.964953 142.792752 
L 85.053271 151.427567 
L 85.14159 148.389613 
L 85.229908 149.59699 
L 85.318226 124.330492 
L 85.406545 152.468117 
L 85.583181 142.793033 
L 85.6715 154.176075 
L 85.759818 137.308908 
L 86.024773 160.238246 
L 86.113091 121.648654 
L 86.289728 176.644271 
L 86.378046 149.942311 
L 86.466365 163.133468 
L 86.554683 158.820143 
L 86.73132 136.795721 
L 86.819638 149.812272 
L 86.907957 127.63131 
L 86.996275 152.544303 
L 87.084593 131.80254 
L 87.349548 163.014529 
L 87.437867 144.416538 
L 87.526185 151.548769 
L 87.614503 136.799308 
L 87.702822 141.833785 
L 87.79114 154.761938 
L 87.967777 121.444953 
L 88.056095 155.640107 
L 88.144413 134.142444 
L 88.232732 149.788822 
L 88.32105 128.071704 
L 88.409368 132.763018 
L 88.497687 145.900562 
L 88.586005 138.002944 
L 88.674323 151.873949 
L 88.85096 131.399068 
L 89.027597 151.82229 
L 89.115915 139.162031 
L 89.204233 143.837065 
L 89.292552 121.722614 
L 89.38087 168.390339 
L 89.469189 135.499362 
L 89.557507 138.479998 
L 89.645825 141.458225 
L 89.734144 128.622524 
L 89.91078 145.015641 
L 89.999099 144.180964 
L 90.087417 140.27791 
L 90.175735 147.183833 
L 90.264054 137.935038 
L 90.352372 144.226446 
L 90.44069 134.460191 
L 90.617327 158.276233 
L 90.705645 151.466544 
L 90.793964 123.401631 
L 90.882282 148.296246 
L 91.058919 132.019437 
L 91.147237 131.190917 
L 91.235555 147.405948 
L 91.412192 125.051475 
L 91.50051 164.143828 
L 91.588829 125.774067 
L 91.677147 143.858174 
L 91.765465 132.822195 
L 91.853784 141.138783 
L 91.942102 128.227787 
L 92.03042 130.731684 
L 92.207057 153.517024 
L 92.383694 135.912595 
L 92.472012 140.214255 
L 92.560331 108.944161 
L 92.648649 141.883095 
L 92.736967 102.513327 
L 92.913604 157.399275 
L 93.001922 148.666557 
L 93.090241 121.428909 
L 93.266877 140.675442 
L 93.355196 125.812007 
L 93.531832 139.348109 
L 93.620151 114.785094 
L 93.708469 116.535472 
L 93.885106 143.801228 
L 93.973424 136.851908 
L 94.061742 111.852308 
L 94.238379 148.214828 
L 94.415016 117.363173 
L 94.503334 121.722652 
L 94.591652 113.897804 
L 94.768289 144.528874 
L 94.944926 107.704093 
L 95.033244 114.744628 
L 95.121563 116.791965 
L 95.209881 133.563613 
L 95.298199 114.540702 
L 95.386518 130.06644 
L 95.474836 124.29741 
L 95.563154 132.555533 
L 95.651473 109.413379 
L 95.739791 129.909241 
L 95.916428 105.147162 
L 96.004746 104.843065 
L 96.093064 101.821703 
L 96.181383 101.852108 
L 96.269701 116.54674 
L 96.358019 100.93028 
L 96.446338 113.705483 
L 96.534656 97.609237 
L 96.622974 99.941171 
L 96.711293 87.187074 
L 96.799611 103.821976 
L 96.887929 81.043633 
L 96.976248 84.100455 
L 97.064566 82.35811 
L 97.152884 105.222911 
L 97.329521 86.363232 
L 97.417839 92.15899 
L 97.506158 62.790714 
L 97.594476 64.559325 
L 97.682794 58.011506 
L 97.771113 85.021026 
L 97.859431 57.048539 
L 98.036068 163.875005 
L 98.124386 147.287438 
L 98.212705 160.866885 
L 98.301023 153.406995 
L 98.389341 166.166387 
L 98.565978 143.885698 
L 98.742615 154.461683 
L 98.830933 154.538443 
L 98.919251 141.201584 
L 99.00757 174.776132 
L 99.095888 152.889958 
L 99.184206 160.433612 
L 99.272525 151.029964 
L 99.360843 168.01 
L 99.53748 155.671115 
L 99.625798 169.502652 
L 99.802435 152.54025 
L 100.06739 141.11749 
L 100.155708 138.932395 
L 100.244026 169.714388 
L 100.332345 164.589874 
L 100.5973 139.464665 
L 100.685618 139.889505 
L 100.862255 164.07303 
L 100.950573 154.262548 
L 101.038892 165.452993 
L 101.215528 133.354993 
L 101.303847 145.378689 
L 101.392165 136.774311 
L 101.480483 141.236073 
L 101.568802 140.60905 
L 101.65712 126.759441 
L 101.833757 161.982191 
L 101.922075 161.617095 
L 102.098712 137.086291 
L 102.275348 158.172875 
L 102.363667 166.345502 
L 102.451985 153.175792 
L 102.540303 165.635268 
L 102.805258 130.604806 
L 102.981895 152.584804 
L 103.070213 166.344458 
L 103.158532 158.612235 
L 103.24685 134.978539 
L 103.335168 139.699489 
L 103.423487 139.848546 
L 103.511805 170.685185 
L 103.77676 137.524547 
L 103.953397 168.822056 
L 104.041715 134.666783 
L 104.218352 154.753696 
L 104.30667 151.575523 
L 104.571625 116.450872 
L 104.748262 158.885663 
L 105.013217 125.183521 
L 105.101535 133.702055 
L 105.189854 130.641743 
L 105.36649 166.201308 
L 105.454809 131.463661 
L 105.543127 137.232409 
L 105.719764 145.704964 
L 105.808082 127.707783 
L 105.984719 141.076719 
L 106.073037 157.185841 
L 106.161355 121.70204 
L 106.42631 140.467915 
L 106.514629 144.655771 
L 106.602947 135.774584 
L 106.691266 151.00505 
L 106.867902 121.054274 
L 106.956221 156.933723 
L 107.044539 136.054647 
L 107.132857 139.141412 
L 107.309494 128.633029 
L 107.397812 133.188223 
L 107.486131 117.266831 
L 107.574449 121.227108 
L 107.662767 119.469968 
L 107.839404 135.868117 
L 107.927722 114.553084 
L 108.104359 140.148382 
L 108.192677 138.770648 
L 108.280996 133.141955 
L 108.369314 115.216495 
L 108.457632 136.306468 
L 108.634269 108.674712 
L 108.722587 120.429455 
L 108.810906 148.583033 
L 108.987542 101.852403 
L 109.075861 125.630186 
L 109.164179 123.589325 
L 109.340816 102.450833 
L 109.429134 119.427721 
L 109.605771 100.123493 
L 109.694089 100.444752 
L 109.870726 86.483786 
L 109.959044 127.946227 
L 110.047363 108.808076 
L 110.135681 110.714312 
L 110.223999 114.96593 
L 110.400636 91.120887 
L 110.488954 109.125812 
L 110.577273 108.856752 
L 110.842228 71.577707 
L 110.930546 81.362696 
L 111.018864 96.113478 
L 111.283819 80.655927 
L 111.372138 81.658444 
L 111.460456 62.316711 
L 111.548774 75.217505 
L 111.637093 71.137843 
L 111.725411 74.919701 
L 111.813729 63.714937 
L 111.902048 159.078846 
L 111.990366 157.278507 
L 112.167003 164.331461 
L 112.255321 160.422216 
L 112.343639 177.557441 
L 112.431958 155.81989 
L 112.520276 155.922029 
L 112.608595 153.915002 
L 112.696913 129.575784 
L 112.87355 171.169969 
L 112.961868 142.032734 
L 113.050186 142.748576 
L 113.138505 166.294686 
L 113.226823 138.918467 
L 113.315141 164.129021 
L 113.40346 163.685708 
L 113.580096 132.893017 
L 113.668415 138.098869 
L 113.845051 173.749545 
L 113.93337 147.079179 
L 114.021688 152.161358 
L 114.110006 150.707989 
L 114.198325 152.123005 
L 114.286643 171.090113 
L 114.374961 168.24608 
L 114.551598 150.710898 
L 114.639916 174.459718 
L 114.728235 135.289806 
L 114.816553 144.927606 
L 114.904871 139.162625 
L 114.99319 156.145468 
L 115.258145 137.744567 
L 115.346463 145.240284 
L 115.434782 142.464105 
L 115.699737 168.227432 
L 115.876373 139.6132 
L 115.964692 140.946083 
L 116.05301 148.255476 
L 116.141328 145.321684 
L 116.229647 151.012209 
L 116.317965 164.366548 
L 116.406283 153.445163 
L 116.494602 125.385596 
L 116.58292 131.47849 
L 116.671238 164.202461 
L 116.847875 142.139546 
L 116.936193 169.200803 
L 117.024512 143.789197 
L 117.201148 164.0905 
L 117.377785 133.41614 
L 117.466103 150.982247 
L 117.554422 149.279699 
L 117.64274 162.605255 
L 117.731058 157.520313 
L 117.819377 144.781804 
L 117.907695 176.463164 
L 118.084332 149.504238 
L 118.17265 167.254861 
L 118.260969 140.080857 
L 118.349287 143.88861 
L 118.437605 172.658744 
L 118.525924 149.147502 
L 118.614242 149.774361 
L 118.70256 142.708964 
L 118.879197 164.394543 
L 118.967515 135.357785 
L 119.144152 163.302188 
L 119.23247 136.411653 
L 119.320789 167.585184 
L 119.497425 137.13358 
L 119.674062 150.736884 
L 119.76238 154.385915 
L 119.850699 143.714509 
L 119.939017 166.955836 
L 120.027335 145.354133 
L 120.115654 156.275765 
L 120.203972 139.019313 
L 120.29229 161.473202 
L 120.380609 159.638176 
L 120.468927 131.346442 
L 120.8222 157.807668 
L 120.910519 154.889383 
L 120.998837 140.305937 
L 121.087156 163.523481 
L 121.263792 135.809162 
L 121.352111 164.430276 
L 121.440429 163.857844 
L 121.528747 143.483694 
L 121.793702 173.569289 
L 121.970339 144.360951 
L 122.058657 155.939496 
L 122.146976 155.739108 
L 122.411931 173.829038 
L 122.588567 156.970137 
L 122.941841 173.01038 
L 123.030159 147.854957 
L 123.118477 149.759508 
L 123.295114 136.571294 
L 123.383432 179.246979 
L 123.648387 140.455526 
L 123.736706 186.477249 
L 124.001661 131.837047 
L 124.089979 132.128554 
L 124.354934 173.263022 
L 124.619889 133.674984 
L 124.708208 179.932797 
L 124.796526 148.653801 
L 124.884844 167.966925 
L 124.973163 150.223077 
L 125.061481 158.094537 
L 125.238118 148.81391 
L 125.326436 139.659284 
L 125.503073 164.23675 
L 125.591391 166.623961 
L 125.679709 152.62774 
L 125.768028 155.464558 
L 125.856346 156.818098 
L 125.944664 156.612181 
L 126.121301 131.679082 
L 126.209619 159.651505 
L 126.297938 137.351537 
L 126.386256 171.781193 
L 126.562893 144.422427 
L 126.651211 145.388184 
L 126.739529 149.810166 
L 126.827848 129.114849 
L 126.916166 156.170742 
L 127.004485 146.393563 
L 127.092803 167.952536 
L 127.181121 162.85404 
L 127.26944 136.694915 
L 127.357758 159.132247 
L 127.446076 138.050312 
L 127.622713 164.645231 
L 127.711031 163.862781 
L 127.79935 156.089102 
L 127.887668 156.836854 
L 128.064305 146.954563 
L 128.152623 148.690594 
L 128.240941 148.427626 
L 128.32926 136.602418 
L 128.505896 160.802079 
L 128.594215 138.085316 
L 128.682533 169.297038 
L 128.770851 120.594507 
L 128.85917 167.164857 
L 129.035806 132.990699 
L 129.124125 149.982672 
L 129.212443 129.811691 
L 129.477398 160.941889 
L 129.565716 119.800489 
L 129.742353 171.028756 
L 129.830672 151.702478 
L 129.91899 173.060887 
L 130.007308 136.458209 
L 130.095627 147.412197 
L 130.183945 138.840543 
L 130.360582 176.439815 
L 130.537218 146.660308 
L 130.625537 153.203678 
L 130.713855 150.422635 
L 130.802173 163.456423 
L 130.97881 138.711399 
L 131.067128 164.899791 
L 131.243765 130.502141 
L 131.332083 133.17814 
L 131.50872 156.130247 
L 131.597038 153.148104 
L 131.685357 157.018948 
L 131.773675 155.194383 
L 131.861993 136.331615 
L 132.303585 174.538124 
L 132.391903 162.412285 
L 132.480222 167.17233 
L 132.656859 140.565608 
L 132.745177 150.736418 
L 132.833495 149.535857 
L 132.921814 138.377638 
L 133.010132 163.667096 
L 133.09845 144.427667 
L 133.186769 165.531629 
L 133.275087 147.742497 
L 133.363405 163.787087 
L 133.451724 137.22047 
L 133.540042 147.222072 
L 133.62836 140.946527 
L 133.716679 160.381397 
L 133.893315 149.47226 
L 133.981634 144.998585 
L 134.15827 164.897462 
L 134.246589 150.906119 
L 134.334907 152.884338 
L 134.423225 159.344893 
L 134.511544 134.786984 
L 134.776499 164.426361 
L 134.953135 154.025399 
L 135.041454 171.496739 
L 135.129772 145.063122 
L 135.21809 170.673583 
L 135.394727 140.034842 
L 135.483045 139.760642 
L 135.571364 160.503299 
L 135.659682 158.834101 
L 135.836319 153.866083 
L 135.924637 155.704947 
L 136.012956 151.74994 
L 136.189592 139.757315 
L 136.277911 140.4337 
L 136.454547 162.460362 
L 136.542866 154.410257 
L 136.631184 115.577506 
L 136.719502 159.714536 
L 136.807821 157.422313 
L 136.896139 142.756139 
L 136.984457 161.686702 
L 137.337731 128.291942 
L 137.514367 157.375988 
L 137.691004 138.911325 
L 137.779322 179.24205 
L 137.867641 172.667865 
L 137.955959 122.301225 
L 138.044277 146.04407 
L 138.132596 138.721835 
L 138.220914 153.561015 
L 138.309232 143.288621 
L 138.397551 153.443272 
L 138.485869 146.652784 
L 138.574188 169.754407 
L 138.750824 151.13723 
L 138.839143 154.43081 
L 138.927461 134.120128 
L 139.015779 150.045102 
L 139.104098 148.052764 
L 139.280734 140.280795 
L 139.369053 166.448348 
L 139.457371 151.441749 
L 139.545689 160.175299 
L 139.634008 155.350998 
L 139.810644 141.440862 
L 139.898963 147.685387 
L 139.987281 166.748181 
L 140.075599 126.596717 
L 140.340554 152.697662 
L 140.428873 132.718417 
L 140.517191 153.378701 
L 140.605509 143.357095 
L 140.693828 148.170531 
L 140.782146 134.248574 
L 140.958783 147.551458 
L 141.135419 128.865377 
L 141.223738 137.487944 
L 141.312056 165.952124 
L 141.400375 134.708547 
L 141.488693 162.880758 
L 141.577011 156.109116 
L 141.753648 139.297049 
L 141.841966 136.765262 
L 141.930285 146.865097 
L 142.018603 139.515601 
L 142.106921 153.536105 
L 142.19524 149.131663 
L 142.283558 162.207322 
L 142.371876 147.906498 
L 142.460195 161.350729 
L 142.636831 128.745134 
L 142.813468 145.093819 
L 142.901786 136.539571 
L 143.166741 170.362946 
L 143.25506 151.548563 
L 143.343378 166.951633 
L 143.520015 139.486378 
L 143.696651 132.746958 
L 143.78497 140.638913 
L 143.873288 124.255155 
L 144.138243 168.007894 
L 144.491517 114.922397 
L 144.579835 136.867772 
L 144.668153 134.32986 
L 144.756472 140.576047 
L 144.84479 131.603151 
L 144.933108 140.658749 
L 145.021427 135.494349 
L 145.198063 154.154474 
L 145.286382 128.010561 
L 145.3747 154.376082 
L 145.463018 137.11981 
L 145.551337 152.187554 
L 145.639655 140.148302 
L 145.727973 142.027692 
L 145.816292 138.665007 
L 145.90461 128.697582 
L 146.081247 163.593593 
L 146.169565 118.414458 
L 146.257883 160.128071 
L 146.346202 140.469697 
L 146.43452 147.887492 
L 146.522838 142.714774 
L 146.611157 167.370583 
L 146.699475 148.40658 
L 146.787793 166.455184 
L 146.96443 127.19794 
L 147.052749 142.775014 
L 147.141067 138.604132 
L 147.229385 126.750241 
L 147.317704 149.12287 
L 147.406022 134.093032 
L 147.49434 153.004894 
L 147.582659 124.632975 
L 147.670977 144.532503 
L 147.759295 122.131528 
L 147.847614 150.157572 
L 147.935932 143.136477 
L 148.02425 132.276003 
L 148.200887 162.490939 
L 148.289205 158.141577 
L 148.377524 137.27198 
L 148.465842 152.558687 
L 148.55416 141.21671 
L 148.819115 165.320495 
L 148.995752 136.267851 
L 149.08407 146.076398 
L 149.172389 126.368494 
L 149.260707 137.576665 
L 149.437344 120.557257 
L 149.525662 127.339724 
L 149.61398 157.507518 
L 149.790617 118.034226 
L 149.967254 135.226329 
L 150.143891 132.37454 
L 150.232209 126.540977 
L 150.408846 141.300955 
L 150.585482 109.019876 
L 150.673801 126.232239 
L 150.762119 120.243421 
L 150.850437 151.677814 
L 150.938756 146.589849 
L 151.027074 127.570941 
L 151.115392 131.021686 
L 151.203711 123.488241 
L 151.292029 127.094073 
L 151.380347 116.482106 
L 151.468666 133.374289 
L 151.556984 130.37701 
L 151.645302 93.968898 
L 151.733621 151.903841 
L 151.821939 129.182917 
L 151.910257 134.228272 
L 151.998576 139.681787 
L 152.086894 85.243417 
L 152.175212 138.460338 
L 152.263531 137.562194 
L 152.351849 107.362784 
L 152.440167 107.638112 
L 152.528486 127.437519 
L 152.616804 125.805791 
L 152.793441 101.221384 
L 152.881759 133.978724 
L 152.970078 125.480792 
L 153.058396 102.529016 
L 153.146714 103.285109 
L 153.235033 128.244171 
L 153.323351 106.227148 
L 153.411669 137.849938 
L 153.499988 130.253998 
L 153.853261 100.575038 
L 153.941579 125.604969 
L 154.029898 122.612892 
L 154.118216 98.683784 
L 154.206534 117.508341 
L 154.471489 100.604188 
L 154.559808 104.389778 
L 154.648126 74.253572 
L 154.736444 95.227498 
L 154.824763 84.556971 
L 154.913081 126.821055 
L 155.089718 87.749206 
L 155.178036 109.873106 
L 155.354673 80.347816 
L 155.442991 91.77171 
L 155.531309 76.201564 
L 155.619628 85.138759 
L 155.707946 60.895595 
L 155.884583 88.143123 
L 156.06122 81.395036 
L 156.149538 44.277911 
L 156.237856 164.336041 
L 156.326175 159.778875 
L 156.502811 140.308187 
L 156.59113 153.394609 
L 156.679448 143.494956 
L 156.767766 148.257948 
L 156.944403 171.679776 
L 157.032721 148.083808 
L 157.297676 185.995128 
L 157.562631 140.601489 
L 157.65095 173.800443 
L 157.739268 144.80405 
L 157.915905 164.474936 
L 158.004223 174.162384 
L 158.269178 127.575545 
L 158.357496 166.395374 
L 158.534133 148.098733 
L 158.622452 160.305991 
L 158.71077 141.352384 
L 158.799088 166.844498 
L 158.887407 142.838352 
L 158.975725 163.272365 
L 159.152362 146.038215 
L 159.417317 163.950329 
L 159.505635 151.406381 
L 159.593953 166.255386 
L 159.682272 134.751113 
L 159.77059 136.178617 
L 159.858908 140.50284 
L 159.947227 137.165959 
L 160.123863 155.176255 
L 160.212182 155.28723 
L 160.388818 153.623799 
L 160.477137 134.739229 
L 160.653773 156.458035 
L 160.742092 125.863307 
L 160.83041 139.389017 
L 160.918728 170.921023 
L 161.095365 133.06344 
L 161.272002 163.197683 
L 161.36032 144.177624 
L 161.448638 144.357419 
L 161.536957 149.506273 
L 161.625275 144.853349 
L 161.713594 148.381616 
L 161.801912 133.495618 
L 161.89023 166.934929 
L 161.978549 150.938462 
L 162.066867 156.710148 
L 162.331822 136.524055 
L 162.508459 132.090755 
L 162.596777 132.927828 
L 162.685095 150.020979 
L 162.773414 140.776188 
L 162.861732 153.169348 
L 162.95005 138.31868 
L 163.038369 146.641367 
L 163.126687 136.045184 
L 163.215005 137.601372 
L 163.303324 146.95042 
L 163.391642 126.803841 
L 163.47996 147.960736 
L 163.568279 131.763116 
L 163.656597 166.235954 
L 163.744915 137.651002 
L 163.833234 157.228267 
L 163.921552 144.374348 
L 164.00987 112.813545 
L 164.098189 141.126922 
L 164.186507 136.932886 
L 164.274825 134.663801 
L 164.363144 144.306591 
L 164.451462 123.1174 
L 164.539781 152.811125 
L 164.628099 136.078621 
L 164.716417 145.308258 
L 164.804736 139.536562 
L 164.893054 141.574368 
L 164.981372 127.690483 
L 165.069691 136.051843 
L 165.158009 133.076627 
L 165.246327 141.926687 
L 165.334646 129.433535 
L 165.422964 131.50129 
L 165.511282 127.903274 
L 165.599601 164.754284 
L 165.776237 127.651626 
L 165.952874 139.67844 
L 166.041192 132.005214 
L 166.129511 141.980169 
L 166.217829 112.337742 
L 166.394466 152.182019 
L 166.482784 125.459037 
L 166.571102 131.138148 
L 166.659421 119.524524 
L 166.747739 139.532121 
L 166.836057 116.459399 
L 167.012694 131.683247 
L 167.101012 128.011407 
L 167.189331 147.6013 
L 167.277649 107.669558 
L 167.454286 154.615505 
L 167.542604 123.839266 
L 167.630923 128.281481 
L 167.719241 121.162132 
L 167.895878 145.485035 
L 168.072514 134.455714 
L 168.160833 130.157725 
L 168.249151 132.703804 
L 168.337469 117.793489 
L 168.425788 136.879885 
L 168.602424 113.90789 
L 168.690743 145.859355 
L 168.779061 108.518245 
L 169.044016 131.514617 
L 169.132334 112.756101 
L 169.220653 128.539682 
L 169.397289 115.884569 
L 169.573926 134.091089 
L 169.750563 111.244562 
L 169.927199 148.710649 
L 170.103836 114.98822 
L 170.192155 137.943168 
L 170.280473 103.106217 
L 170.368791 112.444664 
L 170.545428 105.654954 
L 170.633746 119.134314 
L 170.722065 84.909396 
L 170.810383 126.997838 
L 170.98702 96.922905 
L 171.075338 91.147492 
L 171.251975 102.184896 
L 171.428611 86.882845 
L 171.51693 86.149378 
L 171.693566 100.461912 
L 171.870203 75.233326 
L 172.04684 63.281378 
L 172.223476 72.824445 
L 172.311795 71.097372 
L 172.400113 60.899086 
L 172.488431 169.477144 
L 172.57675 140.574328 
L 172.665068 146.739368 
L 172.753386 167.848191 
L 172.841705 153.70767 
L 172.930023 161.032631 
L 173.10666 137.658075 
L 173.194978 142.476764 
L 173.283297 172.276694 
L 173.459933 143.398933 
L 173.548252 168.090941 
L 173.63657 147.32328 
L 173.724888 162.558571 
L 173.901525 125.620188 
L 174.078162 164.67603 
L 174.16648 162.488187 
L 174.254798 170.829418 
L 174.343117 145.22026 
L 174.519753 169.144252 
L 174.69639 146.475453 
L 174.784708 172.497187 
L 175.137982 136.117245 
L 175.402937 176.658185 
L 175.491255 142.191644 
L 175.579573 155.739583 
L 175.667892 149.304745 
L 175.75621 158.38835 
L 175.844528 157.201491 
L 175.932847 141.555366 
L 176.109484 166.156963 
L 176.197802 144.150087 
L 176.28612 151.008737 
L 176.374439 141.65423 
L 176.462757 147.562259 
L 176.639394 132.69809 
L 176.727712 138.50203 
L 176.81603 162.267777 
L 176.904349 152.800103 
L 176.992667 173.338347 
L 177.080985 158.887246 
L 177.257622 168.943469 
L 177.434259 143.852851 
L 177.522577 170.92346 
L 177.610895 152.230068 
L 177.699214 162.956369 
L 177.787532 139.893418 
L 177.87585 168.209066 
L 178.052487 143.893428 
L 178.229124 175.738225 
L 178.40576 137.56378 
L 178.494079 153.680738 
L 178.582397 148.592934 
L 178.759034 174.290421 
L 178.935671 153.809636 
L 179.023989 161.965283 
L 179.200626 152.484701 
L 179.288944 155.37558 
L 179.377262 137.036237 
L 179.642217 159.190584 
L 179.730536 146.199534 
L 179.818854 167.316891 
L 179.995491 140.310996 
L 180.083809 153.945424 
L 180.172127 139.916953 
L 180.348764 175.675823 
L 180.702037 144.022631 
L 180.878674 146.288741 
L 180.966992 160.367691 
L 181.055311 156.948048 
L 181.143629 140.119409 
L 181.231947 144.523234 
L 181.408584 176.241372 
L 181.496902 147.466259 
L 181.585221 154.533252 
L 181.673539 144.871792 
L 181.761858 177.821036 
L 181.850176 156.039836 
L 181.938494 157.979048 
L 182.026813 147.067847 
L 182.115131 154.576596 
L 182.203449 146.719511 
L 182.291768 154.689275 
L 182.380086 154.239104 
L 182.556723 131.994877 
L 182.733359 165.061494 
L 182.821678 159.452151 
L 182.909996 132.570147 
L 182.998314 166.204194 
L 183.086633 133.797621 
L 183.263269 148.455558 
L 183.351588 151.929045 
L 183.528224 168.031541 
L 183.616543 170.144144 
L 183.793179 142.983256 
L 183.969816 167.97368 
L 184.058134 137.480124 
L 184.234771 151.549811 
L 184.323089 157.669593 
L 184.411408 152.796112 
L 184.499726 153.4338 
L 184.588044 156.127848 
L 184.676363 165.044368 
L 184.764681 154.700365 
L 184.853 171.010929 
L 184.941318 166.406656 
L 185.029636 169.810867 
L 185.117955 132.238437 
L 185.294591 166.209766 
L 185.38291 149.11298 
L 185.559546 155.406611 
L 185.647865 157.548687 
L 185.736183 137.592393 
L 185.824501 174.277378 
L 186.001138 141.324625 
L 186.089456 162.780462 
L 186.177775 154.829072 
L 186.266093 161.115069 
L 186.354411 151.081494 
L 186.44273 159.966449 
L 186.619366 149.295489 
L 186.707685 155.314478 
L 186.796003 153.150333 
L 186.884321 158.494546 
L 186.97264 172.236042 
L 187.060958 149.425102 
L 187.237595 162.067406 
L 187.325913 140.831729 
L 187.414231 152.745069 
L 187.50255 146.565638 
L 187.590868 147.594454 
L 187.679187 146.2767 
L 187.767505 168.788815 
L 188.03246 138.31238 
L 188.209097 163.818477 
L 188.297415 151.035706 
L 188.385733 165.952993 
L 188.56237 142.927688 
L 188.650688 142.766565 
L 188.739007 159.944673 
L 188.827325 148.860997 
L 189.09228 164.95364 
L 189.180598 136.158993 
L 189.357235 157.829426 
L 189.445553 140.970635 
L 189.533872 163.126919 
L 189.798827 136.624572 
L 189.887145 158.098856 
L 189.975463 146.512962 
L 190.1521 165.289073 
L 190.240418 141.791459 
L 190.328737 147.058821 
L 190.417055 153.633126 
L 190.505374 141.835964 
L 190.593692 152.100742 
L 190.68201 148.261075 
L 190.770329 162.040195 
L 190.858647 133.901875 
L 190.946965 141.529697 
L 191.035284 134.130324 
L 191.123602 153.482014 
L 191.21192 150.709541 
L 191.300239 160.704372 
L 191.388557 156.631444 
L 191.476875 174.528286 
L 191.653512 152.932161 
L 191.74183 153.808041 
L 191.830149 132.907176 
L 192.006785 155.20413 
L 192.183422 136.794868 
L 192.27174 157.373948 
L 192.360059 152.947486 
L 192.536695 163.104174 
L 192.713332 125.603421 
L 192.80165 127.085119 
L 192.889969 142.317965 
L 192.978287 132.562138 
L 193.066605 147.659391 
L 193.154924 131.620111 
L 193.243242 156.884208 
L 193.331561 151.723235 
L 193.508197 133.907575 
L 193.596516 143.595755 
L 193.684834 131.818725 
L 193.773152 150.717534 
L 193.861471 148.404137 
L 194.038107 129.985311 
L 194.126426 132.86877 
L 194.214744 155.932186 
L 194.303062 150.838324 
L 194.391381 163.670393 
L 194.568017 133.115116 
L 194.656336 165.307626 
L 194.832972 137.447658 
L 194.921291 151.251669 
L 195.097927 122.935392 
L 195.274564 138.857071 
L 195.362882 130.991475 
L 195.539519 158.919356 
L 195.627837 143.006875 
L 195.716156 152.6246 
L 195.981111 133.586363 
L 196.069429 126.029599 
L 196.157748 139.076987 
L 196.246066 129.43434 
L 196.334384 144.720756 
L 196.422703 122.799822 
L 196.511021 161.831057 
L 196.599339 153.209396 
L 196.687658 108.169122 
L 196.864294 156.613522 
L 196.952613 152.525097 
L 197.040931 131.280868 
L 197.129249 136.311074 
L 197.217568 133.551152 
L 197.394204 161.632585 
L 197.482523 129.205568 
L 197.570841 151.010604 
L 197.659159 139.743964 
L 197.747478 143.61846 
L 197.835796 143.449742 
L 197.924114 139.87105 
L 198.012433 149.991082 
L 198.100751 140.520748 
L 198.277388 156.471967 
L 198.454024 115.10364 
L 198.630661 147.850966 
L 198.718979 125.171214 
L 198.807298 158.351503 
L 198.895616 156.609218 
L 199.072253 133.08443 
L 199.160571 145.27985 
L 199.24889 133.426971 
L 199.337208 140.689447 
L 199.425526 140.417831 
L 199.513845 127.67306 
L 199.690481 136.389873 
L 199.7788 130.418094 
L 199.867118 107.722365 
L 199.955436 143.585921 
L 200.043755 131.423171 
L 200.132073 134.320639 
L 200.220391 126.371807 
L 200.397028 151.558158 
L 200.485346 115.410903 
L 200.573665 119.285279 
L 200.661983 108.948365 
L 200.83862 147.614875 
L 201.103575 114.142192 
L 201.191893 152.920467 
L 201.456848 109.58942 
L 201.633485 149.946689 
L 201.721803 127.414109 
L 201.810121 132.018402 
L 202.075077 115.63518 
L 202.340032 133.753995 
L 202.42835 114.292416 
L 202.693305 141.467621 
L 203.046578 104.098011 
L 203.134897 113.678353 
L 203.223215 112.792279 
L 203.311533 110.248542 
L 203.399852 94.080828 
L 203.48817 101.963926 
L 203.576488 128.87881 
L 203.753125 98.248136 
L 203.929762 83.552088 
L 204.01808 108.754958 
L 204.106398 88.01949 
L 204.194717 97.871192 
L 204.371353 81.728983 
L 204.636308 111.913423 
L 204.724627 81.332935 
L 204.812945 97.342023 
L 204.989582 87.517773 
L 205.0779 72.096672 
L 205.166219 86.039996 
L 205.254537 66.560091 
L 205.342855 92.860854 
L 205.431174 61.760353 
L 205.60781 150.46153 
L 205.696129 149.977369 
L 205.961084 163.439634 
L 206.049402 155.178179 
L 206.13772 164.916516 
L 206.226039 152.054377 
L 206.314357 155.037708 
L 206.402675 164.686392 
L 206.490994 149.613978 
L 206.579312 154.341758 
L 206.66763 153.879789 
L 206.755949 154.810784 
L 206.844267 157.347865 
L 206.932585 155.313699 
L 207.020904 161.068214 
L 207.109222 139.890647 
L 207.285859 156.014433 
L 207.374177 143.274475 
L 207.550814 164.371811 
L 207.639132 139.423559 
L 207.727451 165.759858 
L 207.815769 147.566744 
L 207.904087 151.379783 
L 207.992406 152.86225 
L 208.080724 152.28125 
L 208.257361 146.465376 
L 208.345679 149.504214 
L 208.433997 164.694917 
L 208.522316 161.474806 
L 208.610634 145.334218 
L 208.787271 156.89116 
L 208.963907 129.947628 
L 209.140544 168.963128 
L 209.228862 148.905664 
L 209.317181 154.225291 
L 209.405499 144.294958 
L 209.582136 156.439286 
L 209.670454 149.467738 
L 209.758772 166.121595 
L 209.935409 150.926022 
L 210.023727 165.048965 
L 210.112046 157.723696 
L 210.200364 136.333998 
L 210.288682 167.036129 
L 210.377001 162.519034 
L 210.465319 158.174612 
L 210.553637 162.227269 
L 210.641956 140.611503 
L 210.730274 155.5778 
L 210.818593 153.657666 
L 210.906911 161.372554 
L 210.995229 152.565243 
L 211.083548 173.770289 
L 211.171866 162.10983 
L 211.260184 135.497272 
L 211.348503 144.114984 
L 211.436821 168.274694 
L 211.525139 125.107938 
L 211.613458 149.230881 
L 211.701776 135.378576 
L 211.790094 136.969227 
L 211.878413 162.925225 
L 211.966731 161.02135 
L 212.055049 140.851846 
L 212.143368 142.588981 
L 212.320004 165.903617 
L 212.496641 130.763846 
L 212.584959 170.915211 
L 212.673278 142.986547 
L 212.761596 148.174026 
L 212.849914 147.274023 
L 212.938233 137.349626 
L 213.114869 145.783643 
L 213.203188 138.21961 
L 213.379824 156.853352 
L 213.468143 132.500519 
L 213.556461 149.113451 
L 213.733098 132.164037 
L 213.821416 142.20071 
L 213.909735 137.762739 
L 213.998053 145.181383 
L 214.086371 138.756966 
L 214.17469 144.423414 
L 214.351326 132.543187 
L 214.439645 132.097746 
L 214.527963 154.17911 
L 214.616281 133.421855 
L 214.792918 157.58749 
L 214.881236 126.562833 
L 215.057873 155.045506 
L 215.146191 128.206309 
L 215.23451 138.352604 
L 215.322828 137.455054 
L 215.411146 145.160773 
L 215.499465 145.098166 
L 215.676101 125.033264 
L 215.76442 149.071022 
L 215.852738 145.648449 
L 215.941056 140.358933 
L 216.029375 143.060793 
L 216.29433 118.977309 
L 216.470967 148.248315 
L 216.559285 137.399376 
L 216.647603 151.835975 
L 216.735922 133.710669 
L 217.000877 152.785758 
L 217.089195 143.760553 
L 217.177513 153.394502 
L 217.265832 143.017976 
L 217.35415 149.639345 
L 217.442468 133.489967 
L 217.707423 156.068764 
L 217.795742 131.327974 
L 217.88406 159.304715 
L 218.060697 110.338477 
L 218.237333 157.8026 
L 218.325652 132.101253 
L 218.502288 151.416023 
L 218.678925 127.027326 
L 218.767243 160.977919 
L 219.032198 125.540214 
L 219.120517 132.427142 
L 219.208835 128.436019 
L 219.385472 145.737008 
L 219.562109 125.268727 
L 219.650427 150.101605 
L 219.827064 120.201083 
L 219.915382 121.551455 
L 220.0037 134.572852 
L 220.092019 127.415746 
L 220.180337 127.733459 
L 220.268655 139.762304 
L 220.356974 121.839549 
L 220.445292 137.81677 
L 220.621929 127.023846 
L 220.710247 129.824167 
L 220.798565 122.407848 
L 220.886884 136.250796 
L 221.06352 99.451296 
L 221.151839 102.992917 
L 221.240157 100.292235 
L 221.328475 129.7122 
L 221.416794 112.447988 
L 221.505112 120.342101 
L 221.59343 99.134446 
L 221.681749 109.583811 
L 221.770067 135.032283 
L 221.946704 115.988942 
L 222.035022 131.092038 
L 222.12334 103.753673 
L 222.211659 108.512804 
L 222.388296 129.044308 
L 222.476614 98.052294 
L 222.564932 114.76707 
L 222.653251 104.067306 
L 222.918206 121.677931 
L 223.183161 89.218675 
L 223.271479 111.495 
L 223.359797 89.37702 
L 223.448116 91.968801 
L 223.536434 85.707935 
L 223.624752 94.140266 
L 223.713071 91.199952 
L 223.801389 75.99046 
L 223.889707 98.783673 
L 223.978026 73.410049 
L 224.066344 76.000423 
L 224.154662 91.42937 
L 224.242981 63.631874 
L 224.331299 78.343867 
L 224.507936 59.355511 
L 224.596254 58.03207 
L 224.684572 52.375915 
L 224.861209 165.103907 
L 224.949527 139.425993 
L 225.037846 163.409163 
L 225.214483 142.522066 
L 225.302801 166.900743 
L 225.391119 147.115544 
L 225.479438 151.299644 
L 225.656074 158.858718 
L 225.744393 159.434139 
L 225.921029 146.286017 
L 226.009348 150.632615 
L 226.097666 159.533791 
L 226.185984 140.603675 
L 226.362621 154.252773 
L 226.450939 151.557251 
L 226.627576 123.221621 
L 226.715894 158.64436 
L 226.804213 141.428389 
L 226.892531 144.849545 
L 226.980849 153.272052 
L 227.069168 142.284492 
L 227.157486 146.716577 
L 227.334123 143.806432 
L 227.422441 149.43999 
L 227.510759 132.155483 
L 227.687396 157.730332 
L 227.775714 153.478275 
L 227.864033 138.966857 
L 228.04067 172.585282 
L 228.217306 151.273495 
L 228.305625 153.413627 
L 228.393943 149.562302 
L 228.482261 169.278896 
L 228.57058 144.298568 
L 228.747216 160.722486 
L 228.923853 127.330828 
L 229.012171 140.905472 
L 229.10049 160.278585 
L 229.188808 141.813309 
L 229.277126 157.86253 
L 229.542081 147.38808 
L 229.6304 147.275193 
L 229.718718 147.787265 
L 229.807036 142.205076 
L 229.895355 166.192324 
L 230.071991 138.985943 
L 230.248628 172.865566 
L 230.336946 138.598135 
L 230.425265 145.245501 
L 230.513583 145.028045 
L 230.601901 146.430003 
L 230.778538 159.711962 
L 230.955175 137.061677 
L 231.043493 170.574506 
L 231.22013 141.023445 
L 231.308448 168.549108 
L 231.396767 141.148221 
L 231.485085 170.47159 
L 231.573403 163.070638 
L 231.661722 165.215006 
L 231.926677 122.034458 
L 232.014995 142.238793 
L 232.103313 129.208183 
L 232.191632 139.046738 
L 232.27995 164.74097 
L 232.456587 133.262143 
L 232.544905 149.182418 
L 232.633223 132.836507 
L 232.721542 156.311426 
L 232.80986 129.555688 
L 232.898178 165.888687 
L 232.986497 141.993592 
L 233.074815 142.32571 
L 233.251452 128.535849 
L 233.33977 136.004722 
L 233.428088 153.413801 
L 233.693044 137.743961 
L 233.781362 136.984913 
L 233.957999 140.831628 
L 234.134635 125.945438 
L 234.39959 153.468674 
L 234.487909 136.155075 
L 234.576227 149.089655 
L 234.752864 118.933194 
L 234.841182 141.985588 
L 234.9295 117.642273 
L 235.017819 143.273845 
L 235.194455 130.007841 
L 235.282774 126.249851 
L 235.371092 116.320284 
L 235.45941 161.164677 
L 235.636047 123.514716 
L 235.724365 158.358013 
L 235.901002 132.643888 
L 235.98932 134.661649 
L 236.077639 139.376503 
L 236.165957 115.782145 
L 236.254275 148.798748 
L 236.430912 133.598871 
L 236.607549 139.758892 
L 236.695867 131.520943 
L 236.784186 132.828437 
L 236.960822 142.405502 
L 237.049141 122.410508 
L 237.137459 143.922755 
L 237.402414 126.278138 
L 237.490732 124.46317 
L 237.579051 117.308523 
L 237.667369 124.181584 
L 237.755687 105.748493 
L 237.844006 144.781361 
L 237.932324 121.776407 
L 238.020642 150.096679 
L 238.197279 111.180783 
L 238.285597 116.367393 
L 238.373916 132.557512 
L 238.462234 121.495649 
L 238.550552 126.184096 
L 238.638871 112.616647 
L 238.727189 119.683342 
L 238.815507 111.266968 
L 238.992144 132.443547 
L 239.168781 116.135547 
L 239.257099 113.095741 
L 239.345417 102.890652 
L 239.522054 114.416965 
L 239.610373 107.361044 
L 239.787009 121.318476 
L 239.875328 116.918304 
L 240.051964 97.905092 
L 240.140283 91.741393 
L 240.228601 95.347555 
L 240.405238 91.310002 
L 240.493556 103.742157 
L 240.670193 88.697987 
L 240.846829 86.245284 
L 240.935148 74.959188 
L 241.023466 80.381331 
L 241.111784 61.89166 
L 241.200103 86.587508 
L 241.376739 48.21513 
L 241.465058 52.18887 
L 241.553376 64.687428 
L 241.641694 145.748828 
L 241.730013 139.503768 
L 241.906649 153.421972 
L 241.994968 161.119689 
L 242.171604 143.974757 
L 242.259923 135.77918 
L 242.348241 174.830551 
L 242.524878 146.536184 
L 242.613196 147.749138 
L 242.701515 145.992263 
L 242.789833 155.773644 
L 242.878151 138.751606 
L 242.96647 143.783698 
L 243.054788 133.91666 
L 243.143106 161.612485 
L 243.231425 129.860442 
L 243.408061 164.097206 
L 243.49638 156.599864 
L 243.584698 136.07593 
L 243.673016 164.557755 
L 243.761335 162.010391 
L 243.849653 174.038211 
L 244.02629 149.997663 
L 244.114608 163.045024 
L 244.202926 142.228246 
L 244.291245 172.713062 
L 244.379563 171.226029 
L 244.467881 151.556871 
L 244.5562 153.525411 
L 244.732836 159.983321 
L 244.821155 144.521025 
L 244.909473 156.75179 
L 244.997791 145.186988 
L 245.174428 152.316175 
L 245.262747 142.834561 
L 245.351065 143.700769 
L 245.439383 164.683332 
L 245.61602 150.704987 
L 245.704338 158.609973 
L 245.880975 111.471409 
L 245.969293 155.377773 
L 246.057612 140.371124 
L 246.322567 172.310258 
L 246.587522 150.100974 
L 246.67584 139.418307 
L 246.852477 170.044732 
L 246.940795 137.800267 
L 247.029113 143.686263 
L 247.117432 162.837061 
L 247.294068 141.843835 
L 247.382387 170.590595 
L 247.470705 156.798061 
L 247.559023 173.221774 
L 247.647342 173.210622 
L 247.73566 141.147618 
L 247.823978 148.324764 
L 247.912297 159.79817 
L 248.000615 147.596601 
L 248.088933 160.322252 
L 248.26557 136.692943 
L 248.442207 167.732673 
L 248.530525 146.075904 
L 248.618844 156.960432 
L 248.707162 151.70491 
L 248.79548 154.764518 
L 248.883799 149.678932 
L 248.972117 169.194652 
L 249.060435 138.383986 
L 249.237072 154.730589 
L 249.413709 142.700927 
L 249.502027 163.160763 
L 249.590345 137.378828 
L 249.678664 144.113249 
L 249.766982 177.889384 
L 249.8553 169.012775 
L 249.943619 143.546446 
L 250.031937 144.031181 
L 250.120255 173.914553 
L 250.208574 146.17715 
L 250.296892 162.600439 
L 250.38521 140.379062 
L 250.473529 155.8923 
L 250.561847 136.197919 
L 250.826802 164.260094 
L 251.003439 131.973929 
L 251.091757 140.879705 
L 251.180076 166.123278 
L 251.268394 154.724899 
L 251.533349 176.4583 
L 251.621667 144.644231 
L 251.709986 152.463185 
L 251.798304 156.377026 
L 251.886622 148.837206 
L 251.974941 153.963491 
L 252.063259 133.224469 
L 252.151577 158.846863 
L 252.239896 148.676998 
L 252.416532 156.503401 
L 252.504851 135.745618 
L 252.593169 151.996584 
L 252.681487 146.247131 
L 252.769806 166.027725 
L 252.858124 137.563906 
L 253.034761 169.407144 
L 253.123079 150.650784 
L 253.211397 165.68931 
L 253.299716 157.98939 
L 253.388034 139.701957 
L 253.476352 158.367868 
L 253.652989 136.393963 
L 253.741307 129.861531 
L 253.917944 152.339547 
L 254.006263 132.114556 
L 254.182899 150.657526 
L 254.271218 142.074091 
L 254.359536 158.351905 
L 254.447854 151.694049 
L 254.536173 162.64702 
L 254.624491 150.838048 
L 254.712809 173.366145 
L 254.801128 138.138092 
L 254.889446 153.829825 
L 254.977764 149.127275 
L 255.066083 161.229649 
L 255.331038 140.63191 
L 255.419356 161.438497 
L 255.684311 135.382444 
L 255.949266 158.253176 
L 256.037584 164.278152 
L 256.125903 141.923715 
L 256.214221 145.269091 
L 256.302539 153.106985 
L 256.390858 149.079961 
L 256.567494 167.945079 
L 256.655813 164.177512 
L 256.744131 180.557394 
L 256.920768 123.124535 
L 257.097405 164.140558 
L 257.185723 144.650721 
L 257.274041 156.586955 
L 257.36236 142.342572 
L 257.450678 157.289478 
L 257.538996 139.189769 
L 257.627315 150.521474 
L 257.715633 135.634973 
L 257.980588 169.326428 
L 258.068906 154.121376 
L 258.157225 163.387448 
L 258.245543 125.520106 
L 258.333861 154.447954 
L 258.598816 137.10684 
L 258.687135 133.196198 
L 258.863771 140.599031 
L 258.95209 159.490133 
L 259.040408 136.701899 
L 259.305363 162.945495 
L 259.393681 143.135848 
L 259.482 143.538754 
L 259.570318 154.115076 
L 259.658636 147.148807 
L 259.746955 153.724794 
L 260.100228 133.299713 
L 260.276865 165.016428 
L 260.453502 147.981937 
L 260.54182 153.686663 
L 260.630138 141.291157 
L 260.718457 144.948069 
L 260.806775 171.154583 
L 260.895093 137.739363 
L 260.983412 167.450306 
L 261.07173 148.222278 
L 261.160048 162.51798 
L 261.248367 139.280168 
L 261.336685 172.439605 
L 261.513322 147.660424 
L 261.60164 136.567826 
L 261.689958 163.103598 
L 261.866595 139.18496 
L 261.954913 164.977274 
L 262.13155 143.010851 
L 262.219868 143.781598 
L 262.484823 160.906925 
L 262.573142 145.95462 
L 262.749779 163.733358 
L 262.838097 163.091892 
L 262.926415 145.17059 
L 263.014734 163.953278 
L 263.103052 159.799023 
L 263.19137 144.24129 
L 263.279689 160.854553 
L 263.368007 145.240824 
L 263.544644 159.029513 
L 263.632962 147.441761 
L 263.72128 168.245035 
L 263.809599 142.614482 
L 263.897917 166.705636 
L 264.074554 143.078273 
L 264.25119 154.595186 
L 264.339509 139.618037 
L 264.427827 152.262916 
L 264.516145 135.290456 
L 264.604464 149.222567 
L 264.692782 133.153099 
L 264.7811 162.060376 
L 264.869419 157.381654 
L 264.957737 153.730439 
L 265.046055 136.567335 
L 265.31101 182.459596 
L 265.399329 158.629202 
L 265.487647 162.692706 
L 265.664284 141.141519 
L 265.840921 159.008329 
L 265.929239 161.406856 
L 266.194194 141.307279 
L 266.282512 153.239821 
L 266.370831 145.524921 
L 266.459149 162.683355 
L 266.547467 138.574935 
L 266.635786 157.923376 
L 266.724104 140.605419 
L 266.812422 170.004019 
L 266.900741 151.947532 
L 266.989059 152.496714 
L 267.077377 162.091702 
L 267.165696 144.160789 
L 267.254014 147.218208 
L 267.342332 141.300879 
L 267.430651 145.700598 
L 267.518969 169.912426 
L 267.607287 138.60697 
L 267.695606 154.780117 
L 267.783924 149.743219 
L 267.872242 150.089138 
L 267.960561 128.328342 
L 268.137197 161.92221 
L 268.402153 141.787183 
L 268.578789 166.290867 
L 268.667108 139.532172 
L 268.755426 166.605747 
L 268.843744 136.127491 
L 269.020381 158.252969 
L 269.108699 137.728055 
L 269.285336 149.282635 
L 269.373654 149.995037 
L 269.461973 159.859668 
L 269.550291 139.443138 
L 269.638609 154.509736 
L 269.726928 144.92363 
L 269.903564 148.949819 
L 269.991883 145.73644 
L 270.168519 114.886401 
L 270.256838 163.123206 
L 270.345156 128.232154 
L 270.433474 174.11178 
L 270.610111 134.91152 
L 270.698429 136.921657 
L 270.786748 122.92465 
L 270.875066 146.758821 
L 270.963384 126.639976 
L 271.051703 147.983609 
L 271.140021 129.105399 
L 271.228339 147.673092 
L 271.316658 136.98929 
L 271.404976 145.553507 
L 271.493295 128.946783 
L 271.581613 131.014157 
L 271.669931 119.205441 
L 271.75825 151.731797 
L 271.846568 112.235181 
L 271.934886 143.661139 
L 272.023205 127.179294 
L 272.28816 143.125528 
L 272.376478 124.537592 
L 272.553115 139.745497 
L 272.641433 142.378373 
L 272.729751 154.19388 
L 272.994706 134.646579 
L 273.083025 140.691597 
L 273.171343 138.623409 
L 273.259661 122.928958 
L 273.436298 139.35025 
L 273.524616 132.119958 
L 273.612935 137.234903 
L 273.701253 132.479807 
L 273.789571 163.444838 
L 273.966208 119.491821 
L 274.054526 136.780203 
L 274.231163 108.436771 
L 274.496118 152.807016 
L 274.761073 108.913841 
L 274.849392 110.962739 
L 275.026028 137.322249 
L 275.202665 135.02435 
L 275.290983 123.298027 
L 275.379302 127.549608 
L 275.46762 104.190379 
L 275.555938 106.840912 
L 275.732575 113.331887 
L 275.820893 107.682656 
L 275.909212 109.497763 
L 275.99753 117.85765 
L 276.085848 112.87344 
L 276.262485 119.999722 
L 276.350803 113.059148 
L 276.52744 120.767143 
L 276.615758 109.416008 
L 276.704077 111.197898 
L 276.792395 110.940317 
L 276.969032 114.771624 
L 277.145669 103.884103 
L 277.322305 116.111159 
L 277.410624 92.61119 
L 277.498942 107.178025 
L 277.675579 94.557715 
L 277.763897 108.354819 
L 277.940534 81.829096 
L 278.028852 103.715125 
L 278.11717 80.25985 
L 278.205489 103.938075 
L 278.382125 64.246201 
L 278.470444 82.544249 
L 278.558762 60.043974 
L 278.64708 62.057072 
L 278.735399 84.59708 
L 278.823717 57.185426 
L 278.912035 171.467311 
L 279.000354 152.457323 
L 279.088672 183.03081 
L 279.265309 148.879257 
L 279.441945 157.93823 
L 279.530264 150.408893 
L 279.618582 129.495954 
L 279.795219 186.152006 
L 279.883537 168.738225 
L 279.971856 152.610498 
L 280.060174 164.940317 
L 280.148492 142.890103 
L 280.236811 166.214251 
L 280.413447 139.952492 
L 280.678402 186.021525 
L 280.766721 128.13851 
L 280.943357 177.867473 
L 281.119994 154.771491 
L 281.208312 142.970768 
L 281.296631 153.304439 
L 281.384949 144.845051 
L 281.561586 169.968372 
L 281.649904 122.808395 
L 281.826541 158.943232 
L 282.003177 146.494255 
L 282.091496 166.233058 
L 282.179814 143.882133 
L 282.268132 190.342905 
L 282.356451 145.840965 
L 282.444769 172.101366 
L 282.621406 126.006787 
L 282.709724 161.979275 
L 282.798043 161.732087 
L 282.974679 117.540397 
L 283.062998 145.320111 
L 283.151316 144.66213 
L 283.327953 155.170841 
L 283.416271 118.303773 
L 283.504589 159.766987 
L 283.592908 150.259853 
L 283.681226 158.387849 
L 283.769544 149.464751 
L 283.857863 152.091795 
L 284.122818 133.615179 
L 284.211136 159.011555 
L 284.299454 151.395938 
L 284.387773 168.269453 
L 284.476091 149.107013 
L 284.564409 163.081085 
L 284.741046 123.85123 
L 284.829364 158.404177 
L 284.917683 126.044263 
L 285.006001 158.333107 
L 285.094319 133.41124 
L 285.182638 135.439728 
L 285.270956 138.042029 
L 285.359274 128.952729 
L 285.447593 153.033504 
L 285.535911 138.268559 
L 285.624229 148.93187 
L 285.800866 138.778888 
L 285.889185 139.419517 
L 285.977503 135.011307 
L 286.242458 153.603231 
L 286.330776 138.092354 
L 286.419095 139.548582 
L 286.507413 162.289186 
L 286.595731 116.877085 
L 286.68405 135.152129 
L 286.772368 135.102612 
L 286.860686 139.299436 
L 286.949005 132.405942 
L 287.037323 114.106527 
L 287.21396 143.674952 
L 287.302278 130.432113 
L 287.567233 147.253718 
L 287.655551 125.477238 
L 287.74387 150.031828 
L 287.832188 128.9647 
L 288.008825 145.163455 
L 288.097143 135.283283 
L 288.185461 140.071698 
L 288.27378 135.803991 
L 288.362098 118.025243 
L 288.538735 165.782553 
L 288.627053 123.585178 
L 288.715372 125.944018 
L 288.80369 121.466749 
L 288.980327 156.56283 
L 289.068645 145.567497 
L 289.156963 111.158396 
L 289.3336 136.159155 
L 289.421918 121.487933 
L 289.510237 126.196742 
L 289.598555 145.671221 
L 289.775192 118.634432 
L 289.86351 134.93293 
L 289.951828 132.43041 
L 290.040147 144.271247 
L 290.128465 113.93646 
L 290.216783 129.213162 
L 290.305102 117.017121 
L 290.39342 131.941428 
L 290.481738 110.712759 
L 290.570057 113.372109 
L 290.658375 127.188257 
L 290.746693 121.174124 
L 290.835012 128.334272 
L 290.92333 113.900101 
L 291.099967 126.986155 
L 291.188285 107.669028 
L 291.276603 125.103656 
L 291.364922 111.35483 
L 291.45324 134.146806 
L 291.541559 102.597967 
L 291.629877 122.026567 
L 291.718195 113.594957 
L 291.806514 127.898008 
L 291.894832 114.268649 
L 291.98315 124.465078 
L 292.071469 99.235767 
L 292.159787 112.459915 
L 292.248105 102.284853 
L 292.336424 128.10211 
L 292.424742 110.500991 
L 292.51306 117.885463 
L 292.601379 114.519987 
L 293.04297 83.973342 
L 293.131289 90.677073 
L 293.219607 119.751532 
L 293.396244 85.247766 
L 293.57288 75.001263 
L 293.661199 89.701365 
L 293.837835 70.553839 
L 293.926154 70.686526 
L 294.014472 87.203824 
L 294.191109 61.547879 
L 294.279427 148.236898 
L 294.367746 147.327717 
L 294.456064 140.892395 
L 294.632701 161.066777 
L 294.721019 137.839875 
L 294.809337 144.919525 
L 294.897656 141.120455 
L 294.985974 152.929938 
L 295.250929 131.095867 
L 295.604202 161.180377 
L 295.692521 153.872753 
L 295.780839 170.595527 
L 295.869157 169.289625 
L 296.045794 142.925087 
L 296.134112 162.17126 
L 296.222431 162.049704 
L 296.310749 161.4784 
L 296.399067 147.842772 
L 296.487386 163.099305 
L 296.575704 161.663104 
L 296.664022 159.099362 
L 296.752341 177.577805 
L 296.840659 133.653376 
L 297.017296 181.162467 
L 297.105614 135.761807 
L 297.193932 144.355195 
L 297.282251 152.719925 
L 297.370569 127.357683 
L 297.547206 138.951626 
L 297.635524 129.652295 
L 297.723843 156.125356 
L 297.812161 147.643781 
L 297.900479 164.246602 
L 297.988798 140.324932 
L 298.077116 140.728635 
L 298.165434 147.490284 
L 298.253753 144.038734 
L 298.342071 166.811943 
L 298.430389 142.92133 
L 298.518708 159.057486 
L 298.607026 125.27452 
L 298.783663 160.171751 
L 298.871981 155.060304 
L 299.048618 140.779074 
L 299.136936 145.28349 
L 299.313573 137.966112 
L 299.401891 137.983639 
L 299.490209 165.024642 
L 299.578528 129.80867 
L 299.755164 154.830712 
L 299.931801 138.245073 
L 300.020119 149.245558 
L 300.196756 132.102689 
L 300.285075 146.033221 
L 300.373393 108.122444 
L 300.461711 162.376046 
L 300.55003 152.013392 
L 300.638348 154.325678 
L 300.726666 126.260992 
L 300.814985 149.378243 
L 300.903303 132.552883 
L 300.991621 148.84422 
L 301.07994 134.394657 
L 301.168258 158.279752 
L 301.256576 139.634228 
L 301.344895 154.042154 
L 301.433213 147.346396 
L 301.521531 156.516731 
L 301.60985 120.726501 
L 301.698168 163.73856 
L 301.874805 135.24403 
L 301.963123 152.247047 
L 302.051441 133.889673 
L 302.13976 141.213186 
L 302.228078 158.336232 
L 302.316396 124.473004 
L 302.404715 160.072206 
L 302.493033 140.413812 
L 302.581351 144.768559 
L 302.757988 131.218649 
L 302.846306 150.783189 
L 302.934625 145.598813 
L 303.022943 148.661495 
L 303.111262 125.193134 
L 303.287898 156.655686 
L 303.376217 161.630049 
L 303.464535 160.196581 
L 303.552853 125.366085 
L 303.641172 133.207794 
L 303.817808 145.347872 
L 303.906127 133.192606 
L 304.171082 150.027935 
L 304.347718 123.369173 
L 304.436037 124.935185 
L 304.524355 140.376816 
L 304.700992 125.834257 
L 304.78931 130.782333 
L 304.877628 144.165552 
L 304.965947 141.389064 
L 305.054265 147.248831 
L 305.230902 119.972746 
L 305.31922 117.213306 
L 305.407538 142.150159 
L 305.495857 119.479568 
L 305.672493 141.593648 
L 305.760812 137.658989 
L 305.937449 125.299413 
L 306.025767 143.246894 
L 306.202404 122.975397 
L 306.290722 125.504813 
L 306.467359 150.75028 
L 306.555677 133.783022 
L 306.732314 153.160705 
L 306.90895 114.318406 
L 306.997269 140.440083 
L 307.085587 138.307328 
L 307.173905 140.26433 
L 307.262224 139.226998 
L 307.350542 154.48377 
L 307.703815 123.198534 
L 307.792134 147.273763 
L 307.96877 119.686434 
L 308.057089 136.669255 
L 308.145407 124.078035 
L 308.322044 135.372483 
L 308.49868 124.614572 
L 308.675317 156.616733 
L 308.851954 114.889055 
L 309.028591 133.703495 
L 309.116909 110.40552 
L 309.293546 137.079452 
L 309.470182 106.402261 
L 309.558501 118.304107 
L 309.646819 91.580488 
L 309.823456 137.269443 
L 309.911774 111.126655 
L 310.000092 116.36487 
L 310.088411 126.483707 
L 310.176729 109.837821 
L 310.265047 123.182083 
L 310.353366 115.710788 
L 310.441684 126.754045 
L 310.530002 115.697156 
L 310.618321 120.73068 
L 310.706639 104.432696 
L 310.883276 117.599009 
L 310.971594 86.381548 
L 311.148231 115.587234 
L 311.236549 85.454743 
L 311.413186 106.884425 
L 311.501504 98.388125 
L 311.589822 133.769949 
L 311.766459 80.409374 
L 311.854778 90.862207 
L 311.943096 87.1639 
L 312.119733 78.016479 
L 312.208051 88.677684 
L 312.296369 72.240758 
L 312.384688 88.123463 
L 312.737961 36.200957 
L 312.914598 152.489099 
L 313.002916 167.128074 
L 313.091234 142.032579 
L 313.179553 148.158737 
L 313.267871 159.441844 
L 313.356189 158.820611 
L 313.444508 154.38606 
L 313.532826 168.909714 
L 313.621144 145.946051 
L 313.709463 147.500326 
L 313.797781 153.133294 
L 313.886099 181.005255 
L 314.151054 138.83638 
L 314.239373 165.370961 
L 314.327691 161.994182 
L 314.416009 144.016003 
L 314.504328 147.089096 
L 314.680965 166.656547 
L 314.769283 142.615126 
L 314.857601 156.541953 
L 314.94592 149.99096 
L 315.034238 165.221196 
L 315.122556 126.518982 
L 315.210875 156.487313 
L 315.299193 147.302101 
L 315.387511 173.287426 
L 315.47583 155.569786 
L 315.564148 163.876511 
L 315.740785 135.963945 
L 315.829103 174.376547 
L 316.00574 153.53727 
L 316.094058 171.416329 
L 316.182376 153.114354 
L 316.270695 154.351665 
L 316.359013 156.982209 
L 316.447331 142.557309 
L 316.53565 164.108006 
L 316.623968 143.972951 
L 316.800605 165.102492 
L 316.888923 151.835099 
L 316.977241 172.769542 
L 317.06556 158.442076 
L 317.153878 165.033749 
L 317.242196 135.989113 
L 317.330515 158.648256 
L 317.418833 126.785855 
L 317.507152 164.455462 
L 317.59547 159.90996 
L 317.683788 174.756768 
L 317.772107 142.396332 
L 317.860425 151.892288 
L 317.948743 145.369277 
L 318.037062 171.613384 
L 318.213698 148.078207 
L 318.478653 160.323759 
L 318.566972 153.254737 
L 318.65529 154.251609 
L 318.743608 167.630478 
L 318.831927 144.78648 
L 318.920245 174.323342 
L 319.008563 156.041424 
L 319.096882 163.269919 
L 319.273518 136.104784 
L 319.361837 156.967598 
L 319.450155 146.951661 
L 319.626792 164.1648 
L 319.803428 139.801456 
L 319.891747 145.558503 
L 319.980065 175.258492 
L 320.068383 148.362948 
L 320.156702 157.381397 
L 320.24502 144.435392 
L 320.333338 165.330499 
L 320.421657 144.151885 
L 320.509975 147.714452 
L 320.598294 162.696956 
L 320.686612 150.406167 
L 320.77493 155.369609 
L 320.863249 145.503767 
L 320.951567 157.504178 
L 321.039885 149.107569 
L 321.128204 150.297685 
L 321.216522 156.324599 
L 321.30484 123.105877 
L 321.481477 151.78297 
L 321.569795 149.45727 
L 321.658114 143.42982 
L 321.923069 159.051141 
L 322.011387 150.125204 
L 322.099705 154.691401 
L 322.188024 144.677502 
L 322.276342 164.748642 
L 322.36466 148.431322 
L 322.452979 149.429336 
L 322.541297 145.492229 
L 322.629615 157.337535 
L 322.717934 127.853245 
L 322.806252 164.285829 
L 322.89457 151.348393 
L 322.982889 157.043017 
L 323.159525 140.98078 
L 323.336162 174.545138 
L 323.512799 151.996606 
L 323.689436 168.923762 
L 323.777754 130.413456 
L 323.866072 160.407587 
L 323.954391 152.702899 
L 324.042709 148.297091 
L 324.131027 159.656585 
L 324.219346 149.361766 
L 324.484301 163.662382 
L 324.572619 144.026129 
L 324.660937 166.966756 
L 324.837574 137.511478 
L 324.925892 156.296229 
L 325.014211 154.267514 
L 325.102529 128.849542 
L 325.102529 128.849542 
" style="fill:none;stroke:#1f77b4;stroke-linecap:square;stroke-width:1.5;"/>
   </g>
   <g id="patch_3">
    <path d="M 46.992481 205.263158 
L 46.992481 28.150376 
" style="fill:none;stroke:#000000;stroke-linecap:square;stroke-linejoin:miter;stroke-width:0.8;"/>
   </g>
   <g id="patch_4">
    <path d="M 46.992481 205.263158 
L 338.345865 205.263158 
" style="fill:none;stroke:#000000;stroke-linecap:square;stroke-linejoin:miter;stroke-width:0.8;"/>
   </g>
  </g>
 </g>
 <defs>
  <clipPath id="p864042f821">
   <rect height="177.112782" width="291.353383" x="46.992481" y="28.150376"/>
  </clipPath>
 </defs>
</svg>
